# Blender 4.3.2
# www.blender.org
mtllib three.mtl
o Icosphere
v 0.000000 -0.500000 0.000000
v 0.361804 -0.223610 0.262863
v -0.138194 -0.223610 0.425325
v -0.447213 -0.223608 0.000000
v -0.138194 -0.223610 -0.425324
v 0.361804 -0.223610 -0.262862
v 0.138194 0.223610 0.425324
v -0.361804 0.223610 0.262862
v -0.361804 0.223610 -0.262863
v 0.138194 0.223610 -0.425325
v 0.447213 0.223608 -0.000000
v 0.000000 0.500000 -0.000000
v -0.081228 -0.425327 0.249998
v 0.212662 -0.425327 0.154506
v 0.131435 -0.262869 0.404506
v 0.425324 -0.262868 0.000000
v 0.212662 -0.425327 -0.154505
v -0.262865 -0.425326 0.000000
v -0.344095 -0.262868 0.249999
v -0.081228 -0.425327 -0.249997
v -0.344095 -0.262868 -0.249998
v 0.131435 -0.262869 -0.404506
v 0.475529 0.000000 0.154507
v 0.475529 -0.000000 -0.154507
v 0.000000 0.000000 0.500000
v 0.293893 0.000000 0.404509
v -0.475529 0.000000 0.154507
v -0.293893 0.000000 0.404509
v -0.293893 -0.000000 -0.404509
v -0.475529 -0.000000 -0.154507
v 0.293893 -0.000000 -0.404509
v 0.000000 -0.000000 -0.500000
v 0.344095 0.262868 0.249998
v -0.131435 0.262869 0.404506
v -0.425324 0.262868 -0.000000
v -0.131435 0.262869 -0.404506
v 0.344095 0.262868 -0.249999
v 0.081228 0.425327 0.249997
v 0.262865 0.425326 -0.000000
v -0.212662 0.425327 0.154505
v -0.212662 0.425327 -0.154506
v 0.081228 0.425327 -0.249998
vn 0.1024 -0.9435 0.3151
vn 0.7002 -0.6617 0.2680
vn -0.2680 -0.9435 0.1947
vn -0.2680 -0.9435 -0.1947
vn 0.1024 -0.9435 -0.3151
vn 0.9050 -0.3304 0.2680
vn 0.0247 -0.3304 0.9435
vn -0.8897 -0.3304 0.3151
vn -0.5746 -0.3304 -0.7488
vn 0.5346 -0.3304 -0.7779
vn 0.8026 -0.1256 0.5831
vn -0.3066 -0.1256 0.9435
vn -0.9921 -0.1256 -0.0000
vn -0.3066 -0.1256 -0.9435
vn 0.8026 -0.1256 -0.5831
vn 0.4089 0.6617 0.6284
vn -0.4713 0.6617 0.5831
vn -0.7002 0.6617 -0.2680
vn 0.0385 0.6617 -0.7488
vn 0.7240 0.6617 -0.1947
vn 0.2680 0.9435 -0.1947
vn 0.4911 0.7947 -0.3568
vn 0.4089 0.6617 -0.6284
vn -0.1024 0.9435 -0.3151
vn -0.1876 0.7947 -0.5773
vn -0.4713 0.6617 -0.5831
vn -0.3313 0.9435 -0.0000
vn -0.6071 0.7947 -0.0000
vn -0.7002 0.6617 0.2680
vn -0.1024 0.9435 0.3151
vn -0.1876 0.7947 0.5773
vn 0.0385 0.6617 0.7488
vn 0.2680 0.9435 0.1947
vn 0.4911 0.7947 0.3568
vn 0.7240 0.6617 0.1947
vn 0.8897 0.3304 -0.3151
vn 0.7947 0.1876 -0.5773
vn 0.5746 0.3304 -0.7488
vn -0.0247 0.3304 -0.9435
vn -0.3035 0.1876 -0.9342
vn -0.5346 0.3304 -0.7779
vn -0.9050 0.3304 -0.2680
vn -0.9822 0.1876 -0.0000
vn -0.9050 0.3304 0.2680
vn -0.5346 0.3304 0.7779
vn -0.3035 0.1876 0.9342
vn -0.0247 0.3304 0.9435
vn 0.5746 0.3304 0.7488
vn 0.7947 0.1876 0.5773
vn 0.8897 0.3304 0.3151
vn 0.3066 0.1256 -0.9435
vn 0.3035 -0.1876 -0.9342
vn 0.0247 -0.3304 -0.9435
vn -0.8026 0.1256 -0.5831
vn -0.7947 -0.1876 -0.5773
vn -0.8897 -0.3304 -0.3151
vn -0.8026 0.1256 0.5831
vn -0.7947 -0.1876 0.5773
vn -0.5746 -0.3304 0.7488
vn 0.3066 0.1256 0.9435
vn 0.3035 -0.1876 0.9342
vn 0.5346 -0.3304 0.7779
vn 0.9921 0.1256 -0.0000
vn 0.9822 -0.1876 -0.0000
vn 0.9050 -0.3304 -0.2680
vn 0.4713 -0.6617 -0.5831
vn 0.1876 -0.7947 -0.5773
vn -0.0385 -0.6617 -0.7488
vn -0.4089 -0.6617 -0.6284
vn -0.4911 -0.7947 -0.3568
vn -0.7240 -0.6617 -0.1947
vn -0.7240 -0.6617 0.1947
vn -0.4911 -0.7947 0.3568
vn -0.4089 -0.6617 0.6284
vn 0.7002 -0.6617 -0.2680
vn 0.6071 -0.7947 -0.0000
vn 0.3313 -0.9435 -0.0000
vn -0.0385 -0.6617 0.7488
vn 0.1876 -0.7947 0.5773
vn 0.4713 -0.6617 0.5831
vt 0.181819 0.000000
vt 0.227273 0.078731
vt 0.136365 0.078731
vt 0.272728 0.157461
vt 0.318182 0.078731
vt 0.363637 0.157461
vt 0.909091 0.000000
vt 0.954545 0.078731
vt 0.863636 0.078731
vt 0.727273 0.000000
vt 0.772727 0.078731
vt 0.681818 0.078731
vt 0.545455 0.000000
vt 0.590909 0.078731
vt 0.500000 0.078731
vt 0.318182 0.236191
vt 0.090910 0.157461
vt 0.181819 0.157461
vt 0.136365 0.236191
vt 0.818182 0.157461
vt 0.909091 0.157461
vt 0.863636 0.236191
vt 0.636364 0.157461
vt 0.727273 0.157461
vt 0.681818 0.236191
vt 0.454546 0.157461
vt 0.545455 0.157461
vt 0.500000 0.236191
vt 0.227273 0.236191
vt 0.045455 0.236191
vt 0.772727 0.236191
vt 0.590909 0.236191
vt 0.409092 0.236191
vt 0.181819 0.314921
vt 0.272728 0.314921
vt 0.227273 0.393651
vt 0.000000 0.314921
vt 0.090910 0.314921
vt 0.045455 0.393651
vt 0.727273 0.314921
vt 0.818182 0.314921
vt 0.772727 0.393651
vt 0.545455 0.314921
vt 0.636364 0.314921
vt 0.590909 0.393651
vt 0.363637 0.314921
vt 0.454546 0.314921
vt 0.409092 0.393651
vt 0.500000 0.393651
vt 0.454546 0.472382
vt 0.681818 0.393651
vt 0.636364 0.472382
vt 0.863636 0.393651
vt 0.818182 0.472382
vt 0.909091 0.314921
vt 0.136365 0.393651
vt 0.090910 0.472382
vt 0.318182 0.393651
vt 0.272728 0.472382
vt 0.954545 0.236191
vt 1.000000 0.157461
vt 0.409092 0.078731
vt 0.363637 0.000000
s 1
usemtl sphere
f 1/1/1 14/2/1 13/3/1
f 2/4/2 14/5/2 16/6/2
f 1/7/3 13/8/3 18/9/3
f 1/10/4 18/11/4 20/12/4
f 1/13/5 20/14/5 17/15/5
f 2/4/6 16/6/6 23/16/6
f 3/17/7 15/18/7 25/19/7
f 4/20/8 19/21/8 27/22/8
f 5/23/9 21/24/9 29/25/9
f 6/26/10 22/27/10 31/28/10
f 2/4/11 23/16/11 26/29/11
f 3/17/12 25/19/12 28/30/12
f 4/20/13 27/22/13 30/31/13
f 5/23/14 29/25/14 32/32/14
f 6/26/15 31/28/15 24/33/15
f 7/34/16 33/35/16 38/36/16
f 8/37/17 34/38/17 40/39/17
f 9/40/18 35/41/18 41/42/18
f 10/43/19 36/44/19 42/45/19
f 11/46/20 37/47/20 39/48/20
f 39/48/21 42/49/21 12/50/21
f 39/48/22 37/47/22 42/49/22
f 37/47/23 10/43/23 42/49/23
f 42/45/24 41/51/24 12/52/24
f 42/45/25 36/44/25 41/51/25
f 36/44/26 9/40/26 41/51/26
f 41/42/27 40/53/27 12/54/27
f 41/42/28 35/41/28 40/53/28
f 35/41/29 8/55/29 40/53/29
f 40/39/30 38/56/30 12/57/30
f 40/39/31 34/38/31 38/56/31
f 34/38/32 7/34/32 38/56/32
f 38/36/33 39/58/33 12/59/33
f 38/36/34 33/35/34 39/58/34
f 33/35/35 11/46/35 39/58/35
f 24/33/36 37/47/36 11/46/36
f 24/33/37 31/28/37 37/47/37
f 31/28/38 10/43/38 37/47/38
f 32/32/39 36/44/39 10/43/39
f 32/32/40 29/25/40 36/44/40
f 29/25/41 9/40/41 36/44/41
f 30/31/42 35/41/42 9/40/42
f 30/31/43 27/22/43 35/41/43
f 27/22/44 8/55/44 35/41/44
f 28/30/45 34/38/45 8/37/45
f 28/30/46 25/19/46 34/38/46
f 25/19/47 7/34/47 34/38/47
f 26/29/48 33/35/48 7/34/48
f 26/29/49 23/16/49 33/35/49
f 23/16/50 11/46/50 33/35/50
f 31/28/51 32/32/51 10/43/51
f 31/28/52 22/27/52 32/32/52
f 22/27/53 5/23/53 32/32/53
f 29/25/54 30/31/54 9/40/54
f 29/25/55 21/24/55 30/31/55
f 21/24/56 4/20/56 30/31/56
f 27/22/57 28/60/57 8/55/57
f 27/22/58 19/21/58 28/60/58
f 19/21/59 3/61/59 28/60/59
f 25/19/60 26/29/60 7/34/60
f 25/19/61 15/18/61 26/29/61
f 15/18/62 2/4/62 26/29/62
f 23/16/63 24/33/63 11/46/63
f 23/16/64 16/6/64 24/33/64
f 16/6/65 6/26/65 24/33/65
f 17/15/66 22/27/66 6/26/66
f 17/15/67 20/14/67 22/27/67
f 20/14/68 5/23/68 22/27/68
f 20/12/69 21/24/69 5/23/69
f 20/12/70 18/11/70 21/24/70
f 18/11/71 4/20/71 21/24/71
f 18/9/72 19/21/72 4/20/72
f 18/9/73 13/8/73 19/21/73
f 13/8/74 3/61/74 19/21/74
f 16/6/75 17/62/75 6/26/75
f 16/6/76 14/5/76 17/62/76
f 14/5/77 1/63/77 17/62/77
f 13/3/78 15/18/78 3/17/78
f 13/3/79 14/2/79 15/18/79
f 14/2/80 2/4/80 15/18/80
o Suzanne
v 0.437500 0.164062 0.765625
v -0.437500 0.164062 0.765625
v 0.500000 0.093750 0.687500
v -0.500000 0.093750 0.687500
v 0.546875 0.054688 0.578125
v -0.546875 0.054688 0.578125
v 0.351562 -0.023438 0.617188
v -0.351562 -0.023438 0.617188
v 0.351562 0.031250 0.718750
v -0.351562 0.031250 0.718750
v 0.351562 0.132812 0.781250
v -0.351562 0.132812 0.781250
v 0.273438 0.164062 0.796875
v -0.273438 0.164062 0.796875
v 0.203125 0.093750 0.742188
v -0.203125 0.093750 0.742188
v 0.156250 0.054688 0.648438
v -0.156250 0.054688 0.648438
v 0.078125 0.242188 0.656250
v -0.078125 0.242188 0.656250
v 0.140625 0.242188 0.742188
v -0.140625 0.242188 0.742188
v 0.242188 0.242188 0.796875
v -0.242188 0.242188 0.796875
v 0.273438 0.328125 0.796875
v -0.273438 0.328125 0.796875
v 0.203125 0.390625 0.742188
v -0.203125 0.390625 0.742188
v 0.156250 0.437500 0.648438
v -0.156250 0.437500 0.648438
v 0.351562 0.515625 0.617188
v -0.351562 0.515625 0.617188
v 0.351562 0.453125 0.718750
v -0.351562 0.453125 0.718750
v 0.351562 0.359375 0.781250
v -0.351562 0.359375 0.781250
v 0.437500 0.328125 0.765625
v -0.437500 0.328125 0.765625
v 0.500000 0.390625 0.687500
v -0.500000 0.390625 0.687500
v 0.546875 0.437500 0.578125
v -0.546875 0.437500 0.578125
v 0.625000 0.242188 0.562500
v -0.625000 0.242188 0.562500
v 0.562500 0.242188 0.671875
v -0.562500 0.242188 0.671875
v 0.468750 0.242188 0.757812
v -0.468750 0.242188 0.757812
v 0.476562 0.242188 0.773438
v -0.476562 0.242188 0.773438
v 0.445312 0.335938 0.781250
v -0.445312 0.335938 0.781250
v 0.351562 0.375000 0.804688
v -0.351562 0.375000 0.804688
v 0.265625 0.335938 0.820312
v -0.265625 0.335938 0.820312
v 0.226562 0.242188 0.820312
v -0.226562 0.242188 0.820312
v 0.265625 0.156250 0.820312
v -0.265625 0.156250 0.820312
v 0.351562 0.242188 0.828125
v -0.351562 0.242188 0.828125
v 0.351562 0.117188 0.804688
v -0.351562 0.117188 0.804688
v 0.445312 0.156250 0.781250
v -0.445312 0.156250 0.781250
v 0.000000 0.429688 0.742188
v 0.000000 0.351562 0.820312
v 0.000000 -0.679688 0.734375
v 0.000000 -0.320312 0.781250
v 0.000000 -0.187500 0.796875
v 0.000000 -0.773438 0.718750
v 0.000000 0.406250 0.601562
v 0.000000 0.570312 0.570312
v 0.000000 0.898438 -0.546875
v 0.000000 0.562500 -0.851562
v 0.000000 0.070312 -0.828125
v 0.000000 -0.382812 -0.351562
v 0.203125 -0.187500 0.562500
v -0.203125 -0.187500 0.562500
v 0.312500 -0.437500 0.570312
v -0.312500 -0.437500 0.570312
v 0.351562 -0.695312 0.570312
v -0.351562 -0.695312 0.570312
v 0.367188 -0.890625 0.531250
v -0.367188 -0.890625 0.531250
v 0.328125 -0.945312 0.523438
v -0.328125 -0.945312 0.523438
v 0.179688 -0.968750 0.554688
v -0.179688 -0.968750 0.554688
v 0.000000 -0.984375 0.578125
v 0.437500 -0.140625 0.531250
v -0.437500 -0.140625 0.531250
v 0.632812 -0.039062 0.539062
v -0.632812 -0.039062 0.539062
v 0.828125 0.148438 0.445312
v -0.828125 0.148438 0.445312
v 0.859375 0.429688 0.593750
v -0.859375 0.429688 0.593750
v 0.710938 0.484375 0.625000
v -0.710938 0.484375 0.625000
v 0.492188 0.601562 0.687500
v -0.492188 0.601562 0.687500
v 0.320312 0.757812 0.734375
v -0.320312 0.757812 0.734375
v 0.156250 0.718750 0.757812
v -0.156250 0.718750 0.757812
v 0.062500 0.492188 0.750000
v -0.062500 0.492188 0.750000
v 0.164062 0.414062 0.773438
v -0.164062 0.414062 0.773438
v 0.125000 0.304688 0.765625
v -0.125000 0.304688 0.765625
v 0.203125 0.093750 0.742188
v -0.203125 0.093750 0.742188
v 0.375000 0.015625 0.703125
v -0.375000 0.015625 0.703125
v 0.492188 0.062500 0.671875
v -0.492188 0.062500 0.671875
v 0.625000 0.187500 0.648438
v -0.625000 0.187500 0.648438
v 0.640625 0.296875 0.648438
v -0.640625 0.296875 0.648438
v 0.601562 0.375000 0.664062
v -0.601562 0.375000 0.664062
v 0.429688 0.437500 0.718750
v -0.429688 0.437500 0.718750
v 0.250000 0.468750 0.757812
v -0.250000 0.468750 0.757812
v 0.000000 -0.765625 0.734375
v 0.109375 -0.718750 0.734375
v -0.109375 -0.718750 0.734375
v 0.117188 -0.835938 0.710938
v -0.117188 -0.835938 0.710938
v 0.062500 -0.882812 0.695312
v -0.062500 -0.882812 0.695312
v 0.000000 -0.890625 0.687500
v 0.000000 -0.195312 0.750000
v 0.000000 -0.140625 0.742188
v 0.101562 -0.148438 0.742188
v -0.101562 -0.148438 0.742188
v 0.125000 -0.226562 0.750000
v -0.125000 -0.226562 0.750000
v 0.085938 -0.289062 0.742188
v -0.085938 -0.289062 0.742188
v 0.398438 -0.046875 0.671875
v -0.398438 -0.046875 0.671875
v 0.617188 0.054688 0.625000
v -0.617188 0.054688 0.625000
v 0.726562 0.203125 0.601562
v -0.726562 0.203125 0.601562
v 0.742188 0.375000 0.656250
v -0.742188 0.375000 0.656250
v 0.687500 0.414062 0.726562
v -0.687500 0.414062 0.726562
v 0.437500 0.546875 0.796875
v -0.437500 0.546875 0.796875
v 0.312500 0.640625 0.835938
v -0.312500 0.640625 0.835938
v 0.203125 0.617188 0.851562
v -0.203125 0.617188 0.851562
v 0.101562 0.429688 0.843750
v -0.101562 0.429688 0.843750
v 0.125000 -0.101562 0.812500
v -0.125000 -0.101562 0.812500
v 0.210938 -0.445312 0.710938
v -0.210938 -0.445312 0.710938
v 0.250000 -0.703125 0.687500
v -0.250000 -0.703125 0.687500
v 0.265625 -0.820312 0.664062
v -0.265625 -0.820312 0.664062
v 0.234375 -0.914062 0.632812
v -0.234375 -0.914062 0.632812
v 0.164062 -0.929688 0.632812
v -0.164062 -0.929688 0.632812
v 0.000000 -0.945312 0.640625
v 0.000000 0.046875 0.726562
v 0.000000 0.210938 0.765625
v 0.328125 0.476562 0.742188
v -0.328125 0.476562 0.742188
v 0.164062 0.140625 0.750000
v -0.164062 0.140625 0.750000
v 0.132812 0.210938 0.757812
v -0.132812 0.210938 0.757812
v 0.117188 -0.687500 0.734375
v -0.117188 -0.687500 0.734375
v 0.078125 -0.445312 0.750000
v -0.078125 -0.445312 0.750000
v 0.000000 -0.445312 0.750000
v 0.000000 -0.328125 0.742188
v 0.093750 -0.273438 0.781250
v -0.093750 -0.273438 0.781250
v 0.132812 -0.226562 0.796875
v -0.132812 -0.226562 0.796875
v 0.109375 -0.132812 0.781250
v -0.109375 -0.132812 0.781250
v 0.039062 -0.125000 0.781250
v -0.039062 -0.125000 0.781250
v 0.000000 -0.203125 0.828125
v 0.046875 -0.148438 0.812500
v -0.046875 -0.148438 0.812500
v 0.093750 -0.156250 0.812500
v -0.093750 -0.156250 0.812500
v 0.109375 -0.226562 0.828125
v -0.109375 -0.226562 0.828125
v 0.078125 -0.250000 0.804688
v -0.078125 -0.250000 0.804688
v 0.000000 -0.289062 0.804688
v 0.257812 -0.312500 0.554688
v -0.257812 -0.312500 0.554688
v 0.164062 -0.242188 0.710938
v -0.164062 -0.242188 0.710938
v 0.179688 -0.312500 0.710938
v -0.179688 -0.312500 0.710938
v 0.234375 -0.250000 0.554688
v -0.234375 -0.250000 0.554688
v 0.000000 -0.875000 0.687500
v 0.046875 -0.867188 0.687500
v -0.046875 -0.867188 0.687500
v 0.093750 -0.820312 0.710938
v -0.093750 -0.820312 0.710938
v 0.093750 -0.742188 0.726562
v -0.093750 -0.742188 0.726562
v 0.000000 -0.781250 0.656250
v 0.093750 -0.750000 0.664062
v -0.093750 -0.750000 0.664062
v 0.093750 -0.812500 0.640625
v -0.093750 -0.812500 0.640625
v 0.046875 -0.851562 0.632812
v -0.046875 -0.851562 0.632812
v 0.000000 -0.859375 0.632812
v 0.171875 0.218750 0.781250
v -0.171875 0.218750 0.781250
v 0.187500 0.156250 0.773438
v -0.187500 0.156250 0.773438
v 0.335938 0.429688 0.757812
v -0.335938 0.429688 0.757812
v 0.273438 0.421875 0.773438
v -0.273438 0.421875 0.773438
v 0.421875 0.398438 0.773438
v -0.421875 0.398438 0.773438
v 0.562500 0.351562 0.695312
v -0.562500 0.351562 0.695312
v 0.585938 0.289062 0.687500
v -0.585938 0.289062 0.687500
v 0.578125 0.195312 0.679688
v -0.578125 0.195312 0.679688
v 0.476562 0.101562 0.718750
v -0.476562 0.101562 0.718750
v 0.375000 0.062500 0.742188
v -0.375000 0.062500 0.742188
v 0.226562 0.109375 0.781250
v -0.226562 0.109375 0.781250
v 0.179688 0.296875 0.781250
v -0.179688 0.296875 0.781250
v 0.210938 0.375000 0.781250
v -0.210938 0.375000 0.781250
v 0.234375 0.359375 0.757812
v -0.234375 0.359375 0.757812
v 0.195312 0.296875 0.757812
v -0.195312 0.296875 0.757812
v 0.242188 0.125000 0.757812
v -0.242188 0.125000 0.757812
v 0.375000 0.085938 0.726562
v -0.375000 0.085938 0.726562
v 0.460938 0.117188 0.703125
v -0.460938 0.117188 0.703125
v 0.546875 0.210938 0.671875
v -0.546875 0.210938 0.671875
v 0.554688 0.281250 0.671875
v -0.554688 0.281250 0.671875
v 0.531250 0.335938 0.679688
v -0.531250 0.335938 0.679688
v 0.414062 0.390625 0.750000
v -0.414062 0.390625 0.750000
v 0.281250 0.398438 0.765625
v -0.281250 0.398438 0.765625
v 0.335938 0.406250 0.750000
v -0.335938 0.406250 0.750000
v 0.203125 0.171875 0.750000
v -0.203125 0.171875 0.750000
v 0.195312 0.226562 0.750000
v -0.195312 0.226562 0.750000
v 0.109375 0.460938 0.609375
v -0.109375 0.460938 0.609375
v 0.195312 0.664062 0.617188
v -0.195312 0.664062 0.617188
v 0.335938 0.687500 0.593750
v -0.335938 0.687500 0.593750
v 0.484375 0.554688 0.554688
v -0.484375 0.554688 0.554688
v 0.679688 0.453125 0.492188
v -0.679688 0.453125 0.492188
v 0.796875 0.406250 0.460938
v -0.796875 0.406250 0.460938
v 0.773438 0.164062 0.375000
v -0.773438 0.164062 0.375000
v 0.601562 0.000000 0.414062
v -0.601562 0.000000 0.414062
v 0.437500 -0.093750 0.468750
v -0.437500 -0.093750 0.468750
v 0.000000 0.898438 0.289062
v 0.000000 0.984375 -0.078125
v 0.000000 -0.195312 -0.671875
v 0.000000 -0.460938 0.187500
v 0.000000 -0.976562 0.460938
v 0.000000 -0.804688 0.343750
v 0.000000 -0.570312 0.320312
v 0.000000 -0.484375 0.281250
v 0.851562 0.234375 0.054688
v -0.851562 0.234375 0.054688
v 0.859375 0.320312 -0.046875
v -0.859375 0.320312 -0.046875
v 0.773438 0.265625 -0.437500
v -0.773438 0.265625 -0.437500
v 0.460938 0.437500 -0.703125
v -0.460938 0.437500 -0.703125
v 0.734375 -0.046875 0.070312
v -0.734375 -0.046875 0.070312
v 0.593750 -0.125000 -0.164062
v -0.593750 -0.125000 -0.164062
v 0.640625 -0.007812 -0.429688
v -0.640625 -0.007812 -0.429688
v 0.335938 0.054688 -0.664062
v -0.335938 0.054688 -0.664062
v 0.234375 -0.351562 0.406250
v -0.234375 -0.351562 0.406250
v 0.179688 -0.414062 0.257812
v -0.179688 -0.414062 0.257812
v 0.289062 -0.710938 0.382812
v -0.289062 -0.710938 0.382812
v 0.250000 -0.500000 0.390625
v -0.250000 -0.500000 0.390625
v 0.328125 -0.914062 0.398438
v -0.328125 -0.914062 0.398438
v 0.140625 -0.757812 0.367188
v -0.140625 -0.757812 0.367188
v 0.125000 -0.539062 0.359375
v -0.125000 -0.539062 0.359375
v 0.164062 -0.945312 0.437500
v -0.164062 -0.945312 0.437500
v 0.218750 -0.281250 0.429688
v -0.218750 -0.281250 0.429688
v 0.210938 -0.226562 0.468750
v -0.210938 -0.226562 0.468750
v 0.203125 -0.171875 0.500000
v -0.203125 -0.171875 0.500000
v 0.210938 -0.390625 0.164062
v -0.210938 -0.390625 0.164062
v 0.296875 -0.312500 -0.265625
v -0.296875 -0.312500 -0.265625
v 0.343750 -0.148438 -0.539062
v -0.343750 -0.148438 -0.539062
v 0.453125 0.867188 -0.382812
v -0.453125 0.867188 -0.382812
v 0.453125 0.929688 -0.070312
v -0.453125 0.929688 -0.070312
v 0.453125 0.851562 0.234375
v -0.453125 0.851562 0.234375
v 0.460938 0.523438 0.429688
v -0.460938 0.523438 0.429688
v 0.726562 0.406250 0.335938
v -0.726562 0.406250 0.335938
v 0.632812 0.453125 0.281250
v -0.632812 0.453125 0.281250
v 0.640625 0.703125 0.054688
v -0.640625 0.703125 0.054688
v 0.796875 0.562500 0.125000
v -0.796875 0.562500 0.125000
v 0.796875 0.617188 -0.117188
v -0.796875 0.617188 -0.117188
v 0.640625 0.750000 -0.195312
v -0.640625 0.750000 -0.195312
v 0.640625 0.679688 -0.445312
v -0.640625 0.679688 -0.445312
v 0.796875 0.539062 -0.359375
v -0.796875 0.539062 -0.359375
v 0.617188 0.328125 -0.585938
v -0.617188 0.328125 -0.585938
v 0.484375 0.023438 -0.546875
v -0.484375 0.023438 -0.546875
v 0.820312 0.328125 -0.203125
v -0.820312 0.328125 -0.203125
v 0.406250 -0.171875 0.148438
v -0.406250 -0.171875 0.148438
v 0.429688 -0.195312 -0.210938
v -0.429688 -0.195312 -0.210938
v 0.890625 0.406250 -0.234375
v -0.890625 0.406250 -0.234375
v 0.773438 -0.140625 -0.125000
v -0.773438 -0.140625 -0.125000
v 1.039062 -0.101562 -0.328125
v -1.039062 -0.101562 -0.328125
v 1.281250 0.054688 -0.429688
v -1.281250 0.054688 -0.429688
v 1.351562 0.320312 -0.421875
v -1.351562 0.320312 -0.421875
v 1.234375 0.507812 -0.421875
v -1.234375 0.507812 -0.421875
v 1.023438 0.476562 -0.312500
v -1.023438 0.476562 -0.312500
v 1.015625 0.414062 -0.289062
v -1.015625 0.414062 -0.289062
v 1.187500 0.437500 -0.390625
v -1.187500 0.437500 -0.390625
v 1.265625 0.289062 -0.406250
v -1.265625 0.289062 -0.406250
v 1.210938 0.078125 -0.406250
v -1.210938 0.078125 -0.406250
v 1.031250 -0.039062 -0.304688
v -1.031250 -0.039062 -0.304688
v 0.828125 -0.070312 -0.132812
v -0.828125 -0.070312 -0.132812
v 0.921875 0.359375 -0.218750
v -0.921875 0.359375 -0.218750
v 0.945312 0.304688 -0.289062
v -0.945312 0.304688 -0.289062
v 0.882812 -0.023438 -0.210938
v -0.882812 -0.023438 -0.210938
v 1.039062 -0.000000 -0.367188
v -1.039062 -0.000000 -0.367188
v 1.187500 0.093750 -0.445312
v -1.187500 0.093750 -0.445312
v 1.234375 0.250000 -0.445312
v -1.234375 0.250000 -0.445312
v 1.171875 0.359375 -0.437500
v -1.171875 0.359375 -0.437500
v 1.023438 0.343750 -0.359375
v -1.023438 0.343750 -0.359375
v 0.843750 0.289062 -0.210938
v -0.843750 0.289062 -0.210938
v 0.835938 0.171875 -0.273438
v -0.835938 0.171875 -0.273438
v 0.757812 0.093750 -0.273438
v -0.757812 0.093750 -0.273438
v 0.820312 0.085938 -0.273438
v -0.820312 0.085938 -0.273438
v 0.843750 0.015625 -0.273438
v -0.843750 0.015625 -0.273438
v 0.812500 -0.015625 -0.273438
v -0.812500 -0.015625 -0.273438
v 0.726562 -0.000000 -0.070312
v -0.726562 -0.000000 -0.070312
v 0.718750 -0.023438 -0.171875
v -0.718750 -0.023438 -0.171875
v 0.718750 0.039062 -0.187500
v -0.718750 0.039062 -0.187500
v 0.796875 0.203125 -0.210938
v -0.796875 0.203125 -0.210938
v 0.890625 0.242188 -0.265625
v -0.890625 0.242188 -0.265625
v 0.890625 0.234375 -0.320312
v -0.890625 0.234375 -0.320312
v 0.812500 -0.015625 -0.320312
v -0.812500 -0.015625 -0.320312
v 0.851562 0.015625 -0.320312
v -0.851562 0.015625 -0.320312
v 0.828125 0.078125 -0.320312
v -0.828125 0.078125 -0.320312
v 0.765625 0.093750 -0.320312
v -0.765625 0.093750 -0.320312
v 0.843750 0.171875 -0.320312
v -0.843750 0.171875 -0.320312
v 1.039062 0.328125 -0.414062
v -1.039062 0.328125 -0.414062
v 1.187500 0.343750 -0.484375
v -1.187500 0.343750 -0.484375
v 1.257812 0.242188 -0.492188
v -1.257812 0.242188 -0.492188
v 1.210938 0.085938 -0.484375
v -1.210938 0.085938 -0.484375
v 1.046875 -0.000000 -0.421875
v -1.046875 -0.000000 -0.421875
v 0.882812 -0.015625 -0.265625
v -0.882812 -0.015625 -0.265625
v 0.953125 0.289062 -0.343750
v -0.953125 0.289062 -0.343750
v 0.890625 0.109375 -0.328125
v -0.890625 0.109375 -0.328125
v 0.937500 0.062500 -0.335938
v -0.937500 0.062500 -0.335938
v 1.000000 0.125000 -0.367188
v -1.000000 0.125000 -0.367188
v 0.960938 0.171875 -0.351562
v -0.960938 0.171875 -0.351562
v 1.015625 0.234375 -0.375000
v -1.015625 0.234375 -0.375000
v 1.054688 0.187500 -0.382812
v -1.054688 0.187500 -0.382812
v 1.109375 0.210938 -0.390625
v -1.109375 0.210938 -0.390625
v 1.085938 0.273438 -0.390625
v -1.085938 0.273438 -0.390625
v 1.023438 0.437500 -0.484375
v -1.023438 0.437500 -0.484375
v 1.250000 0.468750 -0.546875
v -1.250000 0.468750 -0.546875
v 1.367188 0.296875 -0.500000
v -1.367188 0.296875 -0.500000
v 1.312500 0.054688 -0.531250
v -1.312500 0.054688 -0.531250
v 1.039062 -0.085938 -0.492188
v -1.039062 -0.085938 -0.492188
v 0.789062 -0.125000 -0.328125
v -0.789062 -0.125000 -0.328125
v 0.859375 0.382812 -0.382812
v -0.859375 0.382812 -0.382812
vn 0.6650 -0.2007 0.7194
vn -0.6650 -0.2007 0.7194
vn 0.8294 -0.3036 0.4689
vn -0.8294 -0.3036 0.4689
vn 0.4155 -0.7933 0.4449
vn -0.4155 -0.7933 0.4449
vn 0.3599 -0.5089 0.7820
vn -0.3599 -0.5089 0.7820
vn -0.0787 -0.5394 0.8384
vn 0.0787 -0.5394 0.8384
vn -0.2696 -0.8413 0.4685
vn 0.2696 -0.8413 0.4685
vn -0.7707 -0.3352 0.5420
vn 0.7707 -0.3352 0.5420
vn -0.4689 -0.1940 0.8617
vn 0.4689 -0.1940 0.8617
vn -0.4767 0.1907 0.8581
vn 0.4767 0.1907 0.8581
vn -0.7672 0.3264 0.5521
vn 0.7672 0.3264 0.5521
vn -0.2519 0.8173 0.5182
vn 0.2519 0.8173 0.5182
vn -0.0949 0.5696 0.8164
vn 0.0949 0.5696 0.8164
vn 0.3667 0.5370 0.7597
vn -0.3667 0.5370 0.7597
vn 0.4141 0.7672 0.4898
vn -0.4141 0.7672 0.4898
vn 0.8277 0.2952 0.4771
vn -0.8277 0.2952 0.4771
vn 0.6713 0.1971 0.7145
vn -0.6713 0.1971 0.7145
vn 0.8111 0.3244 -0.4866
vn -0.8111 0.3244 -0.4866
vn 0.2051 0.8206 -0.5334
vn -0.2051 0.8206 -0.5334
vn -0.4223 0.7806 -0.4607
vn 0.4223 0.7806 -0.4607
vn -0.8240 0.3225 -0.4658
vn 0.8240 0.3225 -0.4658
vn -0.8137 -0.3487 -0.4650
vn 0.8137 -0.3487 -0.4650
vn -0.4223 -0.7807 -0.4607
vn 0.4223 -0.7807 -0.4607
vn 0.2052 -0.8206 -0.5334
vn -0.2052 -0.8206 -0.5334
vn 0.7995 -0.3510 -0.4874
vn -0.7995 -0.3510 -0.4874
vn 0.4000 -0.0623 0.9144
vn -0.4000 -0.0623 0.9144
vn 0.3069 -0.1754 0.9354
vn -0.3069 -0.1754 0.9354
vn 0.0945 -0.1835 0.9785
vn -0.0945 -0.1835 0.9785
vn -0.0624 -0.0283 0.9977
vn 0.0624 -0.0283 0.9977
vn -0.0624 0.0260 0.9977
vn 0.0624 0.0260 0.9977
vn 0.0996 0.1729 0.9799
vn -0.0996 0.1729 0.9799
vn 0.3036 0.1656 0.9383
vn -0.3036 0.1656 0.9383
vn 0.4002 0.0572 0.9147
vn -0.4002 0.0572 0.9147
vn 0.1231 -0.8616 0.4924
vn -0.1231 -0.8616 0.4924
vn 0.2190 -0.8647 0.4520
vn -0.2190 -0.8647 0.4520
vn 0.5902 -0.4550 0.6668
vn -0.5902 -0.4550 0.6668
vn 0.7689 -0.0506 0.6374
vn -0.7689 -0.0506 0.6374
vn 0.7797 0.0900 0.6197
vn -0.7797 0.0900 0.6197
vn 0.3241 -0.8188 0.4739
vn -0.3241 -0.8188 0.4739
vn 0.3857 -0.6629 0.6417
vn -0.3857 -0.6629 0.6417
vn 0.6895 -0.4193 0.5906
vn -0.6895 -0.4193 0.5906
vn 0.6588 -0.3635 0.6587
vn -0.6588 -0.3635 0.6587
vn 0.5465 0.3707 0.7509
vn -0.5465 0.3707 0.7509
vn 0.5064 0.6464 0.5706
vn -0.5064 0.6464 0.5706
vn 0.6092 0.5167 0.6015
vn -0.6092 0.5167 0.6015
vn -0.0441 0.6610 0.7491
vn 0.0441 0.6610 0.7491
vn -0.7246 0.3187 0.6110
vn 0.7246 0.3187 0.6110
vn -0.5880 0.5554 0.5880
vn 0.5880 0.5554 0.5880
vn 0.5361 -0.3909 0.7482
vn -0.5361 -0.3909 0.7482
vn 0.2207 -0.4690 0.8552
vn -0.2207 -0.4690 0.8552
vn -0.0794 -0.5321 0.8429
vn 0.0794 -0.5321 0.8429
vn -0.0825 -0.6575 0.7490
vn 0.0825 -0.6575 0.7490
vn 0.0457 -0.5667 0.8226
vn -0.0457 -0.5667 0.8226
vn 0.2784 -0.2130 0.9365
vn -0.2784 -0.2130 0.9365
vn 0.3813 -0.1824 0.9063
vn -0.3813 -0.1824 0.9063
vn 0.3357 -0.2878 0.8969
vn -0.3357 -0.2878 0.8969
vn 0.3762 0.0603 0.9246
vn -0.3762 0.0603 0.9246
vn -0.1352 0.2680 0.9539
vn 0.1352 0.2680 0.9539
vn 0.3961 -0.4321 0.8102
vn -0.3961 -0.4321 0.8102
vn 0.1856 -0.2474 0.9510
vn -0.1856 -0.2474 0.9510
vn 0.0099 -0.1948 0.9808
vn -0.0099 -0.1948 0.9808
vn 0.0721 -0.6966 0.7138
vn -0.0721 -0.6966 0.7138
vn 0.1863 -0.5723 0.7986
vn -0.1863 -0.5723 0.7986
vn 0.3157 -0.2708 0.9094
vn -0.3157 -0.2708 0.9094
vn 0.3063 -0.0265 0.9516
vn -0.3063 -0.0265 0.9516
vn 0.3266 -0.1306 0.9361
vn -0.3266 -0.1306 0.9361
vn -0.0137 0.0574 0.9983
vn 0.0137 0.0574 0.9983
vn -0.0026 -0.0656 0.9978
vn -0.0000 -0.0656 0.9978
vn 0.0026 -0.0656 0.9978
vn -0.0000 -0.0000 1.0000
vn 0.8174 -0.5744 -0.0442
vn -0.8174 -0.5744 -0.0442
vn 0.9494 0.2297 -0.2144
vn -0.9494 0.2297 -0.2144
vn 0.0825 0.9073 -0.4124
vn -0.0825 0.9073 -0.4124
vn -0.8836 0.3555 0.3047
vn 0.8836 0.3555 0.3047
vn 0.4207 -0.8797 0.2218
vn -0.4207 -0.8797 0.2218
vn 0.2873 -0.5747 0.7663
vn -0.2873 -0.5747 0.7663
vn -0.6542 0.6019 0.4580
vn 0.6542 0.6019 0.4580
vn 0.1052 0.7892 0.6051
vn -0.1052 0.7892 0.6051
vn 0.7582 0.2916 0.5832
vn -0.7582 0.2916 0.5832
vn 0.3889 -0.7130 0.5834
vn -0.3889 -0.7130 0.5834
vn 0.0463 0.2314 0.9718
vn -0.0463 0.2314 0.9718
vn 0.0335 -0.4018 0.9151
vn -0.0335 -0.4018 0.9151
vn -0.4452 -0.1610 0.8809
vn 0.4452 -0.1610 0.8809
vn -0.2182 -0.4364 0.8729
vn 0.2182 -0.4364 0.8729
vn 0.4341 -0.1290 0.8916
vn -0.4341 -0.1290 0.8916
vn 0.3008 0.0501 0.9524
vn -0.3008 0.0501 0.9524
vn 0.8123 0.3010 0.4996
vn -0.8123 0.3010 0.4996
vn 0.8753 0.2574 0.4093
vn -0.8753 0.2574 0.4093
vn 0.9385 0.1601 0.3060
vn -0.9385 0.1601 0.3060
vn 0.2237 -0.6539 0.7227
vn -0.2237 -0.6539 0.7227
vn -0.1536 -0.1997 0.9677
vn 0.1536 -0.1997 0.9677
vn -0.2733 -0.1025 0.9565
vn 0.2733 -0.1025 0.9565
vn -0.0976 0.1952 0.9759
vn 0.0976 0.1952 0.9759
vn -0.1582 0.9494 0.2713
vn 0.1582 0.9494 0.2713
vn -0.6934 0.7082 0.1328
vn 0.6934 0.7082 0.1328
vn -1.0000 -0.0000 -0.0000
vn 1.0000 -0.0000 -0.0000
vn 0.3051 -0.9450 0.1181
vn -0.3051 -0.9450 0.1181
vn 0.0298 -0.2981 0.9541
vn -0.0298 -0.2981 0.9541
vn 0.1353 -0.3479 0.9277
vn -0.1353 -0.3479 0.9277
vn -0.5085 -0.2755 0.8158
vn 0.5085 -0.2755 0.8158
vn -0.3843 -0.0419 0.9223
vn 0.3843 -0.0419 0.9223
vn -0.2083 0.0374 0.9774
vn 0.2083 0.0374 0.9774
vn -0.5721 -0.4767 0.6674
vn 0.5721 -0.4767 0.6674
vn -0.1369 -0.7531 0.6435
vn 0.1369 -0.7531 0.6435
vn 0.4088 -0.6071 0.6814
vn -0.4088 -0.6071 0.6814
vn 0.5740 -0.4130 0.7070
vn -0.5740 -0.4130 0.7070
vn 0.5665 -0.0968 0.8183
vn -0.5665 -0.0968 0.8183
vn 0.5703 0.1180 0.8129
vn -0.5703 0.1180 0.8129
vn 0.4823 0.5621 0.6719
vn -0.4823 0.5621 0.6719
vn 0.2604 0.6114 0.7473
vn -0.2604 0.6114 0.7473
vn 0.1640 0.3607 0.9182
vn -0.1640 0.3607 0.9182
vn -0.0178 0.2495 0.9682
vn 0.0178 0.2495 0.9682
vn 0.3273 -0.4166 0.8481
vn -0.3273 -0.4166 0.8481
vn 0.2811 -0.2610 0.9235
vn -0.2811 -0.2610 0.9235
vn -0.2542 -0.6514 0.7149
vn 0.2542 -0.6514 0.7149
vn -0.0260 -0.8455 0.5333
vn 0.0260 -0.8455 0.5333
vn -0.3518 -0.2606 0.8991
vn 0.3518 -0.2606 0.8991
vn -0.3523 -0.0110 0.9358
vn 0.3523 -0.0110 0.9358
vn -0.1316 0.4608 0.8777
vn 0.1316 0.4608 0.8777
vn -0.0342 0.6159 0.7870
vn 0.0342 0.6159 0.7870
vn 0.3603 0.5836 0.7277
vn -0.3603 0.5836 0.7277
vn 0.4988 0.5300 0.6858
vn -0.4988 0.5300 0.6858
vn 0.6667 -0.3333 0.6666
vn -0.6667 -0.3333 0.6666
vn 0.8165 -0.0731 0.5727
vn -0.8165 -0.0731 0.5727
vn 0.7840 0.1162 0.6098
vn -0.7840 0.1162 0.6098
vn -0.5306 0.8111 -0.2461
vn 0.5306 0.8111 -0.2461
vn -0.8511 0.3695 -0.3730
vn 0.8511 0.3695 -0.3730
vn -0.2446 0.8675 -0.4331
vn 0.2446 0.8675 -0.4331
vn 0.5924 0.7465 -0.3030
vn -0.5924 0.7465 -0.3030
vn 0.3685 0.8758 -0.3118
vn -0.3685 0.8758 -0.3118
vn 0.2821 0.9151 -0.2880
vn -0.2821 0.9151 -0.2880
vn 0.8561 0.1340 -0.4991
vn -0.8561 0.1340 -0.4991
vn 0.5342 -0.7233 -0.4376
vn -0.5342 -0.7233 -0.4376
vn 0.3849 -0.8131 -0.4368
vn -0.3849 -0.8131 -0.4368
vn 0.2335 -0.5806 -0.7800
vn -0.2335 -0.5806 -0.7800
vn 0.2449 -0.0583 -0.9678
vn -0.2449 -0.0583 -0.9678
vn 0.1163 -0.4535 -0.8837
vn -0.1163 -0.4535 -0.8837
vn 0.1152 -0.9836 -0.1388
vn -0.1152 -0.9836 -0.1388
vn 0.1184 -0.9669 -0.2260
vn -0.1184 -0.9669 -0.2260
vn 0.9597 -0.0085 -0.2808
vn -0.9597 -0.0085 -0.2808
vn 0.9319 0.1629 -0.3242
vn -0.9319 0.1629 -0.3242
vn 0.1626 0.0207 -0.9865
vn -0.1626 0.0207 -0.9865
vn -0.0188 -0.2177 -0.9758
vn 0.0188 -0.2177 -0.9758
vn 0.7538 -0.2926 -0.5884
vn -0.7538 -0.2926 -0.5884
vn 0.9196 0.1379 -0.3678
vn -0.9196 0.1379 -0.3678
vn 0.9297 0.3127 -0.1944
vn -0.9297 0.3127 -0.1944
vn 0.9120 0.3376 -0.2329
vn -0.9120 0.3376 -0.2329
vn 0.9407 0.3338 -0.0607
vn -0.9407 0.3338 -0.0607
vn 0.1761 -0.8805 -0.4402
vn -0.1761 -0.8805 -0.4402
vn 0.3708 -0.4733 -0.7991
vn -0.3708 -0.4733 -0.7991
vn 0.3107 -0.8284 -0.4660
vn -0.3107 -0.8284 -0.4660
vn 0.2793 -0.9515 -0.1287
vn -0.2793 -0.9515 -0.1287
vn 0.3139 -0.9321 -0.1807
vn -0.3139 -0.9321 -0.1807
vn 0.9762 -0.2083 -0.0609
vn -0.9762 -0.2083 -0.0609
vn 0.8267 -0.5066 0.2447
vn -0.8267 -0.5066 0.2447
vn 0.3449 -0.1158 -0.9315
vn -0.3449 -0.1158 -0.9315
vn 0.1203 0.9644 0.2355
vn -0.1203 0.9644 0.2355
vn 0.1275 0.9744 -0.1851
vn -0.1275 0.9744 -0.1851
vn 0.3492 0.5947 -0.7241
vn -0.3492 0.5947 -0.7241
vn 0.4153 0.8981 -0.1449
vn -0.4153 0.8981 -0.1449
vn 0.1845 0.7036 0.6863
vn -0.1845 0.7036 0.6863
vn 0.6056 0.7794 0.1608
vn -0.6056 0.7794 0.1608
vn 0.7033 0.6806 -0.2053
vn -0.7033 0.6806 -0.2053
vn 0.6679 0.2007 -0.7166
vn -0.6679 0.2007 -0.7166
vn 0.4948 0.4342 -0.7528
vn -0.4948 0.4342 -0.7528
vn 0.6423 0.7459 -0.1761
vn -0.6423 0.7459 -0.1761
vn 0.7182 0.6788 0.1530
vn -0.7182 0.6788 0.1530
vn 0.7388 0.3972 0.5444
vn -0.7388 0.3972 0.5444
vn 0.3428 0.9261 -0.1579
vn -0.3428 0.9261 -0.1579
vn 0.2270 0.5740 0.7867
vn -0.2270 0.5740 0.7867
vn -0.1722 0.1046 -0.9795
vn 0.1722 0.1046 -0.9795
vn 0.0425 0.9150 0.4013
vn -0.0425 0.9150 0.4013
vn -0.1616 0.1847 0.9694
vn 0.1616 0.1847 0.9694
vn 0.9791 0.1973 0.0483
vn -0.9791 0.1973 0.0483
vn 0.9470 0.0918 0.3079
vn -0.9470 0.0918 0.3079
vn 0.9794 0.1905 -0.0661
vn -0.9794 0.1905 -0.0661
vn 0.9938 0.0312 -0.1070
vn -0.9938 0.0312 -0.1070
vn 0.7116 -0.7008 0.0501
vn -0.7116 -0.7008 0.0501
vn 0.3722 -0.9243 0.0847
vn -0.3722 -0.9243 0.0847
vn 0.4465 -0.8644 0.2310
vn -0.4465 -0.8644 0.2310
vn 0.6066 -0.7578 0.2405
vn -0.6066 -0.7578 0.2405
vn 0.7325 -0.6368 0.2407
vn -0.7325 -0.6368 0.2407
vn 0.2637 -0.4499 0.8533
vn -0.2637 -0.4499 0.8533
vn 0.5568 -0.3181 -0.7673
vn -0.5568 -0.3181 -0.7673
vn 0.5004 -0.2807 -0.8190
vn -0.5004 -0.2807 -0.8190
vn 0.3190 -0.8494 -0.4205
vn -0.3190 -0.8494 -0.4205
vn 0.7198 -0.6356 -0.2793
vn -0.7198 -0.6356 -0.2793
vn 0.4972 -0.4408 -0.7473
vn -0.4972 -0.4408 -0.7473
vn 0.3506 0.3807 0.8557
vn -0.3506 0.3807 0.8557
vn 0.4566 0.1715 0.8730
vn -0.4566 0.1715 0.8730
vn 0.2583 0.1055 0.9603
vn -0.2583 0.1055 0.9603
vn 0.2455 -0.0802 0.9661
vn -0.2455 -0.0802 0.9661
vn 0.4643 -0.0599 0.8837
vn -0.4643 -0.0599 0.8837
vn 0.6225 -0.3045 0.7210
vn -0.6225 -0.3045 0.7210
vn 0.4500 0.6590 0.6027
vn -0.4500 0.6590 0.6027
vn -0.2667 0.8309 0.4884
vn 0.2667 0.8309 0.4884
vn -0.8284 0.2291 0.5111
vn 0.8284 0.2291 0.5111
vn -0.5251 -0.3566 0.7727
vn 0.5251 -0.3566 0.7727
vn 0.4546 -0.5665 0.6873
vn -0.4546 -0.5665 0.6873
vn 0.6996 -0.4497 0.5552
vn -0.6996 -0.4497 0.5552
vn 0.7220 -0.6827 -0.1126
vn -0.7220 -0.6827 -0.1126
vn -0.1919 0.2860 0.9388
vn 0.1919 0.2860 0.9388
vn 0.9048 -0.3734 -0.2047
vn -0.9048 -0.3734 -0.2047
vn 0.1034 0.1551 0.9825
vn -0.1034 0.1551 0.9825
vn 0.0841 0.9318 0.3530
vn -0.0841 0.9318 0.3530
vn 0.6446 -0.0883 0.7594
vn -0.6446 -0.0883 0.7594
vn 0.4309 0.4740 0.7678
vn -0.4309 0.4740 0.7678
vn 0.8032 -0.4847 0.3462
vn -0.8032 -0.4847 0.3462
vn 0.5811 -0.4128 0.7014
vn -0.5811 -0.4128 0.7014
vn 0.5910 -0.4305 0.6822
vn -0.5910 -0.4305 0.6822
vn 0.9818 -0.1804 -0.0591
vn -0.9818 -0.1804 -0.0591
vn 0.9105 -0.3965 -0.1175
vn -0.9105 -0.3965 -0.1175
vn 0.9972 -0.0181 -0.0725
vn -0.9972 -0.0181 -0.0725
vn 0.7313 -0.6543 0.1925
vn -0.7313 -0.6543 0.1925
vn 0.7867 -0.6079 0.1073
vn -0.7867 -0.6079 0.1073
vn 0.7022 -0.7022 0.1170
vn -0.7022 -0.7022 0.1170
vn 0.1840 0.9816 -0.0511
vn -0.1840 0.9816 -0.0511
vn 0.9352 0.3301 0.1284
vn -0.9352 0.3301 0.1284
vn 0.6634 -0.7463 0.0553
vn -0.6634 -0.7463 0.0553
vn -0.0085 0.9970 0.0767
vn 0.0085 0.9970 0.0767
vn 0.6237 -0.7061 0.3354
vn -0.6237 -0.7061 0.3354
vn 0.2733 -0.8925 0.3587
vn -0.2733 -0.8925 0.3587
vn -0.8328 -0.5080 -0.2200
vn 0.8328 -0.5080 -0.2200
vn -0.8339 0.2377 -0.4981
vn 0.8339 0.2377 -0.4981
vn -0.5655 0.7847 -0.2539
vn 0.5655 0.7847 -0.2539
vn -0.0560 0.9962 0.0672
vn 0.0560 0.9962 0.0672
vn 0.1445 0.0222 0.9893
vn -0.1445 0.0222 0.9893
vn 0.3275 0.0645 0.9427
vn -0.3275 0.0645 0.9427
vn 0.3127 0.0232 0.9496
vn -0.3127 0.0232 0.9496
vn 0.1710 0.0274 0.9849
vn -0.1710 0.0274 0.9849
vn 0.3487 0.2849 0.8929
vn -0.3487 0.2849 0.8929
vn 0.4006 -0.0343 0.9156
vn -0.4006 -0.0343 0.9156
vn 0.2572 -0.0603 0.9645
vn -0.2572 -0.0603 0.9645
vn 0.0637 -0.0106 0.9979
vn -0.0637 -0.0106 0.9979
vn -0.3637 0.7039 0.6101
vn 0.3637 0.7039 0.6101
vn 0.6299 0.0355 0.7759
vn -0.6299 0.0355 0.7759
vn 0.4472 -0.2002 0.8717
vn -0.4472 -0.2002 0.8717
vn 0.5072 -0.2141 0.8348
vn -0.5072 -0.2141 0.8348
vn 0.5258 0.2619 0.8093
vn -0.5258 0.2619 0.8093
vn 0.2980 0.5802 0.7580
vn -0.2980 0.5802 0.7580
vn 0.0930 -0.9924 -0.0805
vn -0.0930 -0.9924 -0.0805
vn 0.5006 -0.8657 0.0080
vn -0.5006 -0.8657 0.0080
vn 0.9285 -0.2497 0.2748
vn -0.9285 -0.2497 0.2748
vn 0.8393 0.5424 -0.0378
vn -0.8393 0.5424 -0.0378
vn -0.2355 0.9367 -0.2589
vn 0.2355 0.9367 -0.2589
vn -0.4499 0.8838 -0.1285
vn 0.4499 0.8838 -0.1285
vn -0.5384 -0.0098 -0.8427
vn 0.5384 -0.0098 -0.8427
vn -0.1910 -0.0241 -0.9813
vn 0.1910 -0.0241 -0.9813
vn 0.4046 0.0266 -0.9141
vn -0.4046 0.0266 -0.9141
vn -0.7819 0.6231 0.0197
vn 0.7819 0.6231 0.0197
vn 0.5428 -0.2063 -0.8142
vn -0.5428 -0.2063 -0.8142
vn -0.2474 -0.9231 -0.2945
vn 0.2474 -0.9231 -0.2945
vt 0.890955 0.590063
vt 0.870622 0.589649
vt 0.860081 0.560115
vt 0.904571 0.559404
vt 0.856226 0.850547
vt 0.868067 0.821510
vt 0.888398 0.821999
vt 0.900640 0.853232
vt 0.853018 0.521562
vt 0.920166 0.524546
vt 0.847458 0.888748
vt 0.914672 0.888748
vt 0.828900 0.590771
vt 0.798481 0.569535
vt 0.795104 0.838402
vt 0.826436 0.818537
vt 0.854402 0.604754
vt 0.852534 0.805700
vt 0.854107 0.625459
vt 0.828171 0.633354
vt 0.827598 0.775964
vt 0.853157 0.785002
vt 0.791018 0.645443
vt 0.791018 0.762238
vt 0.855181 0.668527
vt 0.842358 0.702491
vt 0.844839 0.707525
vt 0.856142 0.742025
vt 0.867508 0.642291
vt 0.867293 0.768782
vt 0.890474 0.641909
vt 0.900375 0.666964
vt 0.901223 0.745592
vt 0.890219 0.770183
vt 0.918898 0.699697
vt 0.921180 0.713713
vt 0.931889 0.636832
vt 0.968392 0.645333
vt 0.968213 0.770220
vt 0.931368 0.777093
vt 0.905882 0.627902
vt 0.904990 0.784860
vt 0.906232 0.605742
vt 0.933717 0.593037
vt 0.931250 0.820926
vt 0.904357 0.807013
vt 0.968392 0.573812
vt 0.965038 0.841671
vt 0.902359 0.607909
vt 0.889591 0.593275
vt 0.900583 0.804677
vt 0.887178 0.818729
vt 0.899781 0.626257
vt 0.898822 0.786233
vt 0.887842 0.636527
vt 0.887351 0.775442
vt 0.870908 0.635245
vt 0.870376 0.775972
vt 0.859881 0.623942
vt 0.858859 0.786774
vt 0.859664 0.608186
vt 0.857942 0.802505
vt 0.871664 0.593961
vt 0.869299 0.817249
vt 0.879400 0.616512
vt 0.878029 0.795063
vt 0.540260 0.053805
vt 0.536419 0.062072
vt 0.518925 0.059681
vt 0.518916 0.050294
vt 0.501452 0.062043
vt 0.497626 0.053770
vt 0.551930 0.058338
vt 0.542788 0.064089
vt 0.495083 0.064047
vt 0.485955 0.058273
vt 0.555073 0.061900
vt 0.546290 0.072669
vt 0.491565 0.072625
vt 0.482805 0.061829
vt 0.563812 0.076586
vt 0.548333 0.084893
vt 0.489507 0.084858
vt 0.474014 0.076511
vt 0.583135 0.108495
vt 0.555621 0.121749
vt 0.482177 0.121781
vt 0.454527 0.108481
vt 0.605512 0.165134
vt 0.647395 0.200502
vt 0.621513 0.227818
vt 0.553118 0.209599
vt 0.416514 0.229490
vt 0.389677 0.201890
vt 0.432024 0.165644
vt 0.485339 0.210053
vt 0.676379 0.233241
vt 0.664761 0.253225
vt 0.372747 0.256357
vt 0.360308 0.235899
vt 0.715342 0.265392
vt 0.683908 0.279995
vt 0.353696 0.284606
vt 0.320452 0.270303
vt 0.707254 0.310054
vt 0.687515 0.311539
vt 0.351187 0.317440
vt 0.330721 0.316853
vt 0.697446 0.332673
vt 0.676824 0.323937
vt 0.362723 0.329722
vt 0.341964 0.339667
vt 0.662817 0.372521
vt 0.639050 0.357330
vt 0.402772 0.362131
vt 0.379297 0.378686
vt 0.626842 0.395792
vt 0.618316 0.375151
vt 0.424583 0.379267
vt 0.416915 0.400552
vt 0.604826 0.397804
vt 0.600808 0.377857
vt 0.442396 0.381222
vt 0.439252 0.401540
vt 0.553095 0.390512
vt 0.559674 0.357011
vt 0.482938 0.358497
vt 0.490934 0.391862
vt 0.521923 0.386009
vt 0.521086 0.343868
vt 0.577279 0.340156
vt 0.599845 0.344815
vt 0.441977 0.347815
vt 0.464579 0.342230
vt 0.615546 0.342005
vt 0.425972 0.345582
vt 0.634472 0.332311
vt 0.406362 0.336480
vt 0.662406 0.312804
vt 0.377061 0.317685
vt 0.668440 0.297958
vt 0.370304 0.302644
vt 0.664101 0.277872
vt 0.374100 0.281778
vt 0.639236 0.253047
vt 0.398938 0.255633
vt 0.613992 0.242662
vt 0.424464 0.244473
vt 0.572941 0.258564
vt 0.466409 0.259709
vt 0.563905 0.272007
vt 0.519760 0.248864
vt 0.475886 0.273078
vt 0.558527 0.316594
vt 0.482619 0.317843
vt 0.520277 0.294764
vt 0.556923 0.291214
vt 0.483433 0.292249
vt 0.525483 0.068967
vt 0.518928 0.067899
vt 0.512375 0.068956
vt 0.531231 0.073829
vt 0.506626 0.073811
vt 0.531019 0.087431
vt 0.506827 0.087416
vt 0.532042 0.127713
vt 0.532669 0.090920
vt 0.505177 0.090908
vt 0.505828 0.127728
vt 0.538112 0.158382
vt 0.518981 0.151749
vt 0.518941 0.128358
vt 0.499851 0.158434
vt 0.518925 0.093952
vt 0.518927 0.085180
vt 0.548362 0.173560
vt 0.537959 0.175966
vt 0.535214 0.166808
vt 0.502799 0.166857
vt 0.500100 0.176033
vt 0.489683 0.173693
vt 0.544281 0.193366
vt 0.537248 0.187577
vt 0.500890 0.187571
vt 0.493996 0.193428
vt 0.519841 0.200843
vt 0.528757 0.191785
vt 0.509219 0.191626
vt 0.517577 0.190607
vt 0.519132 0.185382
vt 0.518998 0.159028
vt 0.531131 0.171631
vt 0.519016 0.165599
vt 0.506910 0.171667
vt 0.519099 0.179457
vt 0.528222 0.186316
vt 0.509787 0.186260
vt 0.533528 0.184215
vt 0.504547 0.184206
vt 0.533449 0.176739
vt 0.504604 0.176791
vt 0.561572 0.167779
vt 0.476363 0.167996
vt 0.559475 0.149319
vt 0.478371 0.149447
vt 0.596138 0.133426
vt 0.441395 0.133592
vt 0.601169 0.147885
vt 0.436337 0.148194
vt 0.518925 0.083865
vt 0.528933 0.084957
vt 0.508915 0.084945
vt 0.529036 0.075429
vt 0.508820 0.075415
vt 0.523751 0.070508
vt 0.514106 0.070501
vt 0.518929 0.069468
vt 0.521560 0.074970
vt 0.518928 0.074259
vt 0.516297 0.074966
vt 0.524236 0.076691
vt 0.513619 0.076684
vt 0.524601 0.079886
vt 0.513252 0.079879
vt 0.518926 0.079331
vt 0.571787 0.277295
vt 0.568351 0.292904
vt 0.468070 0.278617
vt 0.471978 0.294282
vt 0.573085 0.311386
vt 0.467790 0.313081
vt 0.584855 0.327708
vt 0.456477 0.329961
vt 0.580734 0.266620
vt 0.458737 0.268049
vt 0.611720 0.255725
vt 0.427062 0.257728
vt 0.632494 0.262853
vt 0.406068 0.265508
vt 0.653658 0.279971
vt 0.384904 0.283634
vt 0.656064 0.297636
vt 0.383015 0.301864
vt 0.652752 0.310186
vt 0.386858 0.314615
vt 0.629040 0.323864
vt 0.411556 0.327673
vt 0.614408 0.331972
vt 0.426727 0.335361
vt 0.601033 0.333624
vt 0.440344 0.336537
vt 0.590644 0.321516
vt 0.601799 0.328453
vt 0.450408 0.323919
vt 0.439372 0.331331
vt 0.613335 0.327083
vt 0.427623 0.330358
vt 0.626851 0.320513
vt 0.413648 0.324175
vt 0.646248 0.306421
vt 0.393381 0.310510
vt 0.649541 0.296225
vt 0.389662 0.300183
vt 0.647785 0.283486
vt 0.391040 0.287071
vt 0.629829 0.267263
vt 0.408893 0.269959
vt 0.612641 0.261560
vt 0.426254 0.263693
vt 0.585166 0.270991
vt 0.454369 0.272583
vt 0.578124 0.281900
vt 0.461798 0.283441
vt 0.579548 0.309340
vt 0.461204 0.311233
vt 0.577524 0.293776
vt 0.462754 0.295432
vt 0.553209 0.433063
vt 0.523031 0.433628
vt 0.492809 0.434538
vt 0.609819 0.431516
vt 0.435860 0.435740
vt 0.648174 0.419316
vt 0.396518 0.425416
vt 0.692106 0.388274
vt 0.350292 0.396229
vt 0.726332 0.341754
vt 0.312756 0.350588
vt 0.735879 0.312112
vt 0.301067 0.320593
vt 0.729900 0.256393
vt 0.304876 0.261087
vt 0.698172 0.216906
vt 0.337414 0.219179
vt 0.663103 0.190671
vt 0.373474 0.191872
vt 0.626908 0.015608
vt 0.649444 0.022378
vt 0.660451 0.076084
vt 0.621440 0.048089
vt 0.376796 0.075296
vt 0.388827 0.021586
vt 0.411318 0.015131
vt 0.416419 0.047631
vt 0.567460 0.000144
vt 0.577206 0.032801
vt 0.470636 0.000144
vt 0.460782 0.032656
vt 0.518922 0.024886
vt 0.547413 0.041724
vt 0.490511 0.041669
vt 0.558059 0.053871
vt 0.479842 0.053785
vt 0.576951 0.057998
vt 0.460920 0.057845
vt 0.611687 0.078268
vt 0.425932 0.077985
vt 0.626663 0.111357
vt 0.410618 0.111244
vt 0.629482 0.130456
vt 0.623495 0.146796
vt 0.413741 0.147158
vt 0.407648 0.130594
vt 0.619303 0.159841
vt 0.418035 0.160361
vt 0.945900 0.079569
vt 0.886245 0.121777
vt 0.849114 0.099732
vt 0.891780 0.036916
vt 0.183115 0.092127
vt 0.141314 0.112482
vt 0.078961 0.060719
vt 0.142277 0.021467
vt 0.788458 0.080826
vt 0.805584 0.010786
vt 0.246353 0.076510
vt 0.232648 0.003484
vt 0.687018 0.077204
vt 0.672384 0.022201
vt 0.349875 0.075955
vt 0.365979 0.020991
vt 0.760215 0.193244
vt 0.789046 0.233323
vt 0.271553 0.193871
vt 0.241255 0.236977
vt 0.994525 0.167705
vt 0.909112 0.183261
vt 0.107928 0.179083
vt 0.011829 0.155367
vt 0.911671 0.402429
vt 0.862868 0.338556
vt 0.894128 0.301884
vt 0.962901 0.344752
vt 0.123776 0.315519
vt 0.160557 0.356821
vt 0.106400 0.432652
vt 0.043968 0.367038
vt 0.915360 0.259804
vt 0.999856 0.254640
vt 0.098965 0.266968
vt 0.000144 0.259113
vt 0.749542 0.334683
vt 0.766337 0.300809
vt 0.789162 0.313727
vt 0.267408 0.310142
vt 0.288183 0.346496
vt 0.242992 0.325552
vt 0.815314 0.276388
vt 0.846174 0.293397
vt 0.213065 0.285164
vt 0.178537 0.304983
vt 0.845007 0.256352
vt 0.873517 0.265922
vt 0.179662 0.263312
vt 0.147089 0.274284
vt 0.859075 0.228168
vt 0.886999 0.233769
vt 0.162803 0.231720
vt 0.131514 0.237587
vt 0.842355 0.195160
vt 0.875030 0.184705
vt 0.145224 0.182749
vt 0.176788 0.196179
vt 0.794286 0.364062
vt 0.239776 0.382592
vt 0.770185 0.379538
vt 0.268122 0.398737
vt 0.845499 0.449967
vt 0.185281 0.484099
vt 0.815858 0.445381
vt 0.770572 0.444261
vt 0.755700 0.418603
vt 0.287033 0.442912
vt 0.271364 0.473316
vt 0.219260 0.477186
vt 0.819845 0.468071
vt 0.215894 0.503605
vt 0.809631 0.233887
vt 0.219168 0.237388
vt 0.829287 0.219562
vt 0.199067 0.222464
vt 0.786480 0.117591
vt 0.715482 0.139727
vt 0.246666 0.114850
vt 0.319538 0.139409
vt 0.785486 0.152330
vt 0.245969 0.151002
vt 0.837382 0.156361
vt 0.858171 0.137775
vt 0.171653 0.132294
vt 0.196622 0.155241
vt 0.506166 0.904851
vt 0.432388 0.894943
vt 0.438797 0.870229
vt 0.491058 0.881714
vt 0.315867 0.868209
vt 0.321637 0.893225
vt 0.247207 0.901159
vt 0.263032 0.878321
vt 0.572792 0.860484
vt 0.604825 0.879946
vt 0.181486 0.854693
vt 0.148729 0.873349
vt 0.586396 0.793977
vt 0.619962 0.791615
vt 0.169745 0.787474
vt 0.136063 0.784093
vt 0.549027 0.746412
vt 0.563786 0.739211
vt 0.208656 0.740879
vt 0.194086 0.733241
vt 0.500314 0.711729
vt 0.508270 0.697693
vt 0.258399 0.707497
vt 0.250811 0.693249
vt 0.438641 0.680683
vt 0.434803 0.658882
vt 0.320962 0.677959
vt 0.325318 0.656224
vt 0.505666 0.730944
vt 0.452955 0.700023
vt 0.306136 0.696976
vt 0.252524 0.726592
vt 0.542850 0.755753
vt 0.214575 0.750414
vt 0.568148 0.787367
vt 0.188269 0.781375
vt 0.555495 0.826352
vt 0.199850 0.820889
vt 0.501231 0.844356
vt 0.253846 0.840502
vt 0.457832 0.840040
vt 0.297562 0.837358
vt 0.796021 0.176969
vt 0.783193 0.187449
vt 0.233625 0.175620
vt 0.246955 0.187075
vt 0.391039 0.611891
vt 0.394766 0.686125
vt 0.369913 0.610196
vt 0.364838 0.684445
vt 0.391747 0.862097
vt 0.401605 0.841460
vt 0.354026 0.840297
vt 0.363377 0.861308
vt 0.435018 0.718280
vt 0.323658 0.715731
vt 0.433669 0.729661
vt 0.384658 0.710299
vt 0.374400 0.708969
vt 0.324726 0.727177
vt 0.410995 0.747662
vt 0.427812 0.742828
vt 0.347028 0.745816
vt 0.330270 0.740536
vt 0.418086 0.784946
vt 0.384657 0.795423
vt 0.372270 0.794472
vt 0.338952 0.783073
vt 0.431333 0.817535
vt 0.324790 0.815460
vt 0.816266 0.203086
vt 0.825107 0.209762
vt 0.199767 0.214827
vt 0.209828 0.206161
vt 0.802192 0.184609
vt 0.226485 0.183086
vt 0.448505 0.804621
vt 0.473386 0.824700
vt 0.307886 0.802031
vt 0.282357 0.821525
vt 0.435868 0.779569
vt 0.321237 0.777208
vt 0.423718 0.754191
vt 0.334089 0.752045
vt 0.437950 0.749777
vt 0.319919 0.747250
vt 0.445392 0.731997
vt 0.312907 0.729222
vt 0.440995 0.724383
vt 0.317510 0.721697
vt 0.455277 0.713731
vt 0.303460 0.710657
vt 0.512485 0.828811
vt 0.242975 0.824574
vt 0.550942 0.811814
vt 0.204839 0.806417
vt 0.552139 0.787682
vt 0.204331 0.782156
vt 0.539407 0.764539
vt 0.217774 0.759319
vt 0.508439 0.743135
vt 0.249419 0.738732
vt 0.470841 0.748408
vt 0.454776 0.761665
vt 0.286960 0.745020
vt 0.302729 0.758742
vt 0.488870 0.770464
vt 0.475403 0.783904
vt 0.268291 0.766661
vt 0.281439 0.780511
vt 0.503673 0.787562
vt 0.494476 0.802470
vt 0.252972 0.783410
vt 0.261790 0.798626
vt 0.518562 0.791602
vt 0.516802 0.807339
vt 0.237920 0.787045
vt 0.239243 0.802891
vt 0.484068 0.628776
vt 0.543385 0.683538
vt 0.276936 0.625067
vt 0.216123 0.678120
vt 0.581052 0.726933
vt 0.177176 0.720426
vt 0.616701 0.759965
vt 0.140379 0.752377
vt 0.707492 0.759884
vt 0.660647 0.741167
vt 0.049526 0.748824
vt 0.097038 0.732052
vt 0.745511 0.652100
vt 0.677256 0.670436
vt 0.019409 0.639749
vt 0.083564 0.662038
vt 0.740843 0.572428
vt 0.671403 0.592656
vt 0.033664 0.564403
vt 0.092820 0.589862
vt 0.834578 0.206879
vt 0.834705 0.206959
vt 0.051216 0.522659
vt 0.145041 0.562595
vt 0.620420 0.565675
vt 0.498072 0.552315
vt 0.264218 0.550140
s 1
usemtl monkey
f 89/64/81 43/65/81 45/66/81 87/67/81
f 46/68/82 44/69/82 90/70/82 88/71/82
f 87/67/83 45/66/83 47/72/83 85/73/83
f 48/74/84 46/68/84 88/71/84 86/75/84
f 45/66/85 51/76/85 49/77/85 47/72/85
f 50/78/86 52/79/86 46/68/86 48/74/86
f 43/65/87 53/80/87 51/76/87 45/66/87
f 52/79/88 54/81/88 44/69/88 46/68/88
f 53/80/89 55/82/89 57/83/89 51/76/89
f 58/84/90 56/85/90 54/81/90 52/79/90
f 51/76/91 57/83/91 59/86/91 49/77/91
f 60/87/92 58/84/92 52/79/92 50/78/92
f 57/83/93 63/88/93 61/89/93 59/86/93
f 62/90/94 64/91/94 58/84/94 60/87/94
f 55/82/95 65/92/95 63/88/95 57/83/95
f 64/91/96 66/93/96 56/85/96 58/84/96
f 65/92/97 67/94/97 69/95/97 63/88/97
f 70/96/98 68/97/98 66/93/98 64/91/98
f 63/88/99 69/95/99 71/98/99 61/89/99
f 72/99/100 70/96/100 64/91/100 62/90/100
f 69/95/101 75/100/101 73/101/101 71/98/101
f 74/102/102 76/103/102 70/96/102 72/99/102
f 67/94/103 77/104/103 75/100/103 69/95/103
f 76/103/104 78/105/104 68/97/104 70/96/104
f 77/104/105 79/106/105 81/107/105 75/100/105
f 82/108/106 80/109/106 78/105/106 76/103/106
f 75/100/107 81/107/107 83/110/107 73/101/107
f 84/111/108 82/108/108 76/103/108 74/102/108
f 81/107/109 87/67/109 85/73/109 83/110/109
f 86/75/110 88/71/110 82/108/110 84/111/110
f 79/106/111 89/64/111 87/67/111 81/107/111
f 88/71/112 90/70/112 80/109/112 82/108/112
f 89/64/113 79/106/113 93/112/113 91/113/113
f 94/114/114 80/109/114 90/70/114 92/115/114
f 79/106/115 77/104/115 95/116/115 93/112/115
f 96/117/116 78/105/116 80/109/116 94/114/116
f 77/104/117 67/94/117 97/118/117 95/116/117
f 98/119/118 68/97/118 78/105/118 96/117/118
f 67/94/119 65/92/119 99/120/119 97/118/119
f 100/121/120 66/93/120 68/97/120 98/119/120
f 65/92/121 55/82/121 101/122/121 99/120/121
f 102/123/122 56/85/122 66/93/122 100/121/122
f 55/82/123 53/80/123 105/124/123 101/122/123
f 106/125/124 54/81/124 56/85/124 102/123/124
f 53/80/125 43/65/125 107/126/125 105/124/125
f 108/127/126 44/69/126 54/81/126 106/125/126
f 43/65/127 89/64/127 91/113/127 107/126/127
f 92/115/128 90/70/128 44/69/128 108/127/128
f 103/128/129 107/126/129 91/113/129
f 92/115/130 108/127/130 104/129/130
f 105/124/131 107/126/131 103/128/131
f 104/129/132 108/127/132 106/125/132
f 103/128/133 101/122/133 105/124/133
f 106/125/134 102/123/134 104/129/134
f 103/128/135 99/120/135 101/122/135
f 102/123/136 100/121/136 104/129/136
f 103/128/137 97/118/137 99/120/137
f 100/121/138 98/119/138 104/129/138
f 103/128/139 95/116/139 97/118/139
f 98/119/140 96/117/140 104/129/140
f 103/128/141 93/112/141 95/116/141
f 96/117/142 94/114/142 104/129/142
f 103/128/143 91/113/143 93/112/143
f 94/114/144 92/115/144 104/129/144
f 131/130/145 216/131/145 218/132/145 133/133/145
f 218/132/146 217/134/146 132/135/146 133/133/146
f 129/136/147 214/137/147 216/131/147 131/130/147
f 217/134/148 215/138/148 130/139/148 132/135/148
f 127/140/149 212/141/149 214/137/149 129/136/149
f 215/138/150 213/142/150 128/143/150 130/139/150
f 125/144/151 210/145/151 212/141/151 127/140/151
f 213/142/152 211/146/152 126/147/152 128/143/152
f 123/148/153 208/149/153 210/145/153 125/144/153
f 211/146/154 209/150/154 124/151/154 126/147/154
f 121/152/155 134/153/155 188/154/155 206/155/155
f 189/156/156 135/157/156 122/158/156 207/159/156
f 134/153/157 136/160/157 190/161/157 188/154/157
f 191/162/158 137/163/158 135/157/158 189/156/158
f 136/160/159 138/164/159 192/165/159 190/161/159
f 193/166/160 139/167/160 137/163/160 191/162/160
f 138/164/161 140/168/161 194/169/161 192/165/161
f 195/170/162 141/171/162 139/167/162 193/166/162
f 140/168/163 142/172/163 196/173/163 194/169/163
f 197/174/164 143/175/164 141/171/164 195/170/164
f 142/172/165 144/176/165 198/177/165 196/173/165
f 199/178/166 145/179/166 143/175/166 197/174/166
f 144/176/167 146/180/167 200/181/167 198/177/167
f 201/182/168 147/183/168 145/179/168 199/178/168
f 146/180/169 148/184/169 202/185/169 200/181/169
f 203/186/170 149/187/170 147/183/170 201/182/170
f 148/184/171 150/188/171 204/189/171 202/185/171
f 205/190/172 151/191/172 149/187/172 203/186/172
f 150/188/173 109/192/173 110/193/173 204/189/173
f 110/193/174 109/192/174 151/191/174 205/190/174
f 152/194/175 170/195/175 202/185/175 204/189/175
f 203/186/176 171/196/176 153/197/176 205/190/176
f 170/195/177 221/198/177 200/181/177 202/185/177
f 201/182/178 222/199/178 171/196/178 203/186/178
f 168/200/179 198/177/179 200/181/179 221/198/179
f 201/182/180 199/178/180 169/201/180 222/199/180
f 166/202/181 196/173/181 198/177/181 168/200/181
f 199/178/182 197/174/182 167/203/182 169/201/182
f 164/204/183 194/169/183 196/173/183 166/202/183
f 197/174/184 195/170/184 165/205/184 167/203/184
f 162/206/185 192/165/185 194/169/185 164/204/185
f 195/170/186 193/166/186 163/207/186 165/205/186
f 160/208/187 190/161/187 192/165/187 162/206/187
f 193/166/188 191/162/188 161/209/188 163/207/188
f 158/210/189 188/154/189 190/161/189 160/208/189
f 191/162/190 189/156/190 159/211/190 161/209/190
f 156/212/191 206/155/191 188/154/191 158/210/191
f 189/156/192 207/159/192 157/213/192 159/211/192
f 156/212/193 223/214/193 219/215/193 206/155/193
f 219/215/194 224/216/194 157/213/194 207/159/194
f 152/194/195 204/189/195 110/193/195 154/217/195
f 110/193/196 205/190/196 153/197/196 155/218/196
f 154/217/197 110/193/197 220/219/197 225/220/197
f 220/219/198 110/193/198 155/218/198 226/221/198
f 219/215/199 223/214/199 225/220/199 220/219/199
f 226/221/200 224/216/200 219/215/200 220/219/200
f 177/222/201 179/223/201 218/132/201 216/131/201
f 218/132/202 179/223/202 178/224/202 217/134/202
f 175/225/203 177/222/203 216/131/203 214/137/203
f 217/134/204 178/224/204 176/226/204 215/138/204
f 173/227/205 175/225/205 214/137/205 212/141/205
f 215/138/206 176/226/206 174/228/206 213/142/206
f 208/149/207 229/229/207 227/230/207 210/145/207
f 228/231/208 230/232/208 209/150/208 211/146/208
f 173/227/209 212/141/209 210/145/209 227/230/209
f 211/146/210 213/142/210 174/228/210 228/231/210
f 186/233/211 232/234/211 231/235/211 229/229/211
f 231/235/212 232/234/212 187/236/212 230/232/212
f 227/230/213 229/229/213 231/235/214 111/237/214
f 231/235/214 230/232/215 228/231/215 111/237/214
f 172/238/216 173/227/216 227/230/216 111/237/216
f 228/231/216 174/228/216 172/238/216 111/237/216
f 184/239/217 235/240/217 233/241/217 186/233/217
f 234/242/218 236/243/218 185/244/218 187/236/218
f 182/245/219 237/246/219 235/240/219 184/239/219
f 236/243/220 238/247/220 183/248/220 185/244/220
f 181/249/221 239/250/221 237/246/221 182/245/221
f 238/247/222 240/251/222 181/249/222 183/248/222
f 180/252/223 113/253/223 239/250/223 181/249/223
f 240/251/224 113/253/224 180/252/224 181/249/224
f 232/234/225 186/233/225 233/241/225 112/254/225
f 234/242/226 187/236/226 232/234/226 112/254/226
f 112/254/227 233/241/227 248/255/227 250/256/227
f 249/257/228 234/242/228 112/254/228 250/256/228
f 113/253/229 241/258/229 242/259/229 239/250/229
f 243/260/230 241/258/230 113/253/230 240/251/230
f 239/250/231 242/259/231 244/261/231 237/246/231
f 245/262/232 243/260/232 240/251/232 238/247/232
f 237/246/233 244/261/233 246/263/233 235/240/233
f 247/264/234 245/262/234 238/247/234 236/243/234
f 235/240/235 246/263/235 248/255/235 233/241/235
f 249/257/236 247/264/236 236/243/236 234/242/236
f 241/258/237 246/263/237 244/261/237 242/259/237
f 245/262/238 247/264/238 241/258/238 243/260/238
f 241/258/239 250/256/239 248/255/239 246/263/239
f 249/257/240 250/256/240 241/258/240 247/264/240
f 181/249/241 182/245/241 206/155/241 219/215/241
f 207/159/242 183/248/242 181/249/242 219/215/242
f 182/245/243 184/239/243 253/265/243 206/155/243
f 254/266/244 185/244/244 183/248/244 207/159/244
f 184/239/245 186/233/245 255/267/245 253/265/245
f 256/268/246 187/236/246 185/244/246 254/266/246
f 186/233/247 229/229/247 208/149/247 255/267/247
f 209/150/248 230/232/248 187/236/248 256/268/248
f 123/148/249 251/269/249 255/267/249 208/149/249
f 256/268/250 252/270/250 124/151/250 209/150/250
f 251/269/251 257/271/251 253/265/251 255/267/251
f 254/266/252 258/272/252 252/270/252 256/268/252
f 121/152/253 206/155/253 253/265/253 257/271/253
f 254/266/254 207/159/254 122/158/254 258/272/254
f 173/227/255 172/238/255 114/273/255 264/274/255
f 114/273/256 172/238/256 174/228/256 265/275/256
f 175/225/257 173/227/257 264/274/257 262/276/257
f 265/275/258 174/228/258 176/226/258 263/277/258
f 177/222/259 175/225/259 262/276/259 260/278/259
f 263/277/260 176/226/260 178/224/260 261/279/260
f 179/223/261 177/222/261 260/278/261 259/280/261
f 261/279/262 178/224/262 179/223/262 259/280/262
f 259/280/263 260/278/263 271/281/263 273/282/263
f 272/283/264 261/279/264 259/280/264 273/282/264
f 260/278/265 262/276/265 269/284/265 271/281/265
f 270/285/266 263/277/266 261/279/266 272/283/266
f 262/276/267 264/274/267 267/286/267 269/284/267
f 268/287/268 265/275/268 263/277/268 270/285/268
f 264/274/269 114/273/269 266/288/269 267/286/269
f 266/288/270 114/273/270 265/275/270 268/287/270
f 266/288/271 273/282/271 271/281/271 267/286/271
f 272/283/272 273/282/272 266/288/272 268/287/272
f 267/286/273 271/281/273 269/284/273
f 270/285/274 272/283/274 268/287/274
f 225/220/275 223/214/275 276/289/275 274/290/275
f 277/291/276 224/216/276 226/221/276 275/292/276
f 154/217/277 225/220/277 274/290/277 296/293/277
f 275/292/278 226/221/278 155/218/278 297/294/278
f 152/194/279 154/217/279 296/293/279 298/295/279
f 297/294/280 155/218/280 153/197/280 299/296/280
f 223/214/281 156/212/281 294/297/281 276/289/281
f 295/298/282 157/213/282 224/216/282 277/291/282
f 156/212/283 158/210/283 292/299/283 294/297/283
f 293/300/284 159/211/284 157/213/284 295/298/284
f 158/210/285 160/208/285 290/301/285 292/299/285
f 291/302/286 161/209/286 159/211/286 293/300/286
f 160/208/287 162/206/287 288/303/287 290/301/287
f 289/304/288 163/207/288 161/209/288 291/302/288
f 162/206/289 164/204/289 286/305/289 288/303/289
f 287/306/290 165/205/290 163/207/290 289/304/290
f 164/204/291 166/202/291 284/307/291 286/305/291
f 285/308/292 167/203/292 165/205/292 287/306/292
f 166/202/293 168/200/293 282/309/293 284/307/293
f 283/310/294 169/201/294 167/203/294 285/308/294
f 168/200/295 221/198/295 278/311/295 282/309/295
f 279/312/296 222/199/296 169/201/296 283/310/296
f 221/198/297 170/195/297 280/313/297 278/311/297
f 281/314/298 171/196/298 222/199/298 279/312/298
f 170/195/299 152/194/299 298/295/299 280/313/299
f 299/296/300 153/197/300 171/196/300 281/314/300
f 280/313/301 298/295/301 300/315/301 318/316/301
f 301/317/302 299/296/302 281/314/302 319/318/302
f 278/311/303 280/313/303 318/316/303 320/319/303
f 319/318/304 281/314/304 279/312/304 321/320/304
f 282/309/305 278/311/305 320/319/305 316/321/305
f 321/320/306 279/312/306 283/310/306 317/322/306
f 284/307/307 282/309/307 316/321/307 314/323/307
f 317/322/308 283/310/308 285/308/308 315/324/308
f 286/305/309 284/307/309 314/323/309 312/325/309
f 315/324/310 285/308/310 287/306/310 313/326/310
f 288/303/311 286/305/311 312/325/311 310/327/311
f 313/326/312 287/306/312 289/304/312 311/328/312
f 290/301/313 288/303/313 310/327/313 308/329/313
f 311/328/314 289/304/314 291/302/314 309/330/314
f 292/299/315 290/301/315 308/329/315 306/331/315
f 309/330/316 291/302/316 293/300/316 307/332/316
f 294/297/317 292/299/317 306/331/317 304/333/317
f 307/332/318 293/300/318 295/298/318 305/334/318
f 276/289/319 294/297/319 304/333/319 322/335/319
f 305/334/320 295/298/320 277/291/320 323/336/320
f 298/295/321 296/293/321 302/337/321 300/315/321
f 303/338/322 297/294/322 299/296/322 301/317/322
f 296/293/323 274/290/323 324/339/323 302/337/323
f 325/340/324 275/292/324 297/294/324 303/338/324
f 274/290/325 276/289/325 322/335/325 324/339/325
f 323/336/326 277/291/326 275/292/326 325/340/326
f 109/192/327 150/188/327 326/341/327 115/342/327
f 327/343/328 151/191/328 109/192/328 115/342/328
f 150/188/329 148/184/329 328/344/329 326/341/329
f 329/345/330 149/187/330 151/191/330 327/343/330
f 148/184/331 146/180/331 330/346/331 328/344/331
f 331/347/332 147/183/332 149/187/332 329/345/332
f 146/180/333 144/176/333 332/348/333 330/346/333
f 333/349/334 145/179/334 147/183/334 331/347/334
f 144/176/335 142/172/335 334/350/335 332/348/335
f 335/351/336 143/175/336 145/179/336 333/349/336
f 142/172/337 140/168/337 336/352/337 334/350/337
f 337/353/338 141/171/338 143/175/338 335/351/338
f 140/168/339 138/164/339 338/354/339 336/352/339
f 339/355/340 139/167/340 141/171/340 337/353/340
f 138/164/341 136/160/341 340/356/341 338/354/341
f 341/357/342 137/163/342 139/167/342 339/355/342
f 136/160/343 134/153/343 342/358/343 340/356/343
f 343/359/344 135/157/344 137/163/344 341/357/344
f 350/360/345 351/361/345 370/362/345 380/363/345
f 371/364/346 351/365/346 350/366/346 381/367/346
f 349/368/347 350/360/347 380/363/347 378/369/347
f 381/367/348 350/366/348 349/370/348 379/371/348
f 348/372/349 349/368/349 378/369/349 382/373/349
f 379/371/350 349/370/350 348/372/350 383/374/350
f 131/130/351 133/133/351 348/372/351 382/373/351
f 348/372/352 133/133/352 132/135/352 383/374/352
f 129/136/353 131/130/353 382/373/353 376/375/353
f 383/374/354 132/135/354 130/139/354 377/376/354
f 127/140/355 129/136/355 376/375/355 372/377/355
f 377/376/356 130/139/356 128/143/356 373/378/356
f 125/144/357 127/140/357 372/377/357 374/379/357
f 373/378/358 128/143/358 126/147/358 375/380/358
f 372/377/359 378/369/359 380/363/359 374/379/359
f 381/367/360 379/371/360 373/378/360 375/380/360
f 372/377/361 376/375/361 382/373/361 378/369/361
f 383/374/362 377/376/362 373/378/362 379/371/362
f 368/381/363 374/379/363 380/363/363 370/362/363
f 381/367/364 375/380/364 369/382/364 371/364/364
f 123/148/365 125/144/365 374/379/365 368/381/365
f 375/380/366 126/147/366 124/151/366 369/382/366
f 251/269/367 384/383/367 386/384/367 257/271/367
f 387/385/368 385/386/368 252/270/368 258/272/368
f 123/148/369 368/381/369 384/383/369 251/269/369
f 385/386/370 369/382/370 124/151/370 252/270/370
f 121/152/371 257/271/371 386/384/371 388/387/371
f 387/385/372 258/272/372 122/158/372 389/388/372
f 121/152/373 388/387/373 342/358/373 134/153/373
f 343/359/374 389/388/374 122/158/374 135/157/374
f 119/389/375 366/390/375 394/391/375 346/392/375
f 395/393/376 367/394/376 119/395/376 346/396/376
f 346/392/377 394/391/377 392/397/377 120/398/377
f 393/399/378 395/393/378 346/396/378 120/400/378
f 120/398/379 392/397/379 390/401/379 347/402/379
f 391/403/380 393/399/380 120/400/380 347/404/380
f 347/402/381 390/401/381 370/362/381 351/361/381
f 371/364/382 391/403/382 347/404/382 351/365/382
f 368/381/383 370/362/383 390/401/383 384/383/383
f 391/403/384 371/364/384 369/382/384 385/386/384
f 338/354/385 340/356/385 360/405/385 352/406/385
f 361/407/386 341/357/386 339/355/386 353/408/386
f 118/409/387 358/410/387 366/390/387 119/389/387
f 367/394/388 359/411/388 118/412/388 119/395/388
f 344/413/389 400/414/389 398/415/389 345/416/389
f 399/417/390 401/418/390 344/419/390 345/420/390
f 345/416/391 398/415/391 396/421/391 117/422/391
f 397/423/392 399/417/392 345/420/392 117/424/392
f 117/422/393 396/421/393 358/410/393 118/409/393
f 359/411/394 397/423/394 117/424/394 118/412/394
f 334/425/395 336/352/395 404/426/395 406/427/395
f 405/428/396 337/353/396 335/429/396 407/430/396
f 406/427/397 404/426/397 410/431/397 408/432/397
f 411/433/398 405/428/398 407/430/398 409/434/398
f 408/432/399 410/431/399 412/435/399 414/436/399
f 413/437/400 411/433/400 409/434/400 415/438/400
f 414/436/401 412/435/401 418/439/401 416/440/401
f 419/441/402 413/437/402 415/438/402 417/442/402
f 356/443/403 420/444/403 416/440/403 418/439/403
f 417/442/404 421/445/404 357/446/404 419/441/404
f 358/410/405 396/421/405 416/440/405 420/444/405
f 417/442/406 397/423/406 359/411/406 421/445/406
f 396/421/407 398/415/407 414/436/407 416/440/407
f 415/438/408 399/417/408 397/423/408 417/442/408
f 398/415/409 400/414/409 408/432/409 414/436/409
f 409/434/410 401/418/410 399/417/410 415/438/410
f 400/414/411 402/447/411 406/427/411 408/432/411
f 407/430/412 403/448/412 401/418/412 409/434/412
f 332/449/413 334/425/413 406/427/413 402/447/413
f 407/430/414 335/429/414 333/450/414 403/448/414
f 116/451/415 402/447/415 400/414/415 344/413/415
f 401/418/416 403/448/416 116/452/416 344/419/416
f 326/453/417 328/454/417 330/455/417 332/449/417
f 331/456/418 329/457/418 327/458/418 333/450/418
f 326/453/419 332/449/419 402/447/419 116/451/419
f 403/448/420 333/450/420 327/458/420 116/452/420
f 115/459/421 326/453/421 116/451/421
f 116/452/422 327/458/422 115/460/422
f 336/352/423 338/354/423 352/406/423 404/426/423
f 353/408/424 339/355/424 337/353/424 405/428/424
f 352/406/425 354/461/425 410/431/425 404/426/425
f 411/433/426 355/462/426 353/408/426 405/428/426
f 354/461/427 424/463/427 412/435/427 410/431/427
f 413/437/428 425/464/428 355/462/428 411/433/428
f 356/443/429 418/439/429 412/435/429 424/463/429
f 413/437/430 419/441/430 357/446/430 425/464/430
f 390/401/431 392/397/431 428/465/431 426/466/431
f 429/467/432 393/399/432 391/403/432 427/468/432
f 360/405/433 426/466/433 428/465/433 362/469/433
f 429/467/434 427/468/434 361/407/434 363/470/434
f 340/356/435 342/358/435 426/466/435 360/405/435
f 427/468/436 343/359/436 341/357/436 361/407/436
f 342/358/437 386/384/437 384/383/437 426/466/437
f 385/386/438 387/385/438 343/359/438 427/468/438
f 384/383/439 390/401/439 426/466/439
f 427/468/440 391/403/440 385/386/440
f 342/358/441 388/387/441 386/384/441
f 387/385/442 389/388/442 343/359/442
f 356/443/443 364/471/443 422/472/443 420/444/443
f 423/473/444 365/474/444 357/446/444 421/445/444
f 358/410/445 420/444/445 422/472/445 366/390/445
f 423/473/446 421/445/446 359/411/446 367/394/446
f 362/469/447 428/465/447 422/472/447 364/471/447
f 423/473/448 429/467/448 363/470/448 365/474/448
f 392/397/449 394/391/449 422/472/449 428/465/449
f 423/473/450 395/393/450 393/399/450 429/467/450
f 366/390/451 422/472/451 394/391/451
f 395/393/452 423/473/452 367/394/452
f 442/475/453 430/476/453 456/477/453 444/478/453
f 457/479/454 431/480/454 443/481/454 445/482/454
f 442/475/455 444/478/455 446/483/455 440/484/455
f 447/485/456 445/482/456 443/481/456 441/486/456
f 440/484/457 446/483/457 448/487/457 438/488/457
f 449/489/458 447/485/458 441/486/458 439/490/458
f 438/488/459 448/487/459 450/491/459 436/492/459
f 451/493/460 449/489/460 439/490/460 437/494/460
f 436/492/461 450/491/461 452/495/461 434/496/461
f 453/497/462 451/493/462 437/494/462 435/498/462
f 434/496/463 452/495/463 454/499/463 432/500/463
f 455/501/464 453/497/464 435/498/464 433/502/464
f 452/495/465 462/503/465 460/504/465 454/499/465
f 461/505/466 463/506/466 453/497/466 455/501/466
f 450/491/467 464/507/467 462/503/467 452/495/467
f 463/506/468 465/508/468 451/493/468 453/497/468
f 448/487/469 466/509/469 464/507/469 450/491/469
f 465/508/470 467/510/470 449/489/470 451/493/470
f 446/483/471 468/511/471 466/509/471 448/487/471
f 467/510/472 469/512/472 447/485/472 449/489/472
f 444/478/473 470/513/473 468/511/473 446/483/473
f 469/512/474 471/514/474 445/482/474 447/485/474
f 444/478/475 456/477/475 458/515/475 470/513/475
f 459/516/476 457/479/476 445/482/476 471/514/476
f 360/405/477 362/469/477 486/517/477 484/518/477
f 487/519/478 363/470/478 361/407/478 485/520/478
f 362/521/479 432/500/479 454/499/479 486/522/479
f 455/501/480 433/502/480 363/523/480 487/524/480
f 352/406/481 360/405/481 484/518/481 354/461/481
f 485/520/482 361/407/482 353/408/482 355/462/482
f 424/525/483 472/526/483 456/477/483 430/476/483
f 457/479/484 473/527/484 425/528/484 431/480/484
f 454/499/485 460/504/485 482/529/485 486/522/485
f 483/530/486 461/505/486 455/501/486 487/524/486
f 480/531/487 488/532/487 486/522/487 482/529/487
f 487/524/488 489/533/488 481/534/488 483/530/488
f 476/535/489 488/532/489 480/531/489 478/536/489
f 481/534/490 489/533/490 477/537/490 479/538/490
f 474/539/491 490/540/491 488/532/491 476/535/491
f 489/533/492 491/541/492 475/542/492 477/537/492
f 472/526/493 490/540/493 474/539/493 492/543/493
f 475/542/494 491/541/494 473/527/494 493/544/494
f 456/477/495 472/526/495 492/543/495 458/515/495
f 493/544/496 473/527/496 457/479/496 459/516/496
f 354/461/497 490/545/497 472/546/497 424/463/497
f 473/547/498 491/548/498 355/462/498 425/464/498
f 354/461/499 484/518/499 488/549/499 490/545/499
f 489/550/500 485/520/500 355/462/500 491/548/500
f 484/518/501 486/517/501 488/549/501
f 489/550/502 487/519/502 485/520/502
f 458/515/503 492/543/503 494/551/503 518/552/503
f 495/553/504 493/544/504 459/516/504 519/554/504
f 492/543/505 474/539/505 504/555/505 494/551/505
f 505/556/506 475/542/506 493/544/506 495/553/506
f 474/539/507 476/535/507 502/557/507 504/555/507
f 503/558/508 477/537/508 475/542/508 505/556/508
f 476/535/509 478/536/509 500/559/509 502/557/509
f 501/560/510 479/538/510 477/537/510 503/558/510
f 478/536/511 480/531/511 498/561/511 500/559/511
f 499/562/512 481/534/512 479/538/512 501/560/512
f 480/531/513 482/529/513 496/563/513 498/561/513
f 497/564/514 483/530/514 481/534/514 499/562/514
f 482/529/515 460/504/515 516/565/515 496/563/515
f 517/566/516 461/505/516 483/530/516 497/564/516
f 470/513/517 458/515/517 518/552/517 506/567/517
f 519/554/518 459/516/518 471/514/518 507/568/518
f 468/511/519 470/513/519 506/567/519 508/569/519
f 507/568/520 471/514/520 469/512/520 509/570/520
f 466/509/521 468/511/521 508/569/521 510/571/521
f 509/570/522 469/512/522 467/510/522 511/572/522
f 464/507/523 466/509/523 510/571/523 512/573/523
f 511/572/524 467/510/524 465/508/524 513/574/524
f 462/503/525 464/507/525 512/573/525 514/575/525
f 513/574/526 465/508/526 463/506/526 515/576/526
f 460/504/527 462/503/527 514/575/527 516/565/527
f 515/576/528 463/506/528 461/505/528 517/566/528
f 500/559/529 498/561/529 522/577/529 520/578/529
f 523/579/530 499/562/530 501/560/530 521/580/530
f 520/578/531 522/577/531 524/581/531 526/582/531
f 525/583/532 523/579/532 521/580/532 527/584/532
f 526/582/533 524/581/533 530/585/533 528/586/533
f 531/587/534 525/583/534 527/584/534 529/588/534
f 528/586/535 530/585/535 532/589/535 534/590/535
f 533/591/536 531/587/536 529/588/536 535/592/536
f 506/567/537 518/552/537 528/586/537 534/590/537
f 529/588/538 519/554/538 507/568/538 535/592/538
f 494/551/539 526/582/539 528/586/539 518/552/539
f 529/588/540 527/584/540 495/553/540 519/554/540
f 494/551/541 504/555/541 520/578/541 526/582/541
f 521/580/542 505/556/542 495/553/542 527/584/542
f 500/559/543 520/578/543 504/555/543 502/557/543
f 505/556/544 521/580/544 501/560/544 503/558/544
f 496/563/545 516/565/545 522/577/545 498/561/545
f 523/579/546 517/566/546 497/564/546 499/562/546
f 514/575/547 524/581/547 522/577/547 516/565/547
f 523/579/548 525/583/548 515/576/548 517/566/548
f 512/573/549 530/585/549 524/581/549 514/575/549
f 525/583/550 531/587/550 513/574/550 515/576/550
f 510/571/551 532/589/551 530/585/551 512/573/551
f 531/587/552 533/591/552 511/572/552 513/574/552
f 508/569/553 534/590/553 532/589/553 510/571/553
f 533/591/554 535/592/554 509/570/554 511/572/554
f 506/567/555 534/590/555 508/569/555
f 509/570/556 535/592/556 507/568/556
f 434/496/557 432/500/557 546/593/557 544/594/557
f 547/595/558 433/502/558 435/498/558 545/596/558
f 436/492/559 434/496/559 544/594/559 542/597/559
f 545/596/560 435/498/560 437/494/560 543/598/560
f 438/488/561 436/492/561 542/597/561 540/599/561
f 543/598/562 437/494/562 439/490/562 541/600/562
f 440/601/563 438/488/563 540/599/563 538/602/563
f 541/600/564 439/490/564 441/603/564 539/604/564
f 442/605/565 440/601/565 538/602/565 536/606/565
f 539/604/566 441/603/566 443/607/566 537/608/566
f 430/609/567 442/605/567 536/606/567 548/610/567
f 537/608/568 443/607/568 431/611/568 549/612/568
f 536/606/569 544/594/569 546/593/569 548/610/569
f 547/595/570 545/596/570 537/608/570 549/612/570
f 536/606/571 538/602/571 542/597/571 544/594/571
f 543/598/572 539/604/572 537/608/572 545/596/572
f 538/602/573 540/599/573 542/597/573
f 543/598/574 541/600/574 539/604/574
f 356/443/575 424/463/575 430/613/575 548/614/575
f 431/611/576 425/615/576 357/616/576 549/612/576
f 356/617/577 548/610/577 546/593/577 364/618/577
f 547/595/578 549/612/578 357/616/578 365/619/578
f 362/521/579 364/618/579 546/593/579 432/500/579
f 547/595/580 365/619/580 363/523/580 433/502/580
o Cube
v -0.886268 -1.334321 0.750822
v -0.886268 1.334321 0.750822
v -0.886268 -1.334321 -0.750822
v -0.886268 1.334321 -0.750822
v 0.886268 -1.334321 0.750822
v 0.886268 1.334321 0.750822
v 0.886268 -1.334321 -0.750822
v 0.886268 1.334321 -0.750822
vn -1.0000 -0.0000 -0.0000
vn -0.0000 -0.0000 -1.0000
vn 1.0000 -0.0000 -0.0000
vn -0.0000 -0.0000 1.0000
vn -0.0000 -1.0000 -0.0000
vn -0.0000 1.0000 -0.0000
vt 0.375000 0.000000
vt 0.625000 0.000000
vt 0.625000 0.250000
vt 0.375000 0.250000
vt 0.625000 0.500000
vt 0.375000 0.500000
vt 0.625000 0.750000
vt 0.375000 0.750000
vt 0.625000 1.000000
vt 0.375000 1.000000
vt 0.125000 0.500000
vt 0.125000 0.750000
vt 0.875000 0.500000
vt 0.875000 0.750000
s 0
f 550/620/581 551/621/581 553/622/581 552/623/581
f 552/623/582 553/622/582 557/624/582 556/625/582
f 556/625/583 557/624/583 555/626/583 554/627/583
f 554/627/584 555/626/584 551/628/584 550/629/584
f 552/630/585 556/625/585 554/627/585 550/631/585
f 557/624/586 553/632/586 551/633/586 555/626/586
