# Blender 4.3.2
# www.blender.org
mtllib two.mtl
o Suzanne
v 0.437500 0.164062 0.765625
v -0.437500 0.164062 0.765625
v 0.500000 0.093750 0.687500
v -0.500000 0.093750 0.687500
v 0.546875 0.054688 0.578125
v -0.546875 0.054688 0.578125
v 0.351562 -0.023438 0.617188
v -0.351562 -0.023438 0.617188
v 0.351562 0.031250 0.718750
v -0.351562 0.031250 0.718750
v 0.351562 0.132812 0.781250
v -0.351562 0.132812 0.781250
v 0.273438 0.164062 0.796875
v -0.273438 0.164062 0.796875
v 0.203125 0.093750 0.742188
v -0.203125 0.093750 0.742188
v 0.156250 0.054688 0.648438
v -0.156250 0.054688 0.648438
v 0.078125 0.242188 0.656250
v -0.078125 0.242188 0.656250
v 0.140625 0.242188 0.742188
v -0.140625 0.242188 0.742188
v 0.242188 0.242188 0.796875
v -0.242188 0.242188 0.796875
v 0.273438 0.328125 0.796875
v -0.273438 0.328125 0.796875
v 0.203125 0.390625 0.742188
v -0.203125 0.390625 0.742188
v 0.156250 0.437500 0.648438
v -0.156250 0.437500 0.648438
v 0.351562 0.515625 0.617188
v -0.351562 0.515625 0.617188
v 0.351562 0.453125 0.718750
v -0.351562 0.453125 0.718750
v 0.351562 0.359375 0.781250
v -0.351562 0.359375 0.781250
v 0.437500 0.328125 0.765625
v -0.437500 0.328125 0.765625
v 0.500000 0.390625 0.687500
v -0.500000 0.390625 0.687500
v 0.546875 0.437500 0.578125
v -0.546875 0.437500 0.578125
v 0.625000 0.242188 0.562500
v -0.625000 0.242188 0.562500
v 0.562500 0.242188 0.671875
v -0.562500 0.242188 0.671875
v 0.468750 0.242188 0.757812
v -0.468750 0.242188 0.757812
v 0.476562 0.242188 0.773438
v -0.476562 0.242188 0.773438
v 0.445312 0.335938 0.781250
v -0.445312 0.335938 0.781250
v 0.351562 0.375000 0.804688
v -0.351562 0.375000 0.804688
v 0.265625 0.335938 0.820312
v -0.265625 0.335938 0.820312
v 0.226562 0.242188 0.820312
v -0.226562 0.242188 0.820312
v 0.265625 0.156250 0.820312
v -0.265625 0.156250 0.820312
v 0.351562 0.242188 0.828125
v -0.351562 0.242188 0.828125
v 0.351562 0.117188 0.804688
v -0.351562 0.117188 0.804688
v 0.445312 0.156250 0.781250
v -0.445312 0.156250 0.781250
v 0.000000 0.429688 0.742188
v 0.000000 0.351562 0.820312
v 0.000000 -0.679688 0.734375
v 0.000000 -0.320312 0.781250
v 0.000000 -0.187500 0.796875
v 0.000000 -0.773438 0.718750
v 0.000000 0.406250 0.601562
v 0.000000 0.570312 0.570312
v 0.000000 0.898438 -0.546875
v 0.000000 0.562500 -0.851562
v 0.000000 0.070312 -0.828125
v 0.000000 -0.382812 -0.351562
v 0.203125 -0.187500 0.562500
v -0.203125 -0.187500 0.562500
v 0.312500 -0.437500 0.570312
v -0.312500 -0.437500 0.570312
v 0.351562 -0.695312 0.570312
v -0.351562 -0.695312 0.570312
v 0.367188 -0.890625 0.531250
v -0.367188 -0.890625 0.531250
v 0.328125 -0.945312 0.523438
v -0.328125 -0.945312 0.523438
v 0.179688 -0.968750 0.554688
v -0.179688 -0.968750 0.554688
v 0.000000 -0.984375 0.578125
v 0.437500 -0.140625 0.531250
v -0.437500 -0.140625 0.531250
v 0.632812 -0.039062 0.539062
v -0.632812 -0.039062 0.539062
v 0.828125 0.148438 0.445312
v -0.828125 0.148438 0.445312
v 0.859375 0.429688 0.593750
v -0.859375 0.429688 0.593750
v 0.710938 0.484375 0.625000
v -0.710938 0.484375 0.625000
v 0.492188 0.601562 0.687500
v -0.492188 0.601562 0.687500
v 0.320312 0.757812 0.734375
v -0.320312 0.757812 0.734375
v 0.156250 0.718750 0.757812
v -0.156250 0.718750 0.757812
v 0.062500 0.492188 0.750000
v -0.062500 0.492188 0.750000
v 0.164062 0.414062 0.773438
v -0.164062 0.414062 0.773438
v 0.125000 0.304688 0.765625
v -0.125000 0.304688 0.765625
v 0.203125 0.093750 0.742188
v -0.203125 0.093750 0.742188
v 0.375000 0.015625 0.703125
v -0.375000 0.015625 0.703125
v 0.492188 0.062500 0.671875
v -0.492188 0.062500 0.671875
v 0.625000 0.187500 0.648438
v -0.625000 0.187500 0.648438
v 0.640625 0.296875 0.648438
v -0.640625 0.296875 0.648438
v 0.601562 0.375000 0.664062
v -0.601562 0.375000 0.664062
v 0.429688 0.437500 0.718750
v -0.429688 0.437500 0.718750
v 0.250000 0.468750 0.757812
v -0.250000 0.468750 0.757812
v 0.000000 -0.765625 0.734375
v 0.109375 -0.718750 0.734375
v -0.109375 -0.718750 0.734375
v 0.117188 -0.835938 0.710938
v -0.117188 -0.835938 0.710938
v 0.062500 -0.882812 0.695312
v -0.062500 -0.882812 0.695312
v 0.000000 -0.890625 0.687500
v 0.000000 -0.195312 0.750000
v 0.000000 -0.140625 0.742188
v 0.101562 -0.148438 0.742188
v -0.101562 -0.148438 0.742188
v 0.125000 -0.226562 0.750000
v -0.125000 -0.226562 0.750000
v 0.085938 -0.289062 0.742188
v -0.085938 -0.289062 0.742188
v 0.398438 -0.046875 0.671875
v -0.398438 -0.046875 0.671875
v 0.617188 0.054688 0.625000
v -0.617188 0.054688 0.625000
v 0.726562 0.203125 0.601562
v -0.726562 0.203125 0.601562
v 0.742188 0.375000 0.656250
v -0.742188 0.375000 0.656250
v 0.687500 0.414062 0.726562
v -0.687500 0.414062 0.726562
v 0.437500 0.546875 0.796875
v -0.437500 0.546875 0.796875
v 0.312500 0.640625 0.835938
v -0.312500 0.640625 0.835938
v 0.203125 0.617188 0.851562
v -0.203125 0.617188 0.851562
v 0.101562 0.429688 0.843750
v -0.101562 0.429688 0.843750
v 0.125000 -0.101562 0.812500
v -0.125000 -0.101562 0.812500
v 0.210938 -0.445312 0.710938
v -0.210938 -0.445312 0.710938
v 0.250000 -0.703125 0.687500
v -0.250000 -0.703125 0.687500
v 0.265625 -0.820312 0.664062
v -0.265625 -0.820312 0.664062
v 0.234375 -0.914062 0.632812
v -0.234375 -0.914062 0.632812
v 0.164062 -0.929688 0.632812
v -0.164062 -0.929688 0.632812
v 0.000000 -0.945312 0.640625
v 0.000000 0.046875 0.726562
v 0.000000 0.210938 0.765625
v 0.328125 0.476562 0.742188
v -0.328125 0.476562 0.742188
v 0.164062 0.140625 0.750000
v -0.164062 0.140625 0.750000
v 0.132812 0.210938 0.757812
v -0.132812 0.210938 0.757812
v 0.117188 -0.687500 0.734375
v -0.117188 -0.687500 0.734375
v 0.078125 -0.445312 0.750000
v -0.078125 -0.445312 0.750000
v 0.000000 -0.445312 0.750000
v 0.000000 -0.328125 0.742188
v 0.093750 -0.273438 0.781250
v -0.093750 -0.273438 0.781250
v 0.132812 -0.226562 0.796875
v -0.132812 -0.226562 0.796875
v 0.109375 -0.132812 0.781250
v -0.109375 -0.132812 0.781250
v 0.039062 -0.125000 0.781250
v -0.039062 -0.125000 0.781250
v 0.000000 -0.203125 0.828125
v 0.046875 -0.148438 0.812500
v -0.046875 -0.148438 0.812500
v 0.093750 -0.156250 0.812500
v -0.093750 -0.156250 0.812500
v 0.109375 -0.226562 0.828125
v -0.109375 -0.226562 0.828125
v 0.078125 -0.250000 0.804688
v -0.078125 -0.250000 0.804688
v 0.000000 -0.289062 0.804688
v 0.257812 -0.312500 0.554688
v -0.257812 -0.312500 0.554688
v 0.164062 -0.242188 0.710938
v -0.164062 -0.242188 0.710938
v 0.179688 -0.312500 0.710938
v -0.179688 -0.312500 0.710938
v 0.234375 -0.250000 0.554688
v -0.234375 -0.250000 0.554688
v 0.000000 -0.875000 0.687500
v 0.046875 -0.867188 0.687500
v -0.046875 -0.867188 0.687500
v 0.093750 -0.820312 0.710938
v -0.093750 -0.820312 0.710938
v 0.093750 -0.742188 0.726562
v -0.093750 -0.742188 0.726562
v 0.000000 -0.781250 0.656250
v 0.093750 -0.750000 0.664062
v -0.093750 -0.750000 0.664062
v 0.093750 -0.812500 0.640625
v -0.093750 -0.812500 0.640625
v 0.046875 -0.851562 0.632812
v -0.046875 -0.851562 0.632812
v 0.000000 -0.859375 0.632812
v 0.171875 0.218750 0.781250
v -0.171875 0.218750 0.781250
v 0.187500 0.156250 0.773438
v -0.187500 0.156250 0.773438
v 0.335938 0.429688 0.757812
v -0.335938 0.429688 0.757812
v 0.273438 0.421875 0.773438
v -0.273438 0.421875 0.773438
v 0.421875 0.398438 0.773438
v -0.421875 0.398438 0.773438
v 0.562500 0.351562 0.695312
v -0.562500 0.351562 0.695312
v 0.585938 0.289062 0.687500
v -0.585938 0.289062 0.687500
v 0.578125 0.195312 0.679688
v -0.578125 0.195312 0.679688
v 0.476562 0.101562 0.718750
v -0.476562 0.101562 0.718750
v 0.375000 0.062500 0.742188
v -0.375000 0.062500 0.742188
v 0.226562 0.109375 0.781250
v -0.226562 0.109375 0.781250
v 0.179688 0.296875 0.781250
v -0.179688 0.296875 0.781250
v 0.210938 0.375000 0.781250
v -0.210938 0.375000 0.781250
v 0.234375 0.359375 0.757812
v -0.234375 0.359375 0.757812
v 0.195312 0.296875 0.757812
v -0.195312 0.296875 0.757812
v 0.242188 0.125000 0.757812
v -0.242188 0.125000 0.757812
v 0.375000 0.085938 0.726562
v -0.375000 0.085938 0.726562
v 0.460938 0.117188 0.703125
v -0.460938 0.117188 0.703125
v 0.546875 0.210938 0.671875
v -0.546875 0.210938 0.671875
v 0.554688 0.281250 0.671875
v -0.554688 0.281250 0.671875
v 0.531250 0.335938 0.679688
v -0.531250 0.335938 0.679688
v 0.414062 0.390625 0.750000
v -0.414062 0.390625 0.750000
v 0.281250 0.398438 0.765625
v -0.281250 0.398438 0.765625
v 0.335938 0.406250 0.750000
v -0.335938 0.406250 0.750000
v 0.203125 0.171875 0.750000
v -0.203125 0.171875 0.750000
v 0.195312 0.226562 0.750000
v -0.195312 0.226562 0.750000
v 0.109375 0.460938 0.609375
v -0.109375 0.460938 0.609375
v 0.195312 0.664062 0.617188
v -0.195312 0.664062 0.617188
v 0.335938 0.687500 0.593750
v -0.335938 0.687500 0.593750
v 0.484375 0.554688 0.554688
v -0.484375 0.554688 0.554688
v 0.679688 0.453125 0.492188
v -0.679688 0.453125 0.492188
v 0.796875 0.406250 0.460938
v -0.796875 0.406250 0.460938
v 0.773438 0.164062 0.375000
v -0.773438 0.164062 0.375000
v 0.601562 0.000000 0.414062
v -0.601562 0.000000 0.414062
v 0.437500 -0.093750 0.468750
v -0.437500 -0.093750 0.468750
v 0.000000 0.898438 0.289062
v 0.000000 0.984375 -0.078125
v 0.000000 -0.195312 -0.671875
v 0.000000 -0.460938 0.187500
v 0.000000 -0.976562 0.460938
v 0.000000 -0.804688 0.343750
v 0.000000 -0.570312 0.320312
v 0.000000 -0.484375 0.281250
v 0.851562 0.234375 0.054688
v -0.851562 0.234375 0.054688
v 0.859375 0.320312 -0.046875
v -0.859375 0.320312 -0.046875
v 0.773438 0.265625 -0.437500
v -0.773438 0.265625 -0.437500
v 0.460938 0.437500 -0.703125
v -0.460938 0.437500 -0.703125
v 0.734375 -0.046875 0.070312
v -0.734375 -0.046875 0.070312
v 0.593750 -0.125000 -0.164062
v -0.593750 -0.125000 -0.164062
v 0.640625 -0.007812 -0.429688
v -0.640625 -0.007812 -0.429688
v 0.335938 0.054688 -0.664062
v -0.335938 0.054688 -0.664062
v 0.234375 -0.351562 0.406250
v -0.234375 -0.351562 0.406250
v 0.179688 -0.414062 0.257812
v -0.179688 -0.414062 0.257812
v 0.289062 -0.710938 0.382812
v -0.289062 -0.710938 0.382812
v 0.250000 -0.500000 0.390625
v -0.250000 -0.500000 0.390625
v 0.328125 -0.914062 0.398438
v -0.328125 -0.914062 0.398438
v 0.140625 -0.757812 0.367188
v -0.140625 -0.757812 0.367188
v 0.125000 -0.539062 0.359375
v -0.125000 -0.539062 0.359375
v 0.164062 -0.945312 0.437500
v -0.164062 -0.945312 0.437500
v 0.218750 -0.281250 0.429688
v -0.218750 -0.281250 0.429688
v 0.210938 -0.226562 0.468750
v -0.210938 -0.226562 0.468750
v 0.203125 -0.171875 0.500000
v -0.203125 -0.171875 0.500000
v 0.210938 -0.390625 0.164062
v -0.210938 -0.390625 0.164062
v 0.296875 -0.312500 -0.265625
v -0.296875 -0.312500 -0.265625
v 0.343750 -0.148438 -0.539062
v -0.343750 -0.148438 -0.539062
v 0.453125 0.867188 -0.382812
v -0.453125 0.867188 -0.382812
v 0.453125 0.929688 -0.070312
v -0.453125 0.929688 -0.070312
v 0.453125 0.851562 0.234375
v -0.453125 0.851562 0.234375
v 0.460938 0.523438 0.429688
v -0.460938 0.523438 0.429688
v 0.726562 0.406250 0.335938
v -0.726562 0.406250 0.335938
v 0.632812 0.453125 0.281250
v -0.632812 0.453125 0.281250
v 0.640625 0.703125 0.054688
v -0.640625 0.703125 0.054688
v 0.796875 0.562500 0.125000
v -0.796875 0.562500 0.125000
v 0.796875 0.617188 -0.117188
v -0.796875 0.617188 -0.117188
v 0.640625 0.750000 -0.195312
v -0.640625 0.750000 -0.195312
v 0.640625 0.679688 -0.445312
v -0.640625 0.679688 -0.445312
v 0.796875 0.539062 -0.359375
v -0.796875 0.539062 -0.359375
v 0.617188 0.328125 -0.585938
v -0.617188 0.328125 -0.585938
v 0.484375 0.023438 -0.546875
v -0.484375 0.023438 -0.546875
v 0.820312 0.328125 -0.203125
v -0.820312 0.328125 -0.203125
v 0.406250 -0.171875 0.148438
v -0.406250 -0.171875 0.148438
v 0.429688 -0.195312 -0.210938
v -0.429688 -0.195312 -0.210938
v 0.890625 0.406250 -0.234375
v -0.890625 0.406250 -0.234375
v 0.773438 -0.140625 -0.125000
v -0.773438 -0.140625 -0.125000
v 1.039062 -0.101562 -0.328125
v -1.039062 -0.101562 -0.328125
v 1.281250 0.054688 -0.429688
v -1.281250 0.054688 -0.429688
v 1.351562 0.320312 -0.421875
v -1.351562 0.320312 -0.421875
v 1.234375 0.507812 -0.421875
v -1.234375 0.507812 -0.421875
v 1.023438 0.476562 -0.312500
v -1.023438 0.476562 -0.312500
v 1.015625 0.414062 -0.289062
v -1.015625 0.414062 -0.289062
v 1.187500 0.437500 -0.390625
v -1.187500 0.437500 -0.390625
v 1.265625 0.289062 -0.406250
v -1.265625 0.289062 -0.406250
v 1.210938 0.078125 -0.406250
v -1.210938 0.078125 -0.406250
v 1.031250 -0.039062 -0.304688
v -1.031250 -0.039062 -0.304688
v 0.828125 -0.070312 -0.132812
v -0.828125 -0.070312 -0.132812
v 0.921875 0.359375 -0.218750
v -0.921875 0.359375 -0.218750
v 0.945312 0.304688 -0.289062
v -0.945312 0.304688 -0.289062
v 0.882812 -0.023438 -0.210938
v -0.882812 -0.023438 -0.210938
v 1.039062 -0.000000 -0.367188
v -1.039062 -0.000000 -0.367188
v 1.187500 0.093750 -0.445312
v -1.187500 0.093750 -0.445312
v 1.234375 0.250000 -0.445312
v -1.234375 0.250000 -0.445312
v 1.171875 0.359375 -0.437500
v -1.171875 0.359375 -0.437500
v 1.023438 0.343750 -0.359375
v -1.023438 0.343750 -0.359375
v 0.843750 0.289062 -0.210938
v -0.843750 0.289062 -0.210938
v 0.835938 0.171875 -0.273438
v -0.835938 0.171875 -0.273438
v 0.757812 0.093750 -0.273438
v -0.757812 0.093750 -0.273438
v 0.820312 0.085938 -0.273438
v -0.820312 0.085938 -0.273438
v 0.843750 0.015625 -0.273438
v -0.843750 0.015625 -0.273438
v 0.812500 -0.015625 -0.273438
v -0.812500 -0.015625 -0.273438
v 0.726562 -0.000000 -0.070312
v -0.726562 -0.000000 -0.070312
v 0.718750 -0.023438 -0.171875
v -0.718750 -0.023438 -0.171875
v 0.718750 0.039062 -0.187500
v -0.718750 0.039062 -0.187500
v 0.796875 0.203125 -0.210938
v -0.796875 0.203125 -0.210938
v 0.890625 0.242188 -0.265625
v -0.890625 0.242188 -0.265625
v 0.890625 0.234375 -0.320312
v -0.890625 0.234375 -0.320312
v 0.812500 -0.015625 -0.320312
v -0.812500 -0.015625 -0.320312
v 0.851562 0.015625 -0.320312
v -0.851562 0.015625 -0.320312
v 0.828125 0.078125 -0.320312
v -0.828125 0.078125 -0.320312
v 0.765625 0.093750 -0.320312
v -0.765625 0.093750 -0.320312
v 0.843750 0.171875 -0.320312
v -0.843750 0.171875 -0.320312
v 1.039062 0.328125 -0.414062
v -1.039062 0.328125 -0.414062
v 1.187500 0.343750 -0.484375
v -1.187500 0.343750 -0.484375
v 1.257812 0.242188 -0.492188
v -1.257812 0.242188 -0.492188
v 1.210938 0.085938 -0.484375
v -1.210938 0.085938 -0.484375
v 1.046875 -0.000000 -0.421875
v -1.046875 -0.000000 -0.421875
v 0.882812 -0.015625 -0.265625
v -0.882812 -0.015625 -0.265625
v 0.953125 0.289062 -0.343750
v -0.953125 0.289062 -0.343750
v 0.890625 0.109375 -0.328125
v -0.890625 0.109375 -0.328125
v 0.937500 0.062500 -0.335938
v -0.937500 0.062500 -0.335938
v 1.000000 0.125000 -0.367188
v -1.000000 0.125000 -0.367188
v 0.960938 0.171875 -0.351562
v -0.960938 0.171875 -0.351562
v 1.015625 0.234375 -0.375000
v -1.015625 0.234375 -0.375000
v 1.054688 0.187500 -0.382812
v -1.054688 0.187500 -0.382812
v 1.109375 0.210938 -0.390625
v -1.109375 0.210938 -0.390625
v 1.085938 0.273438 -0.390625
v -1.085938 0.273438 -0.390625
v 1.023438 0.437500 -0.484375
v -1.023438 0.437500 -0.484375
v 1.250000 0.468750 -0.546875
v -1.250000 0.468750 -0.546875
v 1.367188 0.296875 -0.500000
v -1.367188 0.296875 -0.500000
v 1.312500 0.054688 -0.531250
v -1.312500 0.054688 -0.531250
v 1.039062 -0.085938 -0.492188
v -1.039062 -0.085938 -0.492188
v 0.789062 -0.125000 -0.328125
v -0.789062 -0.125000 -0.328125
v 0.859375 0.382812 -0.382812
v -0.859375 0.382812 -0.382812
vn 0.6650 -0.2007 0.7194
vn -0.6650 -0.2007 0.7194
vn 0.8294 -0.3036 0.4689
vn -0.8294 -0.3036 0.4689
vn 0.4155 -0.7933 0.4449
vn -0.4155 -0.7933 0.4449
vn 0.3599 -0.5089 0.7820
vn -0.3599 -0.5089 0.7820
vn -0.0787 -0.5394 0.8384
vn 0.0787 -0.5394 0.8384
vn -0.2696 -0.8413 0.4685
vn 0.2696 -0.8413 0.4685
vn -0.7707 -0.3352 0.5420
vn 0.7707 -0.3352 0.5420
vn -0.4689 -0.1940 0.8617
vn 0.4689 -0.1940 0.8617
vn -0.4767 0.1907 0.8581
vn 0.4767 0.1907 0.8581
vn -0.7672 0.3264 0.5521
vn 0.7672 0.3264 0.5521
vn -0.2519 0.8173 0.5182
vn 0.2519 0.8173 0.5182
vn -0.0949 0.5696 0.8164
vn 0.0949 0.5696 0.8164
vn 0.3667 0.5370 0.7597
vn -0.3667 0.5370 0.7597
vn 0.4141 0.7672 0.4898
vn -0.4141 0.7672 0.4898
vn 0.8277 0.2952 0.4771
vn -0.8277 0.2952 0.4771
vn 0.6713 0.1971 0.7145
vn -0.6713 0.1971 0.7145
vn 0.8111 0.3244 -0.4866
vn -0.8111 0.3244 -0.4866
vn 0.2051 0.8206 -0.5334
vn -0.2051 0.8206 -0.5334
vn -0.4223 0.7806 -0.4607
vn 0.4223 0.7806 -0.4607
vn -0.8240 0.3225 -0.4658
vn 0.8240 0.3225 -0.4658
vn -0.8137 -0.3487 -0.4650
vn 0.8137 -0.3487 -0.4650
vn -0.4223 -0.7807 -0.4607
vn 0.4223 -0.7807 -0.4607
vn 0.2052 -0.8206 -0.5334
vn -0.2052 -0.8206 -0.5334
vn 0.7995 -0.3510 -0.4874
vn -0.7995 -0.3510 -0.4874
vn 0.4000 -0.0623 0.9144
vn -0.4000 -0.0623 0.9144
vn 0.3069 -0.1754 0.9354
vn -0.3069 -0.1754 0.9354
vn 0.0945 -0.1835 0.9785
vn -0.0945 -0.1835 0.9785
vn -0.0624 -0.0283 0.9977
vn 0.0624 -0.0283 0.9977
vn -0.0624 0.0260 0.9977
vn 0.0624 0.0260 0.9977
vn 0.0996 0.1729 0.9799
vn -0.0996 0.1729 0.9799
vn 0.3036 0.1656 0.9383
vn -0.3036 0.1656 0.9383
vn 0.4002 0.0572 0.9147
vn -0.4002 0.0572 0.9147
vn 0.1231 -0.8616 0.4924
vn -0.1231 -0.8616 0.4924
vn 0.2190 -0.8647 0.4520
vn -0.2190 -0.8647 0.4520
vn 0.5902 -0.4550 0.6668
vn -0.5902 -0.4550 0.6668
vn 0.7689 -0.0506 0.6374
vn -0.7689 -0.0506 0.6374
vn 0.7797 0.0900 0.6197
vn -0.7797 0.0900 0.6197
vn 0.3241 -0.8188 0.4739
vn -0.3241 -0.8188 0.4739
vn 0.3857 -0.6629 0.6417
vn -0.3857 -0.6629 0.6417
vn 0.6895 -0.4193 0.5906
vn -0.6895 -0.4193 0.5906
vn 0.6588 -0.3635 0.6587
vn -0.6588 -0.3635 0.6587
vn 0.5465 0.3707 0.7509
vn -0.5465 0.3707 0.7509
vn 0.5064 0.6464 0.5706
vn -0.5064 0.6464 0.5706
vn 0.6092 0.5167 0.6015
vn -0.6092 0.5167 0.6015
vn -0.0441 0.6610 0.7491
vn 0.0441 0.6610 0.7491
vn -0.7246 0.3187 0.6110
vn 0.7246 0.3187 0.6110
vn -0.5880 0.5554 0.5880
vn 0.5880 0.5554 0.5880
vn 0.5361 -0.3909 0.7482
vn -0.5361 -0.3909 0.7482
vn 0.2207 -0.4690 0.8552
vn -0.2207 -0.4690 0.8552
vn -0.0794 -0.5321 0.8429
vn 0.0794 -0.5321 0.8429
vn -0.0825 -0.6575 0.7490
vn 0.0825 -0.6575 0.7490
vn 0.0457 -0.5667 0.8226
vn -0.0457 -0.5667 0.8226
vn 0.2784 -0.2130 0.9365
vn -0.2784 -0.2130 0.9365
vn 0.3813 -0.1824 0.9063
vn -0.3813 -0.1824 0.9063
vn 0.3357 -0.2878 0.8969
vn -0.3357 -0.2878 0.8969
vn 0.3762 0.0603 0.9246
vn -0.3762 0.0603 0.9246
vn -0.1352 0.2680 0.9539
vn 0.1352 0.2680 0.9539
vn 0.3961 -0.4321 0.8102
vn -0.3961 -0.4321 0.8102
vn 0.1856 -0.2474 0.9510
vn -0.1856 -0.2474 0.9510
vn 0.0099 -0.1948 0.9808
vn -0.0099 -0.1948 0.9808
vn 0.0721 -0.6966 0.7138
vn -0.0721 -0.6966 0.7138
vn 0.1863 -0.5723 0.7986
vn -0.1863 -0.5723 0.7986
vn 0.3157 -0.2708 0.9094
vn -0.3157 -0.2708 0.9094
vn 0.3063 -0.0265 0.9516
vn -0.3063 -0.0265 0.9516
vn 0.3266 -0.1306 0.9361
vn -0.3266 -0.1306 0.9361
vn -0.0137 0.0574 0.9983
vn 0.0137 0.0574 0.9983
vn -0.0026 -0.0656 0.9978
vn -0.0000 -0.0656 0.9978
vn 0.0026 -0.0656 0.9978
vn -0.0000 -0.0000 1.0000
vn 0.8174 -0.5744 -0.0442
vn -0.8174 -0.5744 -0.0442
vn 0.9494 0.2297 -0.2144
vn -0.9494 0.2297 -0.2144
vn 0.0825 0.9073 -0.4124
vn -0.0825 0.9073 -0.4124
vn -0.8836 0.3555 0.3047
vn 0.8836 0.3555 0.3047
vn 0.4207 -0.8797 0.2218
vn -0.4207 -0.8797 0.2218
vn 0.2873 -0.5747 0.7663
vn -0.2873 -0.5747 0.7663
vn -0.6542 0.6019 0.4580
vn 0.6542 0.6019 0.4580
vn 0.1052 0.7892 0.6051
vn -0.1052 0.7892 0.6051
vn 0.7582 0.2916 0.5832
vn -0.7582 0.2916 0.5832
vn 0.3889 -0.7130 0.5834
vn -0.3889 -0.7130 0.5834
vn 0.0463 0.2314 0.9718
vn -0.0463 0.2314 0.9718
vn 0.0335 -0.4018 0.9151
vn -0.0335 -0.4018 0.9151
vn -0.4452 -0.1610 0.8809
vn 0.4452 -0.1610 0.8809
vn -0.2182 -0.4364 0.8729
vn 0.2182 -0.4364 0.8729
vn 0.4341 -0.1290 0.8916
vn -0.4341 -0.1290 0.8916
vn 0.3008 0.0501 0.9524
vn -0.3008 0.0501 0.9524
vn 0.8123 0.3010 0.4996
vn -0.8123 0.3010 0.4996
vn 0.8753 0.2574 0.4093
vn -0.8753 0.2574 0.4093
vn 0.9385 0.1601 0.3060
vn -0.9385 0.1601 0.3060
vn 0.2237 -0.6539 0.7227
vn -0.2237 -0.6539 0.7227
vn -0.1536 -0.1997 0.9677
vn 0.1536 -0.1997 0.9677
vn -0.2733 -0.1025 0.9565
vn 0.2733 -0.1025 0.9565
vn -0.0976 0.1952 0.9759
vn 0.0976 0.1952 0.9759
vn -0.1582 0.9494 0.2713
vn 0.1582 0.9494 0.2713
vn -0.6934 0.7082 0.1328
vn 0.6934 0.7082 0.1328
vn -1.0000 -0.0000 -0.0000
vn 1.0000 -0.0000 -0.0000
vn 0.3051 -0.9450 0.1181
vn -0.3051 -0.9450 0.1181
vn 0.0298 -0.2981 0.9541
vn -0.0298 -0.2981 0.9541
vn 0.1353 -0.3479 0.9277
vn -0.1353 -0.3479 0.9277
vn -0.5085 -0.2755 0.8158
vn 0.5085 -0.2755 0.8158
vn -0.3843 -0.0419 0.9223
vn 0.3843 -0.0419 0.9223
vn -0.2083 0.0374 0.9774
vn 0.2083 0.0374 0.9774
vn -0.5721 -0.4767 0.6674
vn 0.5721 -0.4767 0.6674
vn -0.1369 -0.7531 0.6435
vn 0.1369 -0.7531 0.6435
vn 0.4088 -0.6071 0.6814
vn -0.4088 -0.6071 0.6814
vn 0.5740 -0.4130 0.7070
vn -0.5740 -0.4130 0.7070
vn 0.5665 -0.0968 0.8183
vn -0.5665 -0.0968 0.8183
vn 0.5703 0.1180 0.8129
vn -0.5703 0.1180 0.8129
vn 0.4823 0.5621 0.6719
vn -0.4823 0.5621 0.6719
vn 0.2604 0.6114 0.7473
vn -0.2604 0.6114 0.7473
vn 0.1640 0.3607 0.9182
vn -0.1640 0.3607 0.9182
vn -0.0178 0.2495 0.9682
vn 0.0178 0.2495 0.9682
vn 0.3273 -0.4166 0.8481
vn -0.3273 -0.4166 0.8481
vn 0.2811 -0.2610 0.9235
vn -0.2811 -0.2610 0.9235
vn -0.2542 -0.6514 0.7149
vn 0.2542 -0.6514 0.7149
vn -0.0260 -0.8455 0.5333
vn 0.0260 -0.8455 0.5333
vn -0.3518 -0.2606 0.8991
vn 0.3518 -0.2606 0.8991
vn -0.3523 -0.0110 0.9358
vn 0.3523 -0.0110 0.9358
vn -0.1316 0.4608 0.8777
vn 0.1316 0.4608 0.8777
vn -0.0342 0.6159 0.7870
vn 0.0342 0.6159 0.7870
vn 0.3603 0.5836 0.7277
vn -0.3603 0.5836 0.7277
vn 0.4988 0.5300 0.6858
vn -0.4988 0.5300 0.6858
vn 0.6667 -0.3333 0.6666
vn -0.6667 -0.3333 0.6666
vn 0.8165 -0.0731 0.5727
vn -0.8165 -0.0731 0.5727
vn 0.7840 0.1162 0.6098
vn -0.7840 0.1162 0.6098
vn -0.5306 0.8111 -0.2461
vn 0.5306 0.8111 -0.2461
vn -0.8511 0.3695 -0.3730
vn 0.8511 0.3695 -0.3730
vn -0.2446 0.8675 -0.4331
vn 0.2446 0.8675 -0.4331
vn 0.5924 0.7465 -0.3030
vn -0.5924 0.7465 -0.3030
vn 0.3685 0.8758 -0.3118
vn -0.3685 0.8758 -0.3118
vn 0.2821 0.9151 -0.2880
vn -0.2821 0.9151 -0.2880
vn 0.8561 0.1340 -0.4991
vn -0.8561 0.1340 -0.4991
vn 0.5342 -0.7233 -0.4376
vn -0.5342 -0.7233 -0.4376
vn 0.3849 -0.8131 -0.4368
vn -0.3849 -0.8131 -0.4368
vn 0.2335 -0.5806 -0.7800
vn -0.2335 -0.5806 -0.7800
vn 0.2449 -0.0583 -0.9678
vn -0.2449 -0.0583 -0.9678
vn 0.1163 -0.4535 -0.8837
vn -0.1163 -0.4535 -0.8837
vn 0.1152 -0.9836 -0.1388
vn -0.1152 -0.9836 -0.1388
vn 0.1184 -0.9669 -0.2260
vn -0.1184 -0.9669 -0.2260
vn 0.9597 -0.0085 -0.2808
vn -0.9597 -0.0085 -0.2808
vn 0.9319 0.1629 -0.3242
vn -0.9319 0.1629 -0.3242
vn 0.1626 0.0207 -0.9865
vn -0.1626 0.0207 -0.9865
vn -0.0188 -0.2177 -0.9758
vn 0.0188 -0.2177 -0.9758
vn 0.7538 -0.2926 -0.5884
vn -0.7538 -0.2926 -0.5884
vn 0.9196 0.1379 -0.3678
vn -0.9196 0.1379 -0.3678
vn 0.9297 0.3127 -0.1944
vn -0.9297 0.3127 -0.1944
vn 0.9120 0.3376 -0.2329
vn -0.9120 0.3376 -0.2329
vn 0.9407 0.3338 -0.0607
vn -0.9407 0.3338 -0.0607
vn 0.1761 -0.8805 -0.4402
vn -0.1761 -0.8805 -0.4402
vn 0.3708 -0.4733 -0.7991
vn -0.3708 -0.4733 -0.7991
vn 0.3107 -0.8284 -0.4660
vn -0.3107 -0.8284 -0.4660
vn 0.2793 -0.9515 -0.1287
vn -0.2793 -0.9515 -0.1287
vn 0.3139 -0.9321 -0.1807
vn -0.3139 -0.9321 -0.1807
vn 0.9762 -0.2083 -0.0609
vn -0.9762 -0.2083 -0.0609
vn 0.8267 -0.5066 0.2447
vn -0.8267 -0.5066 0.2447
vn 0.3449 -0.1158 -0.9315
vn -0.3449 -0.1158 -0.9315
vn 0.1203 0.9644 0.2355
vn -0.1203 0.9644 0.2355
vn 0.1275 0.9744 -0.1851
vn -0.1275 0.9744 -0.1851
vn 0.3492 0.5947 -0.7241
vn -0.3492 0.5947 -0.7241
vn 0.4153 0.8981 -0.1449
vn -0.4153 0.8981 -0.1449
vn 0.1845 0.7036 0.6863
vn -0.1845 0.7036 0.6863
vn 0.6056 0.7794 0.1608
vn -0.6056 0.7794 0.1608
vn 0.7033 0.6806 -0.2053
vn -0.7033 0.6806 -0.2053
vn 0.6679 0.2007 -0.7166
vn -0.6679 0.2007 -0.7166
vn 0.4948 0.4342 -0.7528
vn -0.4948 0.4342 -0.7528
vn 0.6423 0.7459 -0.1761
vn -0.6423 0.7459 -0.1761
vn 0.7182 0.6788 0.1530
vn -0.7182 0.6788 0.1530
vn 0.7388 0.3972 0.5444
vn -0.7388 0.3972 0.5444
vn 0.3428 0.9261 -0.1579
vn -0.3428 0.9261 -0.1579
vn 0.2270 0.5740 0.7867
vn -0.2270 0.5740 0.7867
vn -0.1722 0.1046 -0.9795
vn 0.1722 0.1046 -0.9795
vn 0.0425 0.9150 0.4013
vn -0.0425 0.9150 0.4013
vn -0.1616 0.1847 0.9694
vn 0.1616 0.1847 0.9694
vn 0.9791 0.1973 0.0483
vn -0.9791 0.1973 0.0483
vn 0.9470 0.0918 0.3079
vn -0.9470 0.0918 0.3079
vn 0.9794 0.1905 -0.0661
vn -0.9794 0.1905 -0.0661
vn 0.9938 0.0312 -0.1070
vn -0.9938 0.0312 -0.1070
vn 0.7116 -0.7008 0.0501
vn -0.7116 -0.7008 0.0501
vn 0.3722 -0.9243 0.0847
vn -0.3722 -0.9243 0.0847
vn 0.4465 -0.8644 0.2310
vn -0.4465 -0.8644 0.2310
vn 0.6066 -0.7578 0.2405
vn -0.6066 -0.7578 0.2405
vn 0.7325 -0.6368 0.2407
vn -0.7325 -0.6368 0.2407
vn 0.2637 -0.4499 0.8533
vn -0.2637 -0.4499 0.8533
vn 0.5568 -0.3181 -0.7673
vn -0.5568 -0.3181 -0.7673
vn 0.5004 -0.2807 -0.8190
vn -0.5004 -0.2807 -0.8190
vn 0.3190 -0.8494 -0.4205
vn -0.3190 -0.8494 -0.4205
vn 0.7198 -0.6356 -0.2793
vn -0.7198 -0.6356 -0.2793
vn 0.4972 -0.4408 -0.7473
vn -0.4972 -0.4408 -0.7473
vn 0.3506 0.3807 0.8557
vn -0.3506 0.3807 0.8557
vn 0.4566 0.1715 0.8730
vn -0.4566 0.1715 0.8730
vn 0.2583 0.1055 0.9603
vn -0.2583 0.1055 0.9603
vn 0.2455 -0.0802 0.9661
vn -0.2455 -0.0802 0.9661
vn 0.4643 -0.0599 0.8837
vn -0.4643 -0.0599 0.8837
vn 0.6225 -0.3045 0.7210
vn -0.6225 -0.3045 0.7210
vn 0.4500 0.6590 0.6027
vn -0.4500 0.6590 0.6027
vn -0.2667 0.8309 0.4884
vn 0.2667 0.8309 0.4884
vn -0.8284 0.2291 0.5111
vn 0.8284 0.2291 0.5111
vn -0.5251 -0.3566 0.7727
vn 0.5251 -0.3566 0.7727
vn 0.4546 -0.5665 0.6873
vn -0.4546 -0.5665 0.6873
vn 0.6996 -0.4497 0.5552
vn -0.6996 -0.4497 0.5552
vn 0.7220 -0.6827 -0.1126
vn -0.7220 -0.6827 -0.1126
vn -0.1919 0.2860 0.9388
vn 0.1919 0.2860 0.9388
vn 0.9048 -0.3734 -0.2047
vn -0.9048 -0.3734 -0.2047
vn 0.1034 0.1551 0.9825
vn -0.1034 0.1551 0.9825
vn 0.0841 0.9318 0.3530
vn -0.0841 0.9318 0.3530
vn 0.6446 -0.0883 0.7594
vn -0.6446 -0.0883 0.7594
vn 0.4309 0.4740 0.7678
vn -0.4309 0.4740 0.7678
vn 0.8032 -0.4847 0.3462
vn -0.8032 -0.4847 0.3462
vn 0.5811 -0.4128 0.7014
vn -0.5811 -0.4128 0.7014
vn 0.5910 -0.4305 0.6822
vn -0.5910 -0.4305 0.6822
vn 0.9818 -0.1804 -0.0591
vn -0.9818 -0.1804 -0.0591
vn 0.9105 -0.3965 -0.1175
vn -0.9105 -0.3965 -0.1175
vn 0.9972 -0.0181 -0.0725
vn -0.9972 -0.0181 -0.0725
vn 0.7313 -0.6543 0.1925
vn -0.7313 -0.6543 0.1925
vn 0.7867 -0.6079 0.1073
vn -0.7867 -0.6079 0.1073
vn 0.7022 -0.7022 0.1170
vn -0.7022 -0.7022 0.1170
vn 0.1840 0.9816 -0.0511
vn -0.1840 0.9816 -0.0511
vn 0.9352 0.3301 0.1284
vn -0.9352 0.3301 0.1284
vn 0.6634 -0.7463 0.0553
vn -0.6634 -0.7463 0.0553
vn -0.0085 0.9970 0.0767
vn 0.0085 0.9970 0.0767
vn 0.6237 -0.7061 0.3354
vn -0.6237 -0.7061 0.3354
vn 0.2733 -0.8925 0.3587
vn -0.2733 -0.8925 0.3587
vn -0.8328 -0.5080 -0.2200
vn 0.8328 -0.5080 -0.2200
vn -0.8339 0.2377 -0.4981
vn 0.8339 0.2377 -0.4981
vn -0.5655 0.7847 -0.2539
vn 0.5655 0.7847 -0.2539
vn -0.0560 0.9962 0.0672
vn 0.0560 0.9962 0.0672
vn 0.1445 0.0222 0.9893
vn -0.1445 0.0222 0.9893
vn 0.3275 0.0645 0.9427
vn -0.3275 0.0645 0.9427
vn 0.3127 0.0232 0.9496
vn -0.3127 0.0232 0.9496
vn 0.1710 0.0274 0.9849
vn -0.1710 0.0274 0.9849
vn 0.3487 0.2849 0.8929
vn -0.3487 0.2849 0.8929
vn 0.4006 -0.0343 0.9156
vn -0.4006 -0.0343 0.9156
vn 0.2572 -0.0603 0.9645
vn -0.2572 -0.0603 0.9645
vn 0.0637 -0.0106 0.9979
vn -0.0637 -0.0106 0.9979
vn -0.3637 0.7039 0.6101
vn 0.3637 0.7039 0.6101
vn 0.6299 0.0355 0.7759
vn -0.6299 0.0355 0.7759
vn 0.4472 -0.2002 0.8717
vn -0.4472 -0.2002 0.8717
vn 0.5072 -0.2141 0.8348
vn -0.5072 -0.2141 0.8348
vn 0.5258 0.2619 0.8093
vn -0.5258 0.2619 0.8093
vn 0.2980 0.5802 0.7580
vn -0.2980 0.5802 0.7580
vn 0.0930 -0.9924 -0.0805
vn -0.0930 -0.9924 -0.0805
vn 0.5006 -0.8657 0.0080
vn -0.5006 -0.8657 0.0080
vn 0.9285 -0.2497 0.2748
vn -0.9285 -0.2497 0.2748
vn 0.8393 0.5424 -0.0378
vn -0.8393 0.5424 -0.0378
vn -0.2355 0.9367 -0.2589
vn 0.2355 0.9367 -0.2589
vn -0.4499 0.8838 -0.1285
vn 0.4499 0.8838 -0.1285
vn -0.5384 -0.0098 -0.8427
vn 0.5384 -0.0098 -0.8427
vn -0.1910 -0.0241 -0.9813
vn 0.1910 -0.0241 -0.9813
vn 0.4046 0.0266 -0.9141
vn -0.4046 0.0266 -0.9141
vn -0.7819 0.6231 0.0197
vn 0.7819 0.6231 0.0197
vn 0.5428 -0.2063 -0.8142
vn -0.5428 -0.2063 -0.8142
vn -0.2474 -0.9231 -0.2945
vn 0.2474 -0.9231 -0.2945
vt 0.890955 0.590063
vt 0.870622 0.589649
vt 0.860081 0.560115
vt 0.904571 0.559404
vt 0.856226 0.850547
vt 0.868067 0.821510
vt 0.888398 0.821999
vt 0.900640 0.853232
vt 0.853018 0.521562
vt 0.920166 0.524546
vt 0.847458 0.888748
vt 0.914672 0.888748
vt 0.828900 0.590771
vt 0.798481 0.569535
vt 0.795104 0.838402
vt 0.826436 0.818537
vt 0.854402 0.604754
vt 0.852534 0.805700
vt 0.854107 0.625459
vt 0.828171 0.633354
vt 0.827598 0.775964
vt 0.853157 0.785002
vt 0.791018 0.645443
vt 0.791018 0.762238
vt 0.855181 0.668527
vt 0.842358 0.702491
vt 0.844839 0.707525
vt 0.856142 0.742025
vt 0.867508 0.642291
vt 0.867293 0.768782
vt 0.890474 0.641909
vt 0.900375 0.666964
vt 0.901223 0.745592
vt 0.890219 0.770183
vt 0.918898 0.699697
vt 0.921180 0.713713
vt 0.931889 0.636832
vt 0.968392 0.645333
vt 0.968213 0.770220
vt 0.931368 0.777093
vt 0.905882 0.627902
vt 0.904990 0.784860
vt 0.906232 0.605742
vt 0.933717 0.593037
vt 0.931250 0.820926
vt 0.904357 0.807013
vt 0.968392 0.573812
vt 0.965038 0.841671
vt 0.902359 0.607909
vt 0.889591 0.593275
vt 0.900583 0.804677
vt 0.887178 0.818729
vt 0.899781 0.626257
vt 0.898822 0.786233
vt 0.887842 0.636527
vt 0.887351 0.775442
vt 0.870908 0.635245
vt 0.870376 0.775972
vt 0.859881 0.623942
vt 0.858859 0.786774
vt 0.859664 0.608186
vt 0.857942 0.802505
vt 0.871664 0.593961
vt 0.869299 0.817249
vt 0.879400 0.616512
vt 0.878029 0.795063
vt 0.540260 0.053805
vt 0.536419 0.062072
vt 0.518925 0.059681
vt 0.518916 0.050294
vt 0.501452 0.062043
vt 0.497626 0.053770
vt 0.551930 0.058338
vt 0.542788 0.064089
vt 0.495083 0.064047
vt 0.485955 0.058273
vt 0.555073 0.061900
vt 0.546290 0.072669
vt 0.491565 0.072625
vt 0.482805 0.061829
vt 0.563812 0.076586
vt 0.548333 0.084893
vt 0.489507 0.084858
vt 0.474014 0.076511
vt 0.583135 0.108495
vt 0.555621 0.121749
vt 0.482177 0.121781
vt 0.454527 0.108481
vt 0.605512 0.165134
vt 0.647395 0.200502
vt 0.621513 0.227818
vt 0.553118 0.209599
vt 0.416514 0.229490
vt 0.389677 0.201890
vt 0.432024 0.165644
vt 0.485339 0.210053
vt 0.676379 0.233241
vt 0.664761 0.253225
vt 0.372747 0.256357
vt 0.360308 0.235899
vt 0.715342 0.265392
vt 0.683908 0.279995
vt 0.353696 0.284606
vt 0.320452 0.270303
vt 0.707254 0.310054
vt 0.687515 0.311539
vt 0.351187 0.317440
vt 0.330721 0.316853
vt 0.697446 0.332673
vt 0.676824 0.323937
vt 0.362723 0.329722
vt 0.341964 0.339667
vt 0.662817 0.372521
vt 0.639050 0.357330
vt 0.402772 0.362131
vt 0.379297 0.378686
vt 0.626842 0.395792
vt 0.618316 0.375151
vt 0.424583 0.379267
vt 0.416915 0.400552
vt 0.604826 0.397804
vt 0.600808 0.377857
vt 0.442396 0.381222
vt 0.439252 0.401540
vt 0.553095 0.390512
vt 0.559674 0.357011
vt 0.482938 0.358497
vt 0.490934 0.391862
vt 0.521923 0.386009
vt 0.521086 0.343868
vt 0.577279 0.340156
vt 0.599845 0.344815
vt 0.441977 0.347815
vt 0.464579 0.342230
vt 0.615546 0.342005
vt 0.425972 0.345582
vt 0.634472 0.332311
vt 0.406362 0.336480
vt 0.662406 0.312804
vt 0.377061 0.317685
vt 0.668440 0.297958
vt 0.370304 0.302644
vt 0.664101 0.277872
vt 0.374100 0.281778
vt 0.639236 0.253047
vt 0.398938 0.255633
vt 0.613992 0.242662
vt 0.424464 0.244473
vt 0.572941 0.258564
vt 0.466409 0.259709
vt 0.563905 0.272007
vt 0.519760 0.248864
vt 0.475886 0.273078
vt 0.558527 0.316594
vt 0.482619 0.317843
vt 0.520277 0.294764
vt 0.556923 0.291214
vt 0.483433 0.292249
vt 0.525483 0.068967
vt 0.518928 0.067899
vt 0.512375 0.068956
vt 0.531231 0.073829
vt 0.506626 0.073811
vt 0.531019 0.087431
vt 0.506827 0.087416
vt 0.532042 0.127713
vt 0.532669 0.090920
vt 0.505177 0.090908
vt 0.505828 0.127728
vt 0.538112 0.158382
vt 0.518981 0.151749
vt 0.518941 0.128358
vt 0.499851 0.158434
vt 0.518925 0.093952
vt 0.518927 0.085180
vt 0.548362 0.173560
vt 0.537959 0.175966
vt 0.535214 0.166808
vt 0.502799 0.166857
vt 0.500100 0.176033
vt 0.489683 0.173693
vt 0.544281 0.193366
vt 0.537248 0.187577
vt 0.500890 0.187571
vt 0.493996 0.193428
vt 0.519841 0.200843
vt 0.528757 0.191785
vt 0.509219 0.191626
vt 0.517577 0.190607
vt 0.519132 0.185382
vt 0.518998 0.159028
vt 0.531131 0.171631
vt 0.519016 0.165599
vt 0.506910 0.171667
vt 0.519099 0.179457
vt 0.528222 0.186316
vt 0.509787 0.186260
vt 0.533528 0.184215
vt 0.504547 0.184206
vt 0.533449 0.176739
vt 0.504604 0.176791
vt 0.561572 0.167779
vt 0.476363 0.167996
vt 0.559475 0.149319
vt 0.478371 0.149447
vt 0.596138 0.133426
vt 0.441395 0.133592
vt 0.601169 0.147885
vt 0.436337 0.148194
vt 0.518925 0.083865
vt 0.528933 0.084957
vt 0.508915 0.084945
vt 0.529036 0.075429
vt 0.508820 0.075415
vt 0.523751 0.070508
vt 0.514106 0.070501
vt 0.518929 0.069468
vt 0.521560 0.074970
vt 0.518928 0.074259
vt 0.516297 0.074966
vt 0.524236 0.076691
vt 0.513619 0.076684
vt 0.524601 0.079886
vt 0.513252 0.079879
vt 0.518926 0.079331
vt 0.571787 0.277295
vt 0.568351 0.292904
vt 0.468070 0.278617
vt 0.471978 0.294282
vt 0.573085 0.311386
vt 0.467790 0.313081
vt 0.584855 0.327708
vt 0.456477 0.329961
vt 0.580734 0.266620
vt 0.458737 0.268049
vt 0.611720 0.255725
vt 0.427062 0.257728
vt 0.632494 0.262853
vt 0.406068 0.265508
vt 0.653658 0.279971
vt 0.384904 0.283634
vt 0.656064 0.297636
vt 0.383015 0.301864
vt 0.652752 0.310186
vt 0.386858 0.314615
vt 0.629040 0.323864
vt 0.411556 0.327673
vt 0.614408 0.331972
vt 0.426727 0.335361
vt 0.601033 0.333624
vt 0.440344 0.336537
vt 0.590644 0.321516
vt 0.601799 0.328453
vt 0.450408 0.323919
vt 0.439372 0.331331
vt 0.613335 0.327083
vt 0.427623 0.330358
vt 0.626851 0.320513
vt 0.413648 0.324175
vt 0.646248 0.306421
vt 0.393381 0.310510
vt 0.649541 0.296225
vt 0.389662 0.300183
vt 0.647785 0.283486
vt 0.391040 0.287071
vt 0.629829 0.267263
vt 0.408893 0.269959
vt 0.612641 0.261560
vt 0.426254 0.263693
vt 0.585166 0.270991
vt 0.454369 0.272583
vt 0.578124 0.281900
vt 0.461798 0.283441
vt 0.579548 0.309340
vt 0.461204 0.311233
vt 0.577524 0.293776
vt 0.462754 0.295432
vt 0.553209 0.433063
vt 0.523031 0.433628
vt 0.492809 0.434538
vt 0.609819 0.431516
vt 0.435860 0.435740
vt 0.648174 0.419316
vt 0.396518 0.425416
vt 0.692106 0.388274
vt 0.350292 0.396229
vt 0.726332 0.341754
vt 0.312756 0.350588
vt 0.735879 0.312112
vt 0.301067 0.320593
vt 0.729900 0.256393
vt 0.304876 0.261087
vt 0.698172 0.216906
vt 0.337414 0.219179
vt 0.663103 0.190671
vt 0.373474 0.191872
vt 0.626908 0.015608
vt 0.649444 0.022378
vt 0.660451 0.076084
vt 0.621440 0.048089
vt 0.376796 0.075296
vt 0.388827 0.021586
vt 0.411318 0.015131
vt 0.416419 0.047631
vt 0.567460 0.000144
vt 0.577206 0.032801
vt 0.470636 0.000144
vt 0.460782 0.032656
vt 0.518922 0.024886
vt 0.547413 0.041724
vt 0.490511 0.041669
vt 0.558059 0.053871
vt 0.479842 0.053785
vt 0.576951 0.057998
vt 0.460920 0.057845
vt 0.611687 0.078268
vt 0.425932 0.077985
vt 0.626663 0.111357
vt 0.410618 0.111244
vt 0.629482 0.130456
vt 0.623495 0.146796
vt 0.413741 0.147158
vt 0.407648 0.130594
vt 0.619303 0.159841
vt 0.418035 0.160361
vt 0.945900 0.079569
vt 0.886245 0.121777
vt 0.849114 0.099732
vt 0.891780 0.036916
vt 0.183115 0.092127
vt 0.141314 0.112482
vt 0.078961 0.060719
vt 0.142277 0.021467
vt 0.788458 0.080826
vt 0.805584 0.010786
vt 0.246353 0.076510
vt 0.232648 0.003484
vt 0.687018 0.077204
vt 0.672384 0.022201
vt 0.349875 0.075955
vt 0.365979 0.020991
vt 0.760215 0.193244
vt 0.789046 0.233323
vt 0.271553 0.193871
vt 0.241255 0.236977
vt 0.994525 0.167705
vt 0.909112 0.183261
vt 0.107928 0.179083
vt 0.011829 0.155367
vt 0.911671 0.402429
vt 0.862868 0.338556
vt 0.894128 0.301884
vt 0.962901 0.344752
vt 0.123776 0.315519
vt 0.160557 0.356821
vt 0.106400 0.432652
vt 0.043968 0.367038
vt 0.915360 0.259804
vt 0.999856 0.254640
vt 0.098965 0.266968
vt 0.000144 0.259113
vt 0.749542 0.334683
vt 0.766337 0.300809
vt 0.789162 0.313727
vt 0.267408 0.310142
vt 0.288183 0.346496
vt 0.242992 0.325552
vt 0.815314 0.276388
vt 0.846174 0.293397
vt 0.213065 0.285164
vt 0.178537 0.304983
vt 0.845007 0.256352
vt 0.873517 0.265922
vt 0.179662 0.263312
vt 0.147089 0.274284
vt 0.859075 0.228168
vt 0.886999 0.233769
vt 0.162803 0.231720
vt 0.131514 0.237587
vt 0.842355 0.195160
vt 0.875030 0.184705
vt 0.145224 0.182749
vt 0.176788 0.196179
vt 0.794286 0.364062
vt 0.239776 0.382592
vt 0.770185 0.379538
vt 0.268122 0.398737
vt 0.845499 0.449967
vt 0.185281 0.484099
vt 0.815858 0.445381
vt 0.770572 0.444261
vt 0.755700 0.418603
vt 0.287033 0.442912
vt 0.271364 0.473316
vt 0.219260 0.477186
vt 0.819845 0.468071
vt 0.215894 0.503605
vt 0.809631 0.233887
vt 0.219168 0.237388
vt 0.829287 0.219562
vt 0.199067 0.222464
vt 0.786480 0.117591
vt 0.715482 0.139727
vt 0.246666 0.114850
vt 0.319538 0.139409
vt 0.785486 0.152330
vt 0.245969 0.151002
vt 0.837382 0.156361
vt 0.858171 0.137775
vt 0.171653 0.132294
vt 0.196622 0.155241
vt 0.506166 0.904851
vt 0.432388 0.894943
vt 0.438797 0.870229
vt 0.491058 0.881714
vt 0.315867 0.868209
vt 0.321637 0.893225
vt 0.247207 0.901159
vt 0.263032 0.878321
vt 0.572792 0.860484
vt 0.604825 0.879946
vt 0.181486 0.854693
vt 0.148729 0.873349
vt 0.586396 0.793977
vt 0.619962 0.791615
vt 0.169745 0.787474
vt 0.136063 0.784093
vt 0.549027 0.746412
vt 0.563786 0.739211
vt 0.208656 0.740879
vt 0.194086 0.733241
vt 0.500314 0.711729
vt 0.508270 0.697693
vt 0.258399 0.707497
vt 0.250811 0.693249
vt 0.438641 0.680683
vt 0.434803 0.658882
vt 0.320962 0.677959
vt 0.325318 0.656224
vt 0.505666 0.730944
vt 0.452955 0.700023
vt 0.306136 0.696976
vt 0.252524 0.726592
vt 0.542850 0.755753
vt 0.214575 0.750414
vt 0.568148 0.787367
vt 0.188269 0.781375
vt 0.555495 0.826352
vt 0.199850 0.820889
vt 0.501231 0.844356
vt 0.253846 0.840502
vt 0.457832 0.840040
vt 0.297562 0.837358
vt 0.796021 0.176969
vt 0.783193 0.187449
vt 0.233625 0.175620
vt 0.246955 0.187075
vt 0.391039 0.611891
vt 0.394766 0.686125
vt 0.369913 0.610196
vt 0.364838 0.684445
vt 0.391747 0.862097
vt 0.401605 0.841460
vt 0.354026 0.840297
vt 0.363377 0.861308
vt 0.435018 0.718280
vt 0.323658 0.715731
vt 0.433669 0.729661
vt 0.384658 0.710299
vt 0.374400 0.708969
vt 0.324726 0.727177
vt 0.410995 0.747662
vt 0.427812 0.742828
vt 0.347028 0.745816
vt 0.330270 0.740536
vt 0.418086 0.784946
vt 0.384657 0.795423
vt 0.372270 0.794472
vt 0.338952 0.783073
vt 0.431333 0.817535
vt 0.324790 0.815460
vt 0.816266 0.203086
vt 0.825107 0.209762
vt 0.199767 0.214827
vt 0.209828 0.206161
vt 0.802192 0.184609
vt 0.226485 0.183086
vt 0.448505 0.804621
vt 0.473386 0.824700
vt 0.307886 0.802031
vt 0.282357 0.821525
vt 0.435868 0.779569
vt 0.321237 0.777208
vt 0.423718 0.754191
vt 0.334089 0.752045
vt 0.437950 0.749777
vt 0.319919 0.747250
vt 0.445392 0.731997
vt 0.312907 0.729222
vt 0.440995 0.724383
vt 0.317510 0.721697
vt 0.455277 0.713731
vt 0.303460 0.710657
vt 0.512485 0.828811
vt 0.242975 0.824574
vt 0.550942 0.811814
vt 0.204839 0.806417
vt 0.552139 0.787682
vt 0.204331 0.782156
vt 0.539407 0.764539
vt 0.217774 0.759319
vt 0.508439 0.743135
vt 0.249419 0.738732
vt 0.470841 0.748408
vt 0.454776 0.761665
vt 0.286960 0.745020
vt 0.302729 0.758742
vt 0.488870 0.770464
vt 0.475403 0.783904
vt 0.268291 0.766661
vt 0.281439 0.780511
vt 0.503673 0.787562
vt 0.494476 0.802470
vt 0.252972 0.783410
vt 0.261790 0.798626
vt 0.518562 0.791602
vt 0.516802 0.807339
vt 0.237920 0.787045
vt 0.239243 0.802891
vt 0.484068 0.628776
vt 0.543385 0.683538
vt 0.276936 0.625067
vt 0.216123 0.678120
vt 0.581052 0.726933
vt 0.177176 0.720426
vt 0.616701 0.759965
vt 0.140379 0.752377
vt 0.707492 0.759884
vt 0.660647 0.741167
vt 0.049526 0.748824
vt 0.097038 0.732052
vt 0.745511 0.652100
vt 0.677256 0.670436
vt 0.019409 0.639749
vt 0.083564 0.662038
vt 0.740843 0.572428
vt 0.671403 0.592656
vt 0.033664 0.564403
vt 0.092820 0.589862
vt 0.834578 0.206879
vt 0.834705 0.206959
vt 0.051216 0.522659
vt 0.145041 0.562595
vt 0.620420 0.565675
vt 0.498072 0.552315
vt 0.264218 0.550140
s 1
usemtl monkey
f 47/1/1 1/2/1 3/3/1 45/4/1
f 4/5/2 2/6/2 48/7/2 46/8/2
f 45/4/3 3/3/3 5/9/3 43/10/3
f 6/11/4 4/5/4 46/8/4 44/12/4
f 3/3/5 9/13/5 7/14/5 5/9/5
f 8/15/6 10/16/6 4/5/6 6/11/6
f 1/2/7 11/17/7 9/13/7 3/3/7
f 10/16/8 12/18/8 2/6/8 4/5/8
f 11/17/9 13/19/9 15/20/9 9/13/9
f 16/21/10 14/22/10 12/18/10 10/16/10
f 9/13/11 15/20/11 17/23/11 7/14/11
f 18/24/12 16/21/12 10/16/12 8/15/12
f 15/20/13 21/25/13 19/26/13 17/23/13
f 20/27/14 22/28/14 16/21/14 18/24/14
f 13/19/15 23/29/15 21/25/15 15/20/15
f 22/28/16 24/30/16 14/22/16 16/21/16
f 23/29/17 25/31/17 27/32/17 21/25/17
f 28/33/18 26/34/18 24/30/18 22/28/18
f 21/25/19 27/32/19 29/35/19 19/26/19
f 30/36/20 28/33/20 22/28/20 20/27/20
f 27/32/21 33/37/21 31/38/21 29/35/21
f 32/39/22 34/40/22 28/33/22 30/36/22
f 25/31/23 35/41/23 33/37/23 27/32/23
f 34/40/24 36/42/24 26/34/24 28/33/24
f 35/41/25 37/43/25 39/44/25 33/37/25
f 40/45/26 38/46/26 36/42/26 34/40/26
f 33/37/27 39/44/27 41/47/27 31/38/27
f 42/48/28 40/45/28 34/40/28 32/39/28
f 39/44/29 45/4/29 43/10/29 41/47/29
f 44/12/30 46/8/30 40/45/30 42/48/30
f 37/43/31 47/1/31 45/4/31 39/44/31
f 46/8/32 48/7/32 38/46/32 40/45/32
f 47/1/33 37/43/33 51/49/33 49/50/33
f 52/51/34 38/46/34 48/7/34 50/52/34
f 37/43/35 35/41/35 53/53/35 51/49/35
f 54/54/36 36/42/36 38/46/36 52/51/36
f 35/41/37 25/31/37 55/55/37 53/53/37
f 56/56/38 26/34/38 36/42/38 54/54/38
f 25/31/39 23/29/39 57/57/39 55/55/39
f 58/58/40 24/30/40 26/34/40 56/56/40
f 23/29/41 13/19/41 59/59/41 57/57/41
f 60/60/42 14/22/42 24/30/42 58/58/42
f 13/19/43 11/17/43 63/61/43 59/59/43
f 64/62/44 12/18/44 14/22/44 60/60/44
f 11/17/45 1/2/45 65/63/45 63/61/45
f 66/64/46 2/6/46 12/18/46 64/62/46
f 1/2/47 47/1/47 49/50/47 65/63/47
f 50/52/48 48/7/48 2/6/48 66/64/48
f 61/65/49 65/63/49 49/50/49
f 50/52/50 66/64/50 62/66/50
f 63/61/51 65/63/51 61/65/51
f 62/66/52 66/64/52 64/62/52
f 61/65/53 59/59/53 63/61/53
f 64/62/54 60/60/54 62/66/54
f 61/65/55 57/57/55 59/59/55
f 60/60/56 58/58/56 62/66/56
f 61/65/57 55/55/57 57/57/57
f 58/58/58 56/56/58 62/66/58
f 61/65/59 53/53/59 55/55/59
f 56/56/60 54/54/60 62/66/60
f 61/65/61 51/49/61 53/53/61
f 54/54/62 52/51/62 62/66/62
f 61/65/63 49/50/63 51/49/63
f 52/51/64 50/52/64 62/66/64
f 89/67/65 174/68/65 176/69/65 91/70/65
f 176/69/66 175/71/66 90/72/66 91/70/66
f 87/73/67 172/74/67 174/68/67 89/67/67
f 175/71/68 173/75/68 88/76/68 90/72/68
f 85/77/69 170/78/69 172/74/69 87/73/69
f 173/75/70 171/79/70 86/80/70 88/76/70
f 83/81/71 168/82/71 170/78/71 85/77/71
f 171/79/72 169/83/72 84/84/72 86/80/72
f 81/85/73 166/86/73 168/82/73 83/81/73
f 169/83/74 167/87/74 82/88/74 84/84/74
f 79/89/75 92/90/75 146/91/75 164/92/75
f 147/93/76 93/94/76 80/95/76 165/96/76
f 92/90/77 94/97/77 148/98/77 146/91/77
f 149/99/78 95/100/78 93/94/78 147/93/78
f 94/97/79 96/101/79 150/102/79 148/98/79
f 151/103/80 97/104/80 95/100/80 149/99/80
f 96/101/81 98/105/81 152/106/81 150/102/81
f 153/107/82 99/108/82 97/104/82 151/103/82
f 98/105/83 100/109/83 154/110/83 152/106/83
f 155/111/84 101/112/84 99/108/84 153/107/84
f 100/109/85 102/113/85 156/114/85 154/110/85
f 157/115/86 103/116/86 101/112/86 155/111/86
f 102/113/87 104/117/87 158/118/87 156/114/87
f 159/119/88 105/120/88 103/116/88 157/115/88
f 104/117/89 106/121/89 160/122/89 158/118/89
f 161/123/90 107/124/90 105/120/90 159/119/90
f 106/121/91 108/125/91 162/126/91 160/122/91
f 163/127/92 109/128/92 107/124/92 161/123/92
f 108/125/93 67/129/93 68/130/93 162/126/93
f 68/130/94 67/129/94 109/128/94 163/127/94
f 110/131/95 128/132/95 160/122/95 162/126/95
f 161/123/96 129/133/96 111/134/96 163/127/96
f 128/132/97 179/135/97 158/118/97 160/122/97
f 159/119/98 180/136/98 129/133/98 161/123/98
f 126/137/99 156/114/99 158/118/99 179/135/99
f 159/119/100 157/115/100 127/138/100 180/136/100
f 124/139/101 154/110/101 156/114/101 126/137/101
f 157/115/102 155/111/102 125/140/102 127/138/102
f 122/141/103 152/106/103 154/110/103 124/139/103
f 155/111/104 153/107/104 123/142/104 125/140/104
f 120/143/105 150/102/105 152/106/105 122/141/105
f 153/107/106 151/103/106 121/144/106 123/142/106
f 118/145/107 148/98/107 150/102/107 120/143/107
f 151/103/108 149/99/108 119/146/108 121/144/108
f 116/147/109 146/91/109 148/98/109 118/145/109
f 149/99/110 147/93/110 117/148/110 119/146/110
f 114/149/111 164/92/111 146/91/111 116/147/111
f 147/93/112 165/96/112 115/150/112 117/148/112
f 114/149/113 181/151/113 177/152/113 164/92/113
f 177/152/114 182/153/114 115/150/114 165/96/114
f 110/131/115 162/126/115 68/130/115 112/154/115
f 68/130/116 163/127/116 111/134/116 113/155/116
f 112/154/117 68/130/117 178/156/117 183/157/117
f 178/156/118 68/130/118 113/155/118 184/158/118
f 177/152/119 181/151/119 183/157/119 178/156/119
f 184/158/120 182/153/120 177/152/120 178/156/120
f 135/159/121 137/160/121 176/69/121 174/68/121
f 176/69/122 137/160/122 136/161/122 175/71/122
f 133/162/123 135/159/123 174/68/123 172/74/123
f 175/71/124 136/161/124 134/163/124 173/75/124
f 131/164/125 133/162/125 172/74/125 170/78/125
f 173/75/126 134/163/126 132/165/126 171/79/126
f 166/86/127 187/166/127 185/167/127 168/82/127
f 186/168/128 188/169/128 167/87/128 169/83/128
f 131/164/129 170/78/129 168/82/129 185/167/129
f 169/83/130 171/79/130 132/165/130 186/168/130
f 144/170/131 190/171/131 189/172/131 187/166/131
f 189/172/132 190/171/132 145/173/132 188/169/132
f 185/167/133 187/166/133 189/172/134 69/174/134
f 189/172/134 188/169/135 186/168/135 69/174/134
f 130/175/136 131/164/136 185/167/136 69/174/136
f 186/168/136 132/165/136 130/175/136 69/174/136
f 142/176/137 193/177/137 191/178/137 144/170/137
f 192/179/138 194/180/138 143/181/138 145/173/138
f 140/182/139 195/183/139 193/177/139 142/176/139
f 194/180/140 196/184/140 141/185/140 143/181/140
f 139/186/141 197/187/141 195/183/141 140/182/141
f 196/184/142 198/188/142 139/186/142 141/185/142
f 138/189/143 71/190/143 197/187/143 139/186/143
f 198/188/144 71/190/144 138/189/144 139/186/144
f 190/171/145 144/170/145 191/178/145 70/191/145
f 192/179/146 145/173/146 190/171/146 70/191/146
f 70/191/147 191/178/147 206/192/147 208/193/147
f 207/194/148 192/179/148 70/191/148 208/193/148
f 71/190/149 199/195/149 200/196/149 197/187/149
f 201/197/150 199/195/150 71/190/150 198/188/150
f 197/187/151 200/196/151 202/198/151 195/183/151
f 203/199/152 201/197/152 198/188/152 196/184/152
f 195/183/153 202/198/153 204/200/153 193/177/153
f 205/201/154 203/199/154 196/184/154 194/180/154
f 193/177/155 204/200/155 206/192/155 191/178/155
f 207/194/156 205/201/156 194/180/156 192/179/156
f 199/195/157 204/200/157 202/198/157 200/196/157
f 203/199/158 205/201/158 199/195/158 201/197/158
f 199/195/159 208/193/159 206/192/159 204/200/159
f 207/194/160 208/193/160 199/195/160 205/201/160
f 139/186/161 140/182/161 164/92/161 177/152/161
f 165/96/162 141/185/162 139/186/162 177/152/162
f 140/182/163 142/176/163 211/202/163 164/92/163
f 212/203/164 143/181/164 141/185/164 165/96/164
f 142/176/165 144/170/165 213/204/165 211/202/165
f 214/205/166 145/173/166 143/181/166 212/203/166
f 144/170/167 187/166/167 166/86/167 213/204/167
f 167/87/168 188/169/168 145/173/168 214/205/168
f 81/85/169 209/206/169 213/204/169 166/86/169
f 214/205/170 210/207/170 82/88/170 167/87/170
f 209/206/171 215/208/171 211/202/171 213/204/171
f 212/203/172 216/209/172 210/207/172 214/205/172
f 79/89/173 164/92/173 211/202/173 215/208/173
f 212/203/174 165/96/174 80/95/174 216/209/174
f 131/164/175 130/175/175 72/210/175 222/211/175
f 72/210/176 130/175/176 132/165/176 223/212/176
f 133/162/177 131/164/177 222/211/177 220/213/177
f 223/212/178 132/165/178 134/163/178 221/214/178
f 135/159/179 133/162/179 220/213/179 218/215/179
f 221/214/180 134/163/180 136/161/180 219/216/180
f 137/160/181 135/159/181 218/215/181 217/217/181
f 219/216/182 136/161/182 137/160/182 217/217/182
f 217/217/183 218/215/183 229/218/183 231/219/183
f 230/220/184 219/216/184 217/217/184 231/219/184
f 218/215/185 220/213/185 227/221/185 229/218/185
f 228/222/186 221/214/186 219/216/186 230/220/186
f 220/213/187 222/211/187 225/223/187 227/221/187
f 226/224/188 223/212/188 221/214/188 228/222/188
f 222/211/189 72/210/189 224/225/189 225/223/189
f 224/225/190 72/210/190 223/212/190 226/224/190
f 224/225/191 231/219/191 229/218/191 225/223/191
f 230/220/192 231/219/192 224/225/192 226/224/192
f 225/223/193 229/218/193 227/221/193
f 228/222/194 230/220/194 226/224/194
f 183/157/195 181/151/195 234/226/195 232/227/195
f 235/228/196 182/153/196 184/158/196 233/229/196
f 112/154/197 183/157/197 232/227/197 254/230/197
f 233/229/198 184/158/198 113/155/198 255/231/198
f 110/131/199 112/154/199 254/230/199 256/232/199
f 255/231/200 113/155/200 111/134/200 257/233/200
f 181/151/201 114/149/201 252/234/201 234/226/201
f 253/235/202 115/150/202 182/153/202 235/228/202
f 114/149/203 116/147/203 250/236/203 252/234/203
f 251/237/204 117/148/204 115/150/204 253/235/204
f 116/147/205 118/145/205 248/238/205 250/236/205
f 249/239/206 119/146/206 117/148/206 251/237/206
f 118/145/207 120/143/207 246/240/207 248/238/207
f 247/241/208 121/144/208 119/146/208 249/239/208
f 120/143/209 122/141/209 244/242/209 246/240/209
f 245/243/210 123/142/210 121/144/210 247/241/210
f 122/141/211 124/139/211 242/244/211 244/242/211
f 243/245/212 125/140/212 123/142/212 245/243/212
f 124/139/213 126/137/213 240/246/213 242/244/213
f 241/247/214 127/138/214 125/140/214 243/245/214
f 126/137/215 179/135/215 236/248/215 240/246/215
f 237/249/216 180/136/216 127/138/216 241/247/216
f 179/135/217 128/132/217 238/250/217 236/248/217
f 239/251/218 129/133/218 180/136/218 237/249/218
f 128/132/219 110/131/219 256/232/219 238/250/219
f 257/233/220 111/134/220 129/133/220 239/251/220
f 238/250/221 256/232/221 258/252/221 276/253/221
f 259/254/222 257/233/222 239/251/222 277/255/222
f 236/248/223 238/250/223 276/253/223 278/256/223
f 277/255/224 239/251/224 237/249/224 279/257/224
f 240/246/225 236/248/225 278/256/225 274/258/225
f 279/257/226 237/249/226 241/247/226 275/259/226
f 242/244/227 240/246/227 274/258/227 272/260/227
f 275/259/228 241/247/228 243/245/228 273/261/228
f 244/242/229 242/244/229 272/260/229 270/262/229
f 273/261/230 243/245/230 245/243/230 271/263/230
f 246/240/231 244/242/231 270/262/231 268/264/231
f 271/263/232 245/243/232 247/241/232 269/265/232
f 248/238/233 246/240/233 268/264/233 266/266/233
f 269/265/234 247/241/234 249/239/234 267/267/234
f 250/236/235 248/238/235 266/266/235 264/268/235
f 267/267/236 249/239/236 251/237/236 265/269/236
f 252/234/237 250/236/237 264/268/237 262/270/237
f 265/269/238 251/237/238 253/235/238 263/271/238
f 234/226/239 252/234/239 262/270/239 280/272/239
f 263/271/240 253/235/240 235/228/240 281/273/240
f 256/232/241 254/230/241 260/274/241 258/252/241
f 261/275/242 255/231/242 257/233/242 259/254/242
f 254/230/243 232/227/243 282/276/243 260/274/243
f 283/277/244 233/229/244 255/231/244 261/275/244
f 232/227/245 234/226/245 280/272/245 282/276/245
f 281/273/246 235/228/246 233/229/246 283/277/246
f 67/129/247 108/125/247 284/278/247 73/279/247
f 285/280/248 109/128/248 67/129/248 73/279/248
f 108/125/249 106/121/249 286/281/249 284/278/249
f 287/282/250 107/124/250 109/128/250 285/280/250
f 106/121/251 104/117/251 288/283/251 286/281/251
f 289/284/252 105/120/252 107/124/252 287/282/252
f 104/117/253 102/113/253 290/285/253 288/283/253
f 291/286/254 103/116/254 105/120/254 289/284/254
f 102/113/255 100/109/255 292/287/255 290/285/255
f 293/288/256 101/112/256 103/116/256 291/286/256
f 100/109/257 98/105/257 294/289/257 292/287/257
f 295/290/258 99/108/258 101/112/258 293/288/258
f 98/105/259 96/101/259 296/291/259 294/289/259
f 297/292/260 97/104/260 99/108/260 295/290/260
f 96/101/261 94/97/261 298/293/261 296/291/261
f 299/294/262 95/100/262 97/104/262 297/292/262
f 94/97/263 92/90/263 300/295/263 298/293/263
f 301/296/264 93/94/264 95/100/264 299/294/264
f 308/297/265 309/298/265 328/299/265 338/300/265
f 329/301/266 309/302/266 308/303/266 339/304/266
f 307/305/267 308/297/267 338/300/267 336/306/267
f 339/304/268 308/303/268 307/307/268 337/308/268
f 306/309/269 307/305/269 336/306/269 340/310/269
f 337/308/270 307/307/270 306/309/270 341/311/270
f 89/67/271 91/70/271 306/309/271 340/310/271
f 306/309/272 91/70/272 90/72/272 341/311/272
f 87/73/273 89/67/273 340/310/273 334/312/273
f 341/311/274 90/72/274 88/76/274 335/313/274
f 85/77/275 87/73/275 334/312/275 330/314/275
f 335/313/276 88/76/276 86/80/276 331/315/276
f 83/81/277 85/77/277 330/314/277 332/316/277
f 331/315/278 86/80/278 84/84/278 333/317/278
f 330/314/279 336/306/279 338/300/279 332/316/279
f 339/304/280 337/308/280 331/315/280 333/317/280
f 330/314/281 334/312/281 340/310/281 336/306/281
f 341/311/282 335/313/282 331/315/282 337/308/282
f 326/318/283 332/316/283 338/300/283 328/299/283
f 339/304/284 333/317/284 327/319/284 329/301/284
f 81/85/285 83/81/285 332/316/285 326/318/285
f 333/317/286 84/84/286 82/88/286 327/319/286
f 209/206/287 342/320/287 344/321/287 215/208/287
f 345/322/288 343/323/288 210/207/288 216/209/288
f 81/85/289 326/318/289 342/320/289 209/206/289
f 343/323/290 327/319/290 82/88/290 210/207/290
f 79/89/291 215/208/291 344/321/291 346/324/291
f 345/322/292 216/209/292 80/95/292 347/325/292
f 79/89/293 346/324/293 300/295/293 92/90/293
f 301/296/294 347/325/294 80/95/294 93/94/294
f 77/326/295 324/327/295 352/328/295 304/329/295
f 353/330/296 325/331/296 77/332/296 304/333/296
f 304/329/297 352/328/297 350/334/297 78/335/297
f 351/336/298 353/330/298 304/333/298 78/337/298
f 78/335/299 350/334/299 348/338/299 305/339/299
f 349/340/300 351/336/300 78/337/300 305/341/300
f 305/339/301 348/338/301 328/299/301 309/298/301
f 329/301/302 349/340/302 305/341/302 309/302/302
f 326/318/303 328/299/303 348/338/303 342/320/303
f 349/340/304 329/301/304 327/319/304 343/323/304
f 296/291/305 298/293/305 318/342/305 310/343/305
f 319/344/306 299/294/306 297/292/306 311/345/306
f 76/346/307 316/347/307 324/327/307 77/326/307
f 325/331/308 317/348/308 76/349/308 77/332/308
f 302/350/309 358/351/309 356/352/309 303/353/309
f 357/354/310 359/355/310 302/356/310 303/357/310
f 303/353/311 356/352/311 354/358/311 75/359/311
f 355/360/312 357/354/312 303/357/312 75/361/312
f 75/359/313 354/358/313 316/347/313 76/346/313
f 317/348/314 355/360/314 75/361/314 76/349/314
f 292/362/315 294/289/315 362/363/315 364/364/315
f 363/365/316 295/290/316 293/366/316 365/367/316
f 364/364/317 362/363/317 368/368/317 366/369/317
f 369/370/318 363/365/318 365/367/318 367/371/318
f 366/369/319 368/368/319 370/372/319 372/373/319
f 371/374/320 369/370/320 367/371/320 373/375/320
f 372/373/321 370/372/321 376/376/321 374/377/321
f 377/378/322 371/374/322 373/375/322 375/379/322
f 314/380/323 378/381/323 374/377/323 376/376/323
f 375/379/324 379/382/324 315/383/324 377/378/324
f 316/347/325 354/358/325 374/377/325 378/381/325
f 375/379/326 355/360/326 317/348/326 379/382/326
f 354/358/327 356/352/327 372/373/327 374/377/327
f 373/375/328 357/354/328 355/360/328 375/379/328
f 356/352/329 358/351/329 366/369/329 372/373/329
f 367/371/330 359/355/330 357/354/330 373/375/330
f 358/351/331 360/384/331 364/364/331 366/369/331
f 365/367/332 361/385/332 359/355/332 367/371/332
f 290/386/333 292/362/333 364/364/333 360/384/333
f 365/367/334 293/366/334 291/387/334 361/385/334
f 74/388/335 360/384/335 358/351/335 302/350/335
f 359/355/336 361/385/336 74/389/336 302/356/336
f 284/390/337 286/391/337 288/392/337 290/386/337
f 289/393/338 287/394/338 285/395/338 291/387/338
f 284/390/339 290/386/339 360/384/339 74/388/339
f 361/385/340 291/387/340 285/395/340 74/389/340
f 73/396/341 284/390/341 74/388/341
f 74/389/342 285/395/342 73/397/342
f 294/289/343 296/291/343 310/343/343 362/363/343
f 311/345/344 297/292/344 295/290/344 363/365/344
f 310/343/345 312/398/345 368/368/345 362/363/345
f 369/370/346 313/399/346 311/345/346 363/365/346
f 312/398/347 382/400/347 370/372/347 368/368/347
f 371/374/348 383/401/348 313/399/348 369/370/348
f 314/380/349 376/376/349 370/372/349 382/400/349
f 371/374/350 377/378/350 315/383/350 383/401/350
f 348/338/351 350/334/351 386/402/351 384/403/351
f 387/404/352 351/336/352 349/340/352 385/405/352
f 318/342/353 384/403/353 386/402/353 320/406/353
f 387/404/354 385/405/354 319/344/354 321/407/354
f 298/293/355 300/295/355 384/403/355 318/342/355
f 385/405/356 301/296/356 299/294/356 319/344/356
f 300/295/357 344/321/357 342/320/357 384/403/357
f 343/323/358 345/322/358 301/296/358 385/405/358
f 342/320/359 348/338/359 384/403/359
f 385/405/360 349/340/360 343/323/360
f 300/295/361 346/324/361 344/321/361
f 345/322/362 347/325/362 301/296/362
f 314/380/363 322/408/363 380/409/363 378/381/363
f 381/410/364 323/411/364 315/383/364 379/382/364
f 316/347/365 378/381/365 380/409/365 324/327/365
f 381/410/366 379/382/366 317/348/366 325/331/366
f 320/406/367 386/402/367 380/409/367 322/408/367
f 381/410/368 387/404/368 321/407/368 323/411/368
f 350/334/369 352/328/369 380/409/369 386/402/369
f 381/410/370 353/330/370 351/336/370 387/404/370
f 324/327/371 380/409/371 352/328/371
f 353/330/372 381/410/372 325/331/372
f 400/412/373 388/413/373 414/414/373 402/415/373
f 415/416/374 389/417/374 401/418/374 403/419/374
f 400/412/375 402/415/375 404/420/375 398/421/375
f 405/422/376 403/419/376 401/418/376 399/423/376
f 398/421/377 404/420/377 406/424/377 396/425/377
f 407/426/378 405/422/378 399/423/378 397/427/378
f 396/425/379 406/424/379 408/428/379 394/429/379
f 409/430/380 407/426/380 397/427/380 395/431/380
f 394/429/381 408/428/381 410/432/381 392/433/381
f 411/434/382 409/430/382 395/431/382 393/435/382
f 392/433/383 410/432/383 412/436/383 390/437/383
f 413/438/384 411/434/384 393/435/384 391/439/384
f 410/432/385 420/440/385 418/441/385 412/436/385
f 419/442/386 421/443/386 411/434/386 413/438/386
f 408/428/387 422/444/387 420/440/387 410/432/387
f 421/443/388 423/445/388 409/430/388 411/434/388
f 406/424/389 424/446/389 422/444/389 408/428/389
f 423/445/390 425/447/390 407/426/390 409/430/390
f 404/420/391 426/448/391 424/446/391 406/424/391
f 425/447/392 427/449/392 405/422/392 407/426/392
f 402/415/393 428/450/393 426/448/393 404/420/393
f 427/449/394 429/451/394 403/419/394 405/422/394
f 402/415/395 414/414/395 416/452/395 428/450/395
f 417/453/396 415/416/396 403/419/396 429/451/396
f 318/342/397 320/406/397 444/454/397 442/455/397
f 445/456/398 321/407/398 319/344/398 443/457/398
f 320/458/399 390/437/399 412/436/399 444/459/399
f 413/438/400 391/439/400 321/460/400 445/461/400
f 310/343/401 318/342/401 442/455/401 312/398/401
f 443/457/402 319/344/402 311/345/402 313/399/402
f 382/462/403 430/463/403 414/414/403 388/413/403
f 415/416/404 431/464/404 383/465/404 389/417/404
f 412/436/405 418/441/405 440/466/405 444/459/405
f 441/467/406 419/442/406 413/438/406 445/461/406
f 438/468/407 446/469/407 444/459/407 440/466/407
f 445/461/408 447/470/408 439/471/408 441/467/408
f 434/472/409 446/469/409 438/468/409 436/473/409
f 439/471/410 447/470/410 435/474/410 437/475/410
f 432/476/411 448/477/411 446/469/411 434/472/411
f 447/470/412 449/478/412 433/479/412 435/474/412
f 430/463/413 448/477/413 432/476/413 450/480/413
f 433/479/414 449/478/414 431/464/414 451/481/414
f 414/414/415 430/463/415 450/480/415 416/452/415
f 451/481/416 431/464/416 415/416/416 417/453/416
f 312/398/417 448/482/417 430/483/417 382/400/417
f 431/484/418 449/485/418 313/399/418 383/401/418
f 312/398/419 442/455/419 446/486/419 448/482/419
f 447/487/420 443/457/420 313/399/420 449/485/420
f 442/455/421 444/454/421 446/486/421
f 447/487/422 445/456/422 443/457/422
f 416/452/423 450/480/423 452/488/423 476/489/423
f 453/490/424 451/481/424 417/453/424 477/491/424
f 450/480/425 432/476/425 462/492/425 452/488/425
f 463/493/426 433/479/426 451/481/426 453/490/426
f 432/476/427 434/472/427 460/494/427 462/492/427
f 461/495/428 435/474/428 433/479/428 463/493/428
f 434/472/429 436/473/429 458/496/429 460/494/429
f 459/497/430 437/475/430 435/474/430 461/495/430
f 436/473/431 438/468/431 456/498/431 458/496/431
f 457/499/432 439/471/432 437/475/432 459/497/432
f 438/468/433 440/466/433 454/500/433 456/498/433
f 455/501/434 441/467/434 439/471/434 457/499/434
f 440/466/435 418/441/435 474/502/435 454/500/435
f 475/503/436 419/442/436 441/467/436 455/501/436
f 428/450/437 416/452/437 476/489/437 464/504/437
f 477/491/438 417/453/438 429/451/438 465/505/438
f 426/448/439 428/450/439 464/504/439 466/506/439
f 465/505/440 429/451/440 427/449/440 467/507/440
f 424/446/441 426/448/441 466/506/441 468/508/441
f 467/507/442 427/449/442 425/447/442 469/509/442
f 422/444/443 424/446/443 468/508/443 470/510/443
f 469/509/444 425/447/444 423/445/444 471/511/444
f 420/440/445 422/444/445 470/510/445 472/512/445
f 471/511/446 423/445/446 421/443/446 473/513/446
f 418/441/447 420/440/447 472/512/447 474/502/447
f 473/513/448 421/443/448 419/442/448 475/503/448
f 458/496/449 456/498/449 480/514/449 478/515/449
f 481/516/450 457/499/450 459/497/450 479/517/450
f 478/515/451 480/514/451 482/518/451 484/519/451
f 483/520/452 481/516/452 479/517/452 485/521/452
f 484/519/453 482/518/453 488/522/453 486/523/453
f 489/524/454 483/520/454 485/521/454 487/525/454
f 486/523/455 488/522/455 490/526/455 492/527/455
f 491/528/456 489/524/456 487/525/456 493/529/456
f 464/504/457 476/489/457 486/523/457 492/527/457
f 487/525/458 477/491/458 465/505/458 493/529/458
f 452/488/459 484/519/459 486/523/459 476/489/459
f 487/525/460 485/521/460 453/490/460 477/491/460
f 452/488/461 462/492/461 478/515/461 484/519/461
f 479/517/462 463/493/462 453/490/462 485/521/462
f 458/496/463 478/515/463 462/492/463 460/494/463
f 463/493/464 479/517/464 459/497/464 461/495/464
f 454/500/465 474/502/465 480/514/465 456/498/465
f 481/516/466 475/503/466 455/501/466 457/499/466
f 472/512/467 482/518/467 480/514/467 474/502/467
f 481/516/468 483/520/468 473/513/468 475/503/468
f 470/510/469 488/522/469 482/518/469 472/512/469
f 483/520/470 489/524/470 471/511/470 473/513/470
f 468/508/471 490/526/471 488/522/471 470/510/471
f 489/524/472 491/528/472 469/509/472 471/511/472
f 466/506/473 492/527/473 490/526/473 468/508/473
f 491/528/474 493/529/474 467/507/474 469/509/474
f 464/504/475 492/527/475 466/506/475
f 467/507/476 493/529/476 465/505/476
f 392/433/477 390/437/477 504/530/477 502/531/477
f 505/532/478 391/439/478 393/435/478 503/533/478
f 394/429/479 392/433/479 502/531/479 500/534/479
f 503/533/480 393/435/480 395/431/480 501/535/480
f 396/425/481 394/429/481 500/534/481 498/536/481
f 501/535/482 395/431/482 397/427/482 499/537/482
f 398/538/483 396/425/483 498/536/483 496/539/483
f 499/537/484 397/427/484 399/540/484 497/541/484
f 400/542/485 398/538/485 496/539/485 494/543/485
f 497/541/486 399/540/486 401/544/486 495/545/486
f 388/546/487 400/542/487 494/543/487 506/547/487
f 495/545/488 401/544/488 389/548/488 507/549/488
f 494/543/489 502/531/489 504/530/489 506/547/489
f 505/532/490 503/533/490 495/545/490 507/549/490
f 494/543/491 496/539/491 500/534/491 502/531/491
f 501/535/492 497/541/492 495/545/492 503/533/492
f 496/539/493 498/536/493 500/534/493
f 501/535/494 499/537/494 497/541/494
f 314/380/495 382/400/495 388/550/495 506/551/495
f 389/548/496 383/552/496 315/553/496 507/549/496
f 314/554/497 506/547/497 504/530/497 322/555/497
f 505/532/498 507/549/498 315/553/498 323/556/498
f 320/458/499 322/555/499 504/530/499 390/437/499
f 505/532/500 323/556/500 321/460/500 391/439/500
o Icosphere
v 2.566474 -1.000000 0.000000
v 3.290082 -0.447220 0.525725
v 2.290087 -0.447220 0.850649
v 1.672048 -0.447216 0.000000
v 2.290087 -0.447220 -0.850649
v 3.290082 -0.447220 -0.525725
v 2.842862 0.447220 0.850649
v 1.842867 0.447220 0.525725
v 1.842867 0.447220 -0.525725
v 2.842862 0.447220 -0.850649
v 3.460900 0.447216 -0.000000
v 2.566474 1.000000 -0.000000
v 2.404018 -0.850654 0.499995
v 2.991797 -0.850654 0.309011
v 2.829343 -0.525738 0.809012
v 3.417122 -0.525736 0.000000
v 2.991797 -0.850654 -0.309011
v 2.040744 -0.850652 0.000000
v 1.878285 -0.525736 0.499997
v 2.404018 -0.850654 -0.499995
v 1.878285 -0.525736 -0.499997
v 2.829343 -0.525738 -0.809012
v 3.517532 0.000000 0.309013
v 3.517532 -0.000000 -0.309013
v 2.566474 0.000000 1.000000
v 3.154260 0.000000 0.809017
v 1.615417 0.000000 0.309013
v 1.978688 0.000000 0.809017
v 1.978688 -0.000000 -0.809017
v 1.615417 -0.000000 -0.309013
v 3.154260 -0.000000 -0.809017
v 2.566474 -0.000000 -1.000000
v 3.254663 0.525736 0.499997
v 2.303606 0.525738 0.809012
v 1.715827 0.525736 -0.000000
v 2.303606 0.525738 -0.809012
v 3.254663 0.525736 -0.499997
v 2.728930 0.850654 0.499995
v 3.092205 0.850652 -0.000000
v 2.141151 0.850654 0.309011
v 2.141151 0.850654 -0.309011
v 2.728930 0.850654 -0.499995
vn 0.1024 -0.9435 0.3151
vn 0.7002 -0.6617 0.2680
vn -0.2680 -0.9435 0.1947
vn -0.2680 -0.9435 -0.1947
vn 0.1024 -0.9435 -0.3151
vn 0.9050 -0.3304 0.2680
vn 0.0247 -0.3304 0.9435
vn -0.8897 -0.3304 0.3151
vn -0.5746 -0.3304 -0.7488
vn 0.5346 -0.3304 -0.7779
vn 0.8026 -0.1256 0.5831
vn -0.3066 -0.1256 0.9435
vn -0.9921 -0.1256 -0.0000
vn -0.3066 -0.1256 -0.9435
vn 0.8026 -0.1256 -0.5831
vn 0.4089 0.6617 0.6284
vn -0.4713 0.6617 0.5831
vn -0.7002 0.6617 -0.2680
vn 0.0385 0.6617 -0.7488
vn 0.7240 0.6617 -0.1947
vn 0.2680 0.9435 -0.1947
vn 0.4911 0.7947 -0.3568
vn 0.4089 0.6617 -0.6284
vn -0.1024 0.9435 -0.3151
vn -0.1876 0.7947 -0.5773
vn -0.4713 0.6617 -0.5831
vn -0.3313 0.9435 -0.0000
vn -0.6071 0.7947 -0.0000
vn -0.7002 0.6617 0.2680
vn -0.1024 0.9435 0.3151
vn -0.1876 0.7947 0.5773
vn 0.0385 0.6617 0.7488
vn 0.2680 0.9435 0.1947
vn 0.4911 0.7947 0.3568
vn 0.7240 0.6617 0.1947
vn 0.8897 0.3304 -0.3151
vn 0.7947 0.1876 -0.5773
vn 0.5746 0.3304 -0.7488
vn -0.0247 0.3304 -0.9435
vn -0.3035 0.1876 -0.9342
vn -0.5346 0.3304 -0.7779
vn -0.9050 0.3304 -0.2680
vn -0.9822 0.1876 -0.0000
vn -0.9050 0.3304 0.2680
vn -0.5346 0.3304 0.7779
vn -0.3035 0.1876 0.9342
vn -0.0247 0.3304 0.9435
vn 0.5746 0.3304 0.7488
vn 0.7947 0.1876 0.5773
vn 0.8897 0.3304 0.3151
vn 0.3066 0.1256 -0.9435
vn 0.3035 -0.1876 -0.9342
vn 0.0247 -0.3304 -0.9435
vn -0.8026 0.1256 -0.5831
vn -0.7947 -0.1876 -0.5773
vn -0.8897 -0.3304 -0.3151
vn -0.8026 0.1256 0.5831
vn -0.7947 -0.1876 0.5773
vn -0.5746 -0.3304 0.7488
vn 0.3066 0.1256 0.9435
vn 0.3035 -0.1876 0.9342
vn 0.5346 -0.3304 0.7779
vn 0.9921 0.1256 -0.0000
vn 0.9822 -0.1876 -0.0000
vn 0.9050 -0.3304 -0.2680
vn 0.4713 -0.6617 -0.5831
vn 0.1876 -0.7947 -0.5773
vn -0.0385 -0.6617 -0.7488
vn -0.4089 -0.6617 -0.6284
vn -0.4911 -0.7947 -0.3568
vn -0.7240 -0.6617 -0.1947
vn -0.7240 -0.6617 0.1947
vn -0.4911 -0.7947 0.3568
vn -0.4089 -0.6617 0.6284
vn 0.7002 -0.6617 -0.2680
vn 0.6071 -0.7947 -0.0000
vn 0.3313 -0.9435 -0.0000
vn -0.0385 -0.6617 0.7488
vn 0.1876 -0.7947 0.5773
vn 0.4713 -0.6617 0.5831
vt 0.181819 0.000000
vt 0.227273 0.078731
vt 0.136365 0.078731
vt 0.272728 0.157461
vt 0.318182 0.078731
vt 0.363637 0.157461
vt 0.909091 0.000000
vt 0.954545 0.078731
vt 0.863636 0.078731
vt 0.727273 0.000000
vt 0.772727 0.078731
vt 0.681818 0.078731
vt 0.545455 0.000000
vt 0.590909 0.078731
vt 0.500000 0.078731
vt 0.318182 0.236191
vt 0.090910 0.157461
vt 0.181819 0.157461
vt 0.136365 0.236191
vt 0.818182 0.157461
vt 0.909091 0.157461
vt 0.863636 0.236191
vt 0.636364 0.157461
vt 0.727273 0.157461
vt 0.681818 0.236191
vt 0.454546 0.157461
vt 0.545455 0.157461
vt 0.500000 0.236191
vt 0.227273 0.236191
vt 0.045455 0.236191
vt 0.772727 0.236191
vt 0.590909 0.236191
vt 0.409092 0.236191
vt 0.181819 0.314921
vt 0.272728 0.314921
vt 0.227273 0.393651
vt 0.000000 0.314921
vt 0.090910 0.314921
vt 0.045455 0.393651
vt 0.727273 0.314921
vt 0.818182 0.314921
vt 0.772727 0.393651
vt 0.545455 0.314921
vt 0.636364 0.314921
vt 0.590909 0.393651
vt 0.363637 0.314921
vt 0.454546 0.314921
vt 0.409092 0.393651
vt 0.500000 0.393651
vt 0.454546 0.472382
vt 0.681818 0.393651
vt 0.636364 0.472382
vt 0.863636 0.393651
vt 0.818182 0.472382
vt 0.909091 0.314921
vt 0.136365 0.393651
vt 0.090910 0.472382
vt 0.318182 0.393651
vt 0.272728 0.472382
vt 0.954545 0.236191
vt 1.000000 0.157461
vt 0.409092 0.078731
vt 0.363637 0.000000
s 1
usemtl sphere
f 508/557/501 521/558/501 520/559/501
f 509/560/502 521/561/502 523/562/502
f 508/563/503 520/564/503 525/565/503
f 508/566/504 525/567/504 527/568/504
f 508/569/505 527/570/505 524/571/505
f 509/560/506 523/562/506 530/572/506
f 510/573/507 522/574/507 532/575/507
f 511/576/508 526/577/508 534/578/508
f 512/579/509 528/580/509 536/581/509
f 513/582/510 529/583/510 538/584/510
f 509/560/511 530/572/511 533/585/511
f 510/573/512 532/575/512 535/586/512
f 511/576/513 534/578/513 537/587/513
f 512/579/514 536/581/514 539/588/514
f 513/582/515 538/584/515 531/589/515
f 514/590/516 540/591/516 545/592/516
f 515/593/517 541/594/517 547/595/517
f 516/596/518 542/597/518 548/598/518
f 517/599/519 543/600/519 549/601/519
f 518/602/520 544/603/520 546/604/520
f 546/604/521 549/605/521 519/606/521
f 546/604/522 544/603/522 549/605/522
f 544/603/523 517/599/523 549/605/523
f 549/601/524 548/607/524 519/608/524
f 549/601/525 543/600/525 548/607/525
f 543/600/526 516/596/526 548/607/526
f 548/598/527 547/609/527 519/610/527
f 548/598/528 542/597/528 547/609/528
f 542/597/529 515/611/529 547/609/529
f 547/595/530 545/612/530 519/613/530
f 547/595/531 541/594/531 545/612/531
f 541/594/532 514/590/532 545/612/532
f 545/592/533 546/614/533 519/615/533
f 545/592/534 540/591/534 546/614/534
f 540/591/535 518/602/535 546/614/535
f 531/589/536 544/603/536 518/602/536
f 531/589/537 538/584/537 544/603/537
f 538/584/538 517/599/538 544/603/538
f 539/588/539 543/600/539 517/599/539
f 539/588/540 536/581/540 543/600/540
f 536/581/541 516/596/541 543/600/541
f 537/587/542 542/597/542 516/596/542
f 537/587/543 534/578/543 542/597/543
f 534/578/544 515/611/544 542/597/544
f 535/586/545 541/594/545 515/593/545
f 535/586/546 532/575/546 541/594/546
f 532/575/547 514/590/547 541/594/547
f 533/585/548 540/591/548 514/590/548
f 533/585/549 530/572/549 540/591/549
f 530/572/550 518/602/550 540/591/550
f 538/584/551 539/588/551 517/599/551
f 538/584/552 529/583/552 539/588/552
f 529/583/553 512/579/553 539/588/553
f 536/581/554 537/587/554 516/596/554
f 536/581/555 528/580/555 537/587/555
f 528/580/556 511/576/556 537/587/556
f 534/578/557 535/616/557 515/611/557
f 534/578/558 526/577/558 535/616/558
f 526/577/559 510/617/559 535/616/559
f 532/575/560 533/585/560 514/590/560
f 532/575/561 522/574/561 533/585/561
f 522/574/562 509/560/562 533/585/562
f 530/572/563 531/589/563 518/602/563
f 530/572/564 523/562/564 531/589/564
f 523/562/565 513/582/565 531/589/565
f 524/571/566 529/583/566 513/582/566
f 524/571/567 527/570/567 529/583/567
f 527/570/568 512/579/568 529/583/568
f 527/568/569 528/580/569 512/579/569
f 527/568/570 525/567/570 528/580/570
f 525/567/571 511/576/571 528/580/571
f 525/565/572 526/577/572 511/576/572
f 525/565/573 520/564/573 526/577/573
f 520/564/574 510/617/574 526/577/574
f 523/562/575 524/618/575 513/582/575
f 523/562/576 521/561/576 524/618/576
f 521/561/577 508/619/577 524/618/577
f 520/559/578 522/574/578 510/573/578
f 520/559/579 521/558/579 522/574/579
f 521/558/580 509/560/580 522/574/580
